<svg id="Layer_1" data-name="Layer 1" xmlns="http://www.w3.org/2000/svg" viewBox="0 0 2306.63 1178.55" >
<defs>
<style>.cls-1{fill:#231f20;}

@-webkit-keyframes fadeIn {
  from {
    opacity: 0;
  }
  to {
    opacity: 1;
  }
}
@-moz-keyframes fadeIn {
  from {
    opacity: 0;
  }
  to {
    opacity: 1;
  }
}
@keyframes fadeIn {
  from {
    opacity: 0;
  }
  to {
    opacity: 1;
  }
}

.fade-in {
  opacity: 0; /* make things invisible upon start */
  -webkit-animation: fadeIn ease-in 1;
  -moz-animation: fadeIn ease-in 1;
  animation: fadeIn ease-in 1;

  -webkit-animation-fill-mode: forwards;
  -moz-animation-fill-mode: forwards;
  animation-fill-mode: forwards;

  -webkit-animation-duration: 1s;
  -moz-animation-duration: 1s;
  animation-duration: 1s;
}

.fade-in.one {
  -webkit-animation-delay: 0.2s;
  -moz-animation-delay: 0.2s;
  animation-delay: 0.2s;
}

.fade-in.two {
  -webkit-animation-delay: 1.5s;
  -moz-animation-delay: 1.5s;
  animation-delay: 1.5s;
}

.fade-in.three {
  -webkit-animation-delay: 3.8s;
  -moz-animation-delay: 3.8s;
  animation-delay: 3.8s;
}

.fade-in.four {
  -webkit-animation-delay: 4.1s;
  -moz-animation-delay: 4.1s;
  animation-delay: 4.1s;
}


@-webkit-keyframes fadeOut {
  from {
    opacity: 1;
  }
  to {
    opacity: 0;
  }
}
@-moz-keyframes fadeOut {
  from {
    opacity: 1;
  }
  to {
    opacity: 0;
  }
}
@keyframes fadeOut {
  from {
    opacity: 1;
  }
  to {
    opacity: 0;
  }
}

.fade-out {
  opacity: 1; 
  -webkit-animation: fadeOut ease-in 1;
  -moz-animation: fadeOut ease-in 1;
  animation: fadeOut ease-in 1;

  -webkit-animation-fill-mode: forwards;
  -moz-animation-fill-mode: forwards;
  animation-fill-mode: forwards;

  -webkit-animation-duration: 1s;
  -moz-animation-duration: 1s;
  animation-duration: 1s;
}

.fade-out.two {
  -webkit-animation-delay: 2s;
  -moz-animation-delay: 2s;
  animation-delay: 2s;
}

.move {
  transform: translate(9px, 40px);
}
.move2 {
  transform: translate();
}

</style>
</defs><title>PSP_logo-choreographed-DESKTOP-05-05</title>

<path class="cls-1" d="M564.69,819.89a12.71,12.71,0,0,1,2.72-4,12.89,12.89,0,0,1,4-2.72,12.88,12.88,0,0,1,9.95,0,13.43,13.43,0,0,1,4.08,2.72,12.8,12.8,0,0,1,2.75,4,12.85,12.85,0,0,1,0,9.94,13.16,13.16,0,0,1-2.75,4.08,13,13,0,0,1-4.08,2.76,12.64,12.64,0,0,1-14-2.76,13.07,13.07,0,0,1-2.72-4.08,12.85,12.85,0,0,1,0-9.94Z"/>

<path class="cls-1" d="M564.69,143.18a12.62,12.62,0,0,1,6.76-6.76,12.76,12.76,0,0,1,9.95,0,13.22,13.22,0,0,1,4.08,2.71,12.8,12.8,0,0,1,2.75,4.05,12.88,12.88,0,0,1,0,9.95A13,13,0,0,1,581.4,160a12.64,12.64,0,0,1-14-2.76,12.92,12.92,0,0,1-2.72-4.07,12.88,12.88,0,0,1,0-9.95Z"/>
<!-- dot to T -->
<path class="cls-1 fade-out two" d="M1268,819.89a12.65,12.65,0,0,1,6.77-6.77,12.85,12.85,0,0,1,9.94,0,13.43,13.43,0,0,1,4.08,2.72,12.66,12.66,0,0,1,2.76,4,12.85,12.85,0,0,1,0,9.94,13,13,0,0,1-6.84,6.84,12.85,12.85,0,0,1-9.94,0,12.55,12.55,0,0,1-4-2.76,13.43,13.43,0,0,1-2.72-4.08,12.85,12.85,0,0,1,0-9.94Z"/>
<g>
<path class="cls-1 fade-in four" d="M1244.17,797V786.45H1291V797h-17.12v46.56h-12.56V797Z"/>
</g>
<path class="cls-1" d="M1268,141.36a13.05,13.05,0,0,1,2.72-4.05,12.74,12.74,0,0,1,4-2.71,12.73,12.73,0,0,1,9.94,0,13.22,13.22,0,0,1,4.08,2.71,12.66,12.66,0,0,1,2.76,4.05,12.88,12.88,0,0,1,0,9.95,13,13,0,0,1-2.76,4.08,13.16,13.16,0,0,1-4.08,2.75,12.85,12.85,0,0,1-9.94,0,12.68,12.68,0,0,1-4-2.75,13.43,13.43,0,0,1-2.72-4.08,12.88,12.88,0,0,1,0-9.95Z"/>
<path class="cls-1" d="M1502.48,143a12.68,12.68,0,0,1,6.76-6.77,12.88,12.88,0,0,1,10,0,13.43,13.43,0,0,1,4.08,2.72,12.75,12.75,0,0,1,2.76,14,13,13,0,0,1-6.84,6.84,12.88,12.88,0,0,1-10,0,12.62,12.62,0,0,1-4-2.76,13.31,13.31,0,0,1-2.72-4.08,12.85,12.85,0,0,1,0-9.94Z"/>
<path class="cls-1" d="M1736.93,143a12.68,12.68,0,0,1,6.76-6.77,12.88,12.88,0,0,1,10,0,13.43,13.43,0,0,1,4.08,2.72,12.75,12.75,0,0,1,2.76,14,13,13,0,0,1-6.84,6.84,12.88,12.88,0,0,1-10,0,12.62,12.62,0,0,1-4-2.76,13.31,13.31,0,0,1-2.72-4.08,12.85,12.85,0,0,1,0-9.94Z"/>
<path class="cls-1" d="M1963.72,388.89a12.67,12.67,0,0,1,2.72-4,12.89,12.89,0,0,1,4-2.72,12.88,12.88,0,0,1,10,0,13.43,13.43,0,0,1,4.08,2.72,12.75,12.75,0,0,1,2.75,4,12.88,12.88,0,0,1,0,9.95,13.16,13.16,0,0,1-2.75,4.08,13,13,0,0,1-4.08,2.76,12.64,12.64,0,0,1-14-2.76,13.07,13.07,0,0,1-2.72-4.08,12.88,12.88,0,0,1,0-9.95Z"/>
<path class="cls-1" d="M1963.72,143.18a12.62,12.62,0,0,1,6.76-6.76,12.76,12.76,0,0,1,10,0,13.22,13.22,0,0,1,4.08,2.71,12.8,12.8,0,0,1,2.75,4.05,12.88,12.88,0,0,1,0,9.95,13,13,0,0,1-6.83,6.83,12.64,12.64,0,0,1-14-2.76,12.92,12.92,0,0,1-2.72-4.07,12.88,12.88,0,0,1,0-9.95Z"/>
<path class="cls-1" d="M330.24,141.36a12.88,12.88,0,0,1,2.72-4.05,12.7,12.7,0,0,1,4-2.71,12.76,12.76,0,0,1,9.95,0,13.22,13.22,0,0,1,4.08,2.71,12.78,12.78,0,0,1,2.75,14,12.82,12.82,0,0,1-2.75,4.08,13.16,13.16,0,0,1-4.08,2.75,12.88,12.88,0,0,1-9.95,0,12.64,12.64,0,0,1-4-2.75,13.25,13.25,0,0,1-2.72-4.08,12.88,12.88,0,0,1,0-9.95Z"/>
<path class="cls-1" d="M104.63,389.12a12.89,12.89,0,0,1,2.72-4,12.72,12.72,0,0,1,4-2.72,12.88,12.88,0,0,1,10,0,13.25,13.25,0,0,1,4.08,2.72,12.76,12.76,0,0,1,2.75,14,12.82,12.82,0,0,1-2.75,4.08,13,13,0,0,1-4.08,2.76,12.64,12.64,0,0,1-14-2.76,13.43,13.43,0,0,1-2.72-4.08,12.88,12.88,0,0,1,0-9.95Z"/>
<path class="cls-1" d="M104.63,604.45a13.05,13.05,0,0,1,2.72-4.05,12.89,12.89,0,0,1,4-2.72,12.88,12.88,0,0,1,10,0,13.43,13.43,0,0,1,4.08,2.72,12.76,12.76,0,0,1,2.75,14,12.71,12.71,0,0,1-2.75,4.08,13,13,0,0,1-4.08,2.76,12.64,12.64,0,0,1-14-2.76,13.31,13.31,0,0,1-2.72-4.08,12.85,12.85,0,0,1,0-9.94Z"/>
<path class="cls-1" d="M104.63,141.36a13.05,13.05,0,0,1,2.72-4.05,12.7,12.7,0,0,1,4-2.71,12.76,12.76,0,0,1,10,0,13.22,13.22,0,0,1,4.08,2.71,12.78,12.78,0,0,1,2.75,14,12.82,12.82,0,0,1-2.75,4.08,13.16,13.16,0,0,1-4.08,2.75,12.88,12.88,0,0,1-10,0,12.64,12.64,0,0,1-4-2.75,13.43,13.43,0,0,1-2.72-4.08,12.88,12.88,0,0,1,0-9.95Z"/>
<path class="cls-1" d="M104.63,819.89a13.05,13.05,0,0,1,2.72-4,12.89,12.89,0,0,1,4-2.72,12.88,12.88,0,0,1,10,0,13.43,13.43,0,0,1,4.08,2.72,12.76,12.76,0,0,1,2.75,14,12.82,12.82,0,0,1-2.75,4.08,13,13,0,0,1-4.08,2.76,12.64,12.64,0,0,1-14-2.76,13.43,13.43,0,0,1-2.72-4.08,12.85,12.85,0,0,1,0-9.94Z"/>
<path class="cls-1" d="M2194.83,604.45a12.68,12.68,0,0,1,6.76-6.77,12.88,12.88,0,0,1,9.95,0,13.43,13.43,0,0,1,4.08,2.72,12.75,12.75,0,0,1,2.76,14,13,13,0,0,1-6.84,6.84,12.88,12.88,0,0,1-9.95,0,12.62,12.62,0,0,1-4-2.76,13.31,13.31,0,0,1-2.72-4.08,12.85,12.85,0,0,1,0-9.94Z"/>
<path class="cls-1" d="M2194.83,389.12a12.71,12.71,0,0,1,6.76-6.76,12.88,12.88,0,0,1,9.95,0,13.25,13.25,0,0,1,4.08,2.72,12.75,12.75,0,0,1,2.76,14,13,13,0,0,1-6.84,6.84,12.64,12.64,0,0,1-14-2.76,13.43,13.43,0,0,1-2.72-4.08,12.88,12.88,0,0,1,0-9.95Z"/>
<path class="cls-1" d="M2194.83,141.36a13.05,13.05,0,0,1,2.72-4.05,12.81,12.81,0,0,1,4-2.71,12.76,12.76,0,0,1,9.95,0,13.22,13.22,0,0,1,4.08,2.71,12.76,12.76,0,0,1,2.76,14,13,13,0,0,1-2.76,4.08,13.16,13.16,0,0,1-4.08,2.75,12.88,12.88,0,0,1-9.95,0,12.75,12.75,0,0,1-4-2.75,13.43,13.43,0,0,1-2.72-4.08,12.88,12.88,0,0,1,0-9.95Z"/>
<path class="cls-1" d="M799.14,143.12a12.56,12.56,0,0,1,2.72-4,12.72,12.72,0,0,1,4-2.72,12.85,12.85,0,0,1,9.94,0,13.18,13.18,0,0,1,4.09,2.72,12.64,12.64,0,0,1,2.75,4,12.88,12.88,0,0,1,0,9.95,13.16,13.16,0,0,1-2.75,4.08,12.92,12.92,0,0,1-4.09,2.75,12.73,12.73,0,0,1-9.94,0,12.48,12.48,0,0,1-4-2.75,13.07,13.07,0,0,1-2.72-4.08,12.88,12.88,0,0,1,0-9.95Z"/>
<path class="cls-1" d="M330.24,604.33a12.71,12.71,0,0,1,6.76-6.76,12.88,12.88,0,0,1,9.95,0,13.25,13.25,0,0,1,4.08,2.72,12.76,12.76,0,0,1,2.75,14,12.87,12.87,0,0,1-6.83,6.83,12.67,12.67,0,0,1-14-2.75,13.25,13.25,0,0,1-2.72-4.08,12.88,12.88,0,0,1,0-9.95Z"/>
<path class="cls-1" d="M330.24,819.89a12.68,12.68,0,0,1,6.76-6.77,12.88,12.88,0,0,1,9.95,0,13.43,13.43,0,0,1,4.08,2.72,12.76,12.76,0,0,1,2.75,14,12.82,12.82,0,0,1-2.75,4.08,13,13,0,0,1-4.08,2.76,12.64,12.64,0,0,1-14-2.76,13.25,13.25,0,0,1-2.72-4.08,12.85,12.85,0,0,1,0-9.94Z"/>
<path class="cls-1" d="M799.14,819.77a12.56,12.56,0,0,1,2.72-4,12.72,12.72,0,0,1,4-2.72,12.85,12.85,0,0,1,9.94,0,13.18,13.18,0,0,1,4.09,2.72,12.64,12.64,0,0,1,2.75,4,12.88,12.88,0,0,1,0,10,13.16,13.16,0,0,1-2.75,4.08,12.92,12.92,0,0,1-4.09,2.75,12.85,12.85,0,0,1-9.94,0,12.48,12.48,0,0,1-4-2.75,13.07,13.07,0,0,1-2.72-4.08,12.88,12.88,0,0,1,0-10Z"/>
<!-- dot to S -->
<path class="cls-1 fade-out two" d="M1033.59,819.89a12.59,12.59,0,0,1,6.76-6.77,12.85,12.85,0,0,1,9.94,0,13.19,13.19,0,0,1,4.08,2.72,12.66,12.66,0,0,1,2.76,4,12.85,12.85,0,0,1,0,9.94,13,13,0,0,1-2.76,4.08,12.79,12.79,0,0,1-4.08,2.76,12.85,12.85,0,0,1-9.94,0,12.55,12.55,0,0,1-4-2.76,13.22,13.22,0,0,1-2.71-4.08,12.73,12.73,0,0,1,0-9.94Z"/>
<g>
<path class="cls-1 fade-in four" d="M1022.28,829.53a9.28,9.28,0,0,0,2.76,3.24,12,12,0,0,0,4,1.84,19.13,19.13,0,0,0,4.8.6,24.55,24.55,0,0,0,3.6-.28,12.74,12.74,0,0,0,3.6-1.08,7.8,7.8,0,0,0,2.8-2.2,5.49,5.49,0,0,0,1.12-3.56,5,5,0,0,0-1.48-3.76,11.67,11.67,0,0,0-3.88-2.4,38.59,38.59,0,0,0-5.44-1.68c-2-.48-4.08-1-6.16-1.6a55.12,55.12,0,0,1-6.24-2,21.35,21.35,0,0,1-5.44-3,14.2,14.2,0,0,1-3.88-4.6,14.05,14.05,0,0,1-1.48-6.68,15,15,0,0,1,1.88-7.64,17.19,17.19,0,0,1,4.92-5.4,21.4,21.4,0,0,1,6.88-3.2,29.41,29.41,0,0,1,7.68-1,36.11,36.11,0,0,1,8.6,1,21.52,21.52,0,0,1,7.32,3.24,16.26,16.26,0,0,1,5.08,5.72,17.46,17.46,0,0,1,1.88,8.44h-12.16a9.89,9.89,0,0,0-1.08-4.24,7,7,0,0,0-2.44-2.64,10.33,10.33,0,0,0-3.48-1.36,21.11,21.11,0,0,0-4.28-.4,15,15,0,0,0-3,.32,8.19,8.19,0,0,0-2.76,1.12,7.07,7.07,0,0,0-2,2,5.39,5.39,0,0,0-.8,3,5.19,5.19,0,0,0,.64,2.72,5.8,5.8,0,0,0,2.52,1.92,32.54,32.54,0,0,0,5.2,1.76c2.22.59,5.11,1.33,8.68,2.24,1.07.21,2.55.6,4.44,1.16a21,21,0,0,1,5.64,2.68,17.08,17.08,0,0,1,4.84,4.92,14,14,0,0,1,2,7.88,17.36,17.36,0,0,1-1.52,7.28,15.81,15.81,0,0,1-4.52,5.8,21.74,21.74,0,0,1-7.44,3.8,35,35,0,0,1-10.28,1.36,36.28,36.28,0,0,1-9.16-1.16,23.07,23.07,0,0,1-7.84-3.64,18.09,18.09,0,0,1-5.4-6.32,18.94,18.94,0,0,1-1.92-9.12h12.16A10.51,10.51,0,0,0,1022.28,829.53Z"/>
</g>
<path class="cls-1" d="M1502.48,819.89a12.68,12.68,0,0,1,6.76-6.77,12.88,12.88,0,0,1,10,0,13.43,13.43,0,0,1,4.08,2.72,12.75,12.75,0,0,1,2.76,14,13,13,0,0,1-6.84,6.84,12.88,12.88,0,0,1-10,0,12.62,12.62,0,0,1-4-2.76,13.43,13.43,0,0,1-2.72-4.08,12.85,12.85,0,0,1,0-9.94Z"/>
<path class="cls-1" d="M2194.83,825a12.71,12.71,0,0,1,6.76-6.76,12.88,12.88,0,0,1,9.95,0,13.25,13.25,0,0,1,4.08,2.72,12.75,12.75,0,0,1,2.76,14,13,13,0,0,1-2.76,4.08,12.82,12.82,0,0,1-4.08,2.75,12.67,12.67,0,0,1-14-2.75,13.43,13.43,0,0,1-2.72-4.08,12.88,12.88,0,0,1,0-9.95Z"/>
<path class="cls-1" d="M1736.93,819.89a12.68,12.68,0,0,1,6.76-6.77,12.88,12.88,0,0,1,10,0,13.43,13.43,0,0,1,4.08,2.72,12.75,12.75,0,0,1,2.76,14,13,13,0,0,1-6.84,6.84,12.88,12.88,0,0,1-10,0,12.62,12.62,0,0,1-4-2.76,13.43,13.43,0,0,1-2.72-4.08,12.85,12.85,0,0,1,0-9.94Z"/>
<path class="cls-1" d="M1963.72,819.89a12.71,12.71,0,0,1,2.72-4,12.89,12.89,0,0,1,4-2.72,12.88,12.88,0,0,1,10,0,13.43,13.43,0,0,1,4.08,2.72,12.8,12.8,0,0,1,2.75,4,12.85,12.85,0,0,1,0,9.94,13.16,13.16,0,0,1-2.75,4.08,13,13,0,0,1-4.08,2.76,12.64,12.64,0,0,1-14-2.76,13.07,13.07,0,0,1-2.72-4.08,12.85,12.85,0,0,1,0-9.94Z"/>
<path class="cls-1" d="M564.69,1019.77a12.62,12.62,0,0,1,6.76-6.76,12.76,12.76,0,0,1,9.95,0,13.22,13.22,0,0,1,4.08,2.71,12.8,12.8,0,0,1,2.75,4,12.88,12.88,0,0,1,0,10,13,13,0,0,1-6.83,6.83,12.64,12.64,0,0,1-14-2.76,13,13,0,0,1-2.72-4.07,12.88,12.88,0,0,1,0-10Z"/>
<path class="cls-1" d="M330.24,1019.71A12.71,12.71,0,0,1,337,1013a12.88,12.88,0,0,1,9.95,0,13.25,13.25,0,0,1,4.08,2.72,12.76,12.76,0,0,1,2.75,14,12.82,12.82,0,0,1-2.75,4.08,13,13,0,0,1-4.08,2.75,12.67,12.67,0,0,1-14-2.75,13.25,13.25,0,0,1-2.72-4.08,12.88,12.88,0,0,1,0-10Z"/>
<path class="cls-1" d="M104.63,1019.71a12.89,12.89,0,0,1,2.72-4,12.72,12.72,0,0,1,4-2.72,12.88,12.88,0,0,1,10,0,13.25,13.25,0,0,1,4.08,2.72,12.76,12.76,0,0,1,2.75,14,12.82,12.82,0,0,1-2.75,4.08,13,13,0,0,1-4.08,2.75,12.67,12.67,0,0,1-14-2.75,13.43,13.43,0,0,1-2.72-4.08,12.88,12.88,0,0,1,0-10Z"/>
<path class="cls-1" d="M799.14,1019.77a12.62,12.62,0,0,1,6.76-6.76,12.73,12.73,0,0,1,9.94,0,13.15,13.15,0,0,1,4.09,2.71,12.8,12.8,0,0,1,2.75,4,12.88,12.88,0,0,1,0,10,13.11,13.11,0,0,1-2.75,4.07,13,13,0,0,1-4.09,2.76,12.85,12.85,0,0,1-9.94,0,12.51,12.51,0,0,1-4-2.76,13,13,0,0,1-2.72-4.07,12.88,12.88,0,0,1,0-10Z"/>
<path class="cls-1" d="M1033.59,143.18a12.53,12.53,0,0,1,6.76-6.76,12.73,12.73,0,0,1,9.94,0,13,13,0,0,1,4.08,2.71,12.66,12.66,0,0,1,2.76,4.05,12.88,12.88,0,0,1,0,9.95,13,13,0,0,1-6.84,6.83,12.85,12.85,0,0,1-9.94,0,12.55,12.55,0,0,1-4-2.76,13.06,13.06,0,0,1-2.71-4.07,12.76,12.76,0,0,1,0-9.95Z"/>
<!-- C to dot -->
<g>
<path class="cls-1 fade-out two" d="M354.53,380.62a12.75,12.75,0,0,0-2.8-3.16,13.11,13.11,0,0,0-8.24-2.88,14.68,14.68,0,0,0-7.2,1.64,13.71,13.71,0,0,0-4.8,4.4,19.27,19.27,0,0,0-2.68,6.28,31.32,31.32,0,0,0-.84,7.28,29,29,0,0,0,.84,7,18.78,18.78,0,0,0,2.68,6.12,13.7,13.7,0,0,0,4.8,4.36,14.57,14.57,0,0,0,7.2,1.64q5.76,0,9-3.52a16.26,16.26,0,0,0,4-9.28h12.16a29.08,29.08,0,0,1-2.48,9.68,23,23,0,0,1-5.28,7.36,22.35,22.35,0,0,1-7.68,4.64,28,28,0,0,1-9.68,1.6,29.29,29.29,0,0,1-11.8-2.28,25.27,25.27,0,0,1-8.84-6.28,27.74,27.74,0,0,1-5.52-9.4,34.5,34.5,0,0,1-1.92-11.64,35.75,35.75,0,0,1,1.92-11.88,28.57,28.57,0,0,1,5.52-9.56,25.31,25.31,0,0,1,8.84-6.4,30.63,30.63,0,0,1,20.72-1,24.25,24.25,0,0,1,7.52,4,21.53,21.53,0,0,1,5.48,6.44,23,23,0,0,1,2.72,8.8H356A10.15,10.15,0,0,0,354.53,380.62Z"/>
</g>
<g class="move">
<path class="cls-1 fade-in three" d="M318,346.46a12.71,12.71,0,0,1,6.76-6.76,12.88,12.88,0,0,1,9.95,0,13.25,13.25,0,0,1,4.08,2.72,12.75,12.75,0,0,1,2.76,14,12.93,12.93,0,0,1-6.84,6.83,12.88,12.88,0,0,1-9.95,0,12.59,12.59,0,0,1-4-2.75,13.43,13.43,0,0,1-2.72-4.08,12.88,12.88,0,0,1,0-10Z"/>
</g>
<!-- H to C -->
<g>
  <path class="cls-1 fade-out two" d="M564.9,365.57v21.92H588V365.57h12.56v57.12H588V398.05H564.9v24.64H552.34V365.57Z"/>
</g>
<g class="move">
  <path class="cls-1 fade-in four" d="M576.74,338.19a12.55,12.55,0,0,0-2.8-3.16,13.11,13.11,0,0,0-8.24-2.88,14.73,14.73,0,0,0-7.2,1.64,13.62,13.62,0,0,0-4.8,4.4,19.39,19.39,0,0,0-2.68,6.28,31.26,31.26,0,0,0-.84,7.28,29.1,29.1,0,0,0,.84,7,19,19,0,0,0,2.68,6.12,13.79,13.79,0,0,0,4.8,4.36,14.73,14.73,0,0,0,7.2,1.64q5.76,0,9-3.52a16.29,16.29,0,0,0,4-9.28h12.16a28.9,28.9,0,0,1-2.48,9.68,23.12,23.12,0,0,1-5.28,7.36,22.32,22.32,0,0,1-7.68,4.64,28,28,0,0,1-9.68,1.6,29.32,29.32,0,0,1-11.8-2.28,25.27,25.27,0,0,1-8.84-6.28,27.83,27.83,0,0,1-5.52-9.4,34.5,34.5,0,0,1-1.92-11.64,35.66,35.66,0,0,1,1.92-11.88,28.57,28.57,0,0,1,5.52-9.56,25.31,25.31,0,0,1,8.84-6.4,30.63,30.63,0,0,1,20.72-1,24.25,24.25,0,0,1,7.52,4,21.27,21.27,0,0,1,5.48,6.44,23,23,0,0,1,2.72,8.8H578.18A10.15,10.15,0,0,0,576.74,338.19Z"/>
</g>
<!-- O to dot -->
<path class="cls-1 fade-out two" d="M784.75,382.3a28.57,28.57,0,0,1,5.52-9.56,25.22,25.22,0,0,1,8.84-6.4,31.27,31.27,0,0,1,23.64,0,25.43,25.43,0,0,1,8.8,6.4,28.57,28.57,0,0,1,5.52,9.56A35.75,35.75,0,0,1,839,394.18a34.5,34.5,0,0,1-1.92,11.64,27.74,27.74,0,0,1-5.52,9.4,25.39,25.39,0,0,1-8.8,6.28,31.78,31.78,0,0,1-23.64,0,25.18,25.18,0,0,1-8.84-6.28,27.74,27.74,0,0,1-5.52-9.4,34.5,34.5,0,0,1-1.92-11.64A35.75,35.75,0,0,1,784.75,382.3Zm11.48,18.88a18.78,18.78,0,0,0,2.68,6.12,13.53,13.53,0,0,0,4.8,4.36,16.62,16.62,0,0,0,14.4,0,13.7,13.7,0,0,0,4.8-4.36,19,19,0,0,0,2.68-6.12,29,29,0,0,0,.84-7,31.32,31.32,0,0,0-.84-7.28,19.49,19.49,0,0,0-2.68-6.28,13.71,13.71,0,0,0-4.8-4.4,16.62,16.62,0,0,0-14.4,0,13.54,13.54,0,0,0-4.8,4.4,19.27,19.27,0,0,0-2.68,6.28,31.32,31.32,0,0,0-.84,7.28A29,29,0,0,0,796.23,401.18Z"/>
<g class="move">
  <path class="cls-1 fade-in three" d="M786.9,346.46a12.89,12.89,0,0,1,2.72-4,12.72,12.72,0,0,1,4-2.72,12.88,12.88,0,0,1,10,0,13.25,13.25,0,0,1,4.08,2.72,12.71,12.71,0,0,1,2.75,14,12.82,12.82,0,0,1-2.75,4.08,13,13,0,0,1-4.08,2.75,12.67,12.67,0,0,1-14-2.75,13.43,13.43,0,0,1-2.72-4.08,12.88,12.88,0,0,1,0-10Z"/>
</g>
<!-- R to dot -->
<path class="cls-1 fade-out two" d="M1051.56,363.68a18.35,18.35,0,0,1,6.92,1.24,16,16,0,0,1,5.28,3.4,15,15,0,0,1,3.36,5,16.07,16.07,0,0,1,1.16,6.12,17.2,17.2,0,0,1-2.12,8.72,13.36,13.36,0,0,1-6.92,5.6v.16a9.82,9.82,0,0,1,3.84,2,10.92,10.92,0,0,1,2.48,3.12,14.75,14.75,0,0,1,1.4,4,35.6,35.6,0,0,1,.6,4.32c0,.91.1,2,.16,3.2s.14,2.48.28,3.76a24,24,0,0,0,.64,3.64,8.26,8.26,0,0,0,1.32,2.92H1057.4a21.89,21.89,0,0,1-1.28-6.48q-.24-3.76-.72-7.2c-.43-3-1.34-5.17-2.72-6.56s-3.66-2.08-6.8-2.08h-12.56V420.8h-12.56V363.68Zm-4.48,25.84q4.32,0,6.48-1.92t2.16-6.24c0-2.77-.72-4.79-2.16-6s-3.6-1.88-6.48-1.88h-13.76v16.08Z"/>
<g class="move">
  <path class="cls-1 fade-in three" d="M1021.35,346.35a13.05,13.05,0,0,1,2.72-4.05,12.89,12.89,0,0,1,4-2.72,12.88,12.88,0,0,1,10,0,13.43,13.43,0,0,1,4.08,2.72,12.71,12.71,0,0,1,2.75,14,12.82,12.82,0,0,1-2.75,4.08,13,13,0,0,1-4.08,2.76,12.64,12.64,0,0,1-14-2.76,13.43,13.43,0,0,1-2.72-4.08,12.85,12.85,0,0,1,0-9.94Z"/>
</g>
<!-- E to dot -->
<path class="cls-1 fade-out two" d="M1300.85,365.57v10.56h-30.16v12.24h27.68v9.76h-27.68v14h30.8v10.56h-43.36V365.57Z"/>
<g class="move">
<path class="cls-1 fade-in three" d="M1255.8,346.35a12.68,12.68,0,0,1,6.76-6.77,12.88,12.88,0,0,1,10,0,13.43,13.43,0,0,1,4.08,2.72,12.76,12.76,0,0,1,2.75,14,12.82,12.82,0,0,1-2.75,4.08,13,13,0,0,1-4.08,2.76,12.64,12.64,0,0,1-14-2.76,13.25,13.25,0,0,1-2.72-4.08,12.85,12.85,0,0,1,0-9.94Z"/>
</g>
<!-- O to dot -->
<path class="cls-1 fade-out two" d="M1488.09,382.3a28.59,28.59,0,0,1,5.53-9.56,25.13,25.13,0,0,1,8.84-6.4,31.24,31.24,0,0,1,23.63,0,25.25,25.25,0,0,1,8.8,6.4,28.59,28.59,0,0,1,5.53,9.56,36,36,0,0,1,1.92,11.88,34.75,34.75,0,0,1-1.92,11.64,27.76,27.76,0,0,1-5.53,9.4,25.21,25.21,0,0,1-8.8,6.28,31.75,31.75,0,0,1-23.63,0,25.09,25.09,0,0,1-8.84-6.28,27.76,27.76,0,0,1-5.53-9.4,34.5,34.5,0,0,1-1.92-11.64A35.75,35.75,0,0,1,1488.09,382.3Zm11.49,18.88a18.57,18.57,0,0,0,2.68,6.12,13.58,13.58,0,0,0,4.79,4.36,16.65,16.65,0,0,0,14.41,0,13.7,13.7,0,0,0,4.8-4.36,18.77,18.77,0,0,0,2.67-6.12,28.55,28.55,0,0,0,.84-7,30.79,30.79,0,0,0-.84-7.28,19.25,19.25,0,0,0-2.67-6.28,13.71,13.71,0,0,0-4.8-4.4,16.65,16.65,0,0,0-14.41,0,13.6,13.6,0,0,0-4.79,4.4,19.06,19.06,0,0,0-2.68,6.28,30.79,30.79,0,0,0-.85,7.28A28.55,28.55,0,0,0,1499.58,401.18Z"/>
<g class="move">
<path class="cls-1 fade-in three" d="M1490.25,346.35a12.71,12.71,0,0,1,2.72-4.05,12.89,12.89,0,0,1,4-2.72,12.88,12.88,0,0,1,10,0,13.43,13.43,0,0,1,4.08,2.72,12.63,12.63,0,0,1,2.75,4.05,12.85,12.85,0,0,1,0,9.94,12.93,12.93,0,0,1-6.83,6.84,12.64,12.64,0,0,1-14-2.76,13.07,13.07,0,0,1-2.72-4.08,12.85,12.85,0,0,1,0-9.94Z"/>
</g>
<!-- emdash to M -->
<path class="cls-1 fade-out two" d="M1776.78,389.25V399h-56.16v-9.76Z"/>
<g class="move">
<path class="cls-1 fade-in four" d="M1723.39,322.8l13.36,39.28h.16l12.64-39.28h17.68v57.12h-11.76V339.43h-.16l-14,40.49h-9.68l-14-40.08h-.16v40.08h-11.76V322.8Z"/>
</g>
<!-- R to U -->
<path class="cls-1 fade-out two" d="M817.11,580.78A18.51,18.51,0,0,1,824,582a16,16,0,0,1,5.28,3.4,14.84,14.84,0,0,1,3.36,5,16.14,16.14,0,0,1,1.16,6.12,17.2,17.2,0,0,1-2.12,8.72,13.31,13.31,0,0,1-6.92,5.6V611a9.82,9.82,0,0,1,3.84,2,10.92,10.92,0,0,1,2.48,3.12,14.75,14.75,0,0,1,1.4,4,35.6,35.6,0,0,1,.6,4.32c0,.91.1,2,.16,3.2s.14,2.48.28,3.76a25.06,25.06,0,0,0,.64,3.64,8.26,8.26,0,0,0,1.32,2.92H823a21.89,21.89,0,0,1-1.28-6.48c-.16-2.5-.4-4.91-.72-7.2q-.65-4.47-2.72-6.56c-1.39-1.38-3.66-2.08-6.8-2.08H798.87V637.9H786.31V580.78Zm-4.48,25.84q4.32,0,6.48-1.92t2.16-6.24q0-4.15-2.16-6t-6.48-1.88H798.87v16.08Z"/>
<g class="move">
<path class="cls-1 fade-in four" d="M816.55,592.17q-6.48,5.64-17.92,5.64-11.6,0-18-5.6t-6.36-17.28V539.41h12.56v35.52a26.48,26.48,0,0,0,.4,4.56,8.87,8.87,0,0,0,5.24,6.76,14.47,14.47,0,0,0,6.12,1.08q6.72,0,9.28-3t2.56-9.4V539.41H823v35.52Q823,586.54,816.55,592.17Z"/>
</g>
<!-- G to dot -->
<path class="cls-1 fade-out two" d="M586.26,637.5a21,21,0,0,1-8.24,1.72,29.29,29.29,0,0,1-11.8-2.28,25.27,25.27,0,0,1-8.84-6.28,27.74,27.74,0,0,1-5.52-9.4,34.5,34.5,0,0,1-1.92-11.64,35.75,35.75,0,0,1,1.92-11.88,28.57,28.57,0,0,1,5.52-9.56,25.31,25.31,0,0,1,8.84-6.4,29,29,0,0,1,11.8-2.32,27.78,27.78,0,0,1,8.52,1.32,24.21,24.21,0,0,1,7.44,3.88,21,21,0,0,1,8.12,15h-12a12,12,0,0,0-4.32-7.2A12.56,12.56,0,0,0,578,590a14.68,14.68,0,0,0-7.2,1.64,13.71,13.71,0,0,0-4.8,4.4,19.27,19.27,0,0,0-2.68,6.28,31.32,31.32,0,0,0-.84,7.28,29,29,0,0,0,.84,7,18.78,18.78,0,0,0,2.68,6.12,13.79,13.79,0,0,0,4.8,4.36,14.57,14.57,0,0,0,7.2,1.64q6.24,0,9.64-3.16t4-9.16H579v-9.36h24v30.88h-8l-1.28-6.48A18.77,18.77,0,0,1,586.26,637.5Z"/>
<g class="move">
<path class="cls-1 fade-in three" d="M552.45,563.6a12.71,12.71,0,0,1,6.76-6.76,12.88,12.88,0,0,1,9.95,0,13.43,13.43,0,0,1,4.08,2.72,12.75,12.75,0,0,1,2.76,14,13,13,0,0,1-6.84,6.84,12.64,12.64,0,0,1-14-2.76,13.43,13.43,0,0,1-2.72-4.08,12.88,12.88,0,0,1,0-9.95Z"/>
</g>
<!-- A to dot -->
<path class="cls-1 fade-out two" d="M1051.92,580.78l21.36,57.12h-13l-4.32-12.72h-21.36l-4.48,12.72h-12.64l21.6-57.12Zm.72,35-7.2-21h-.16l-7.44,21Z"/>
<g class="move">
<path class="cls-1 fade-in three" d="M1021.35,563.49a13.05,13.05,0,0,1,2.72-4,12.7,12.7,0,0,1,4-2.71,12.76,12.76,0,0,1,10,0,13.22,13.22,0,0,1,4.08,2.71,12.73,12.73,0,0,1,2.75,14,12.82,12.82,0,0,1-2.75,4.08,13.16,13.16,0,0,1-4.08,2.75,12.88,12.88,0,0,1-10,0,12.64,12.64,0,0,1-4-2.75,13.43,13.43,0,0,1-2.72-4.08,12.88,12.88,0,0,1,0-10Z"/>
</g>
<!-- P to dot -->
<path class="cls-1 fade-out two" d="M1282.81,580.78a23.81,23.81,0,0,1,9.12,1.56,17.27,17.27,0,0,1,6.12,4.12,16,16,0,0,1,3.44,5.84,21.82,21.82,0,0,1,0,13.56,15.71,15.71,0,0,1-3.44,5.88,17.14,17.14,0,0,1-6.12,4.12,23.81,23.81,0,0,1-9.12,1.56h-13.2V637.9h-12.56V580.78Zm-3.44,26.88a26.77,26.77,0,0,0,4.16-.32,9.56,9.56,0,0,0,3.52-1.24,6.81,6.81,0,0,0,2.44-2.6,11,11,0,0,0,0-8.8,6.88,6.88,0,0,0-2.44-2.6,9.94,9.94,0,0,0-3.52-1.24,26.77,26.77,0,0,0-4.16-.32h-9.76v17.12Z"/>
<g class="move">
<path class="cls-1 fade-in three" d="M1255.8,563.49a12.88,12.88,0,0,1,2.72-4,12.7,12.7,0,0,1,4-2.71,12.76,12.76,0,0,1,10,0,13.22,13.22,0,0,1,4.08,2.71,12.78,12.78,0,0,1,2.75,14,12.82,12.82,0,0,1-2.75,4.08,13.16,13.16,0,0,1-4.08,2.75,12.88,12.88,0,0,1-10,0,12.64,12.64,0,0,1-4-2.75,13.25,13.25,0,0,1-2.72-4.08,12.88,12.88,0,0,1,0-10Z"/>
</g>
<!-- H to O -->
<path class="cls-1 fade-out two" d="M1502.7,580.78V602.7h23.12V580.78h12.56V637.9h-12.56V613.26H1502.7V637.9h-12.57V580.78Z"/>
<g class="move">
<path class="cls-1 fade-in four" d="M1475.86,556.9a28.57,28.57,0,0,1,5.52-9.56,25.31,25.31,0,0,1,8.84-6.4,31.27,31.27,0,0,1,23.64,0,25.34,25.34,0,0,1,8.8,6.4,28.57,28.57,0,0,1,5.52,9.56,35.66,35.66,0,0,1,1.92,11.88,34.5,34.5,0,0,1-1.92,11.64,27.83,27.83,0,0,1-5.52,9.4,25.3,25.3,0,0,1-8.8,6.28,31.78,31.78,0,0,1-23.64,0,25.27,25.27,0,0,1-8.84-6.28,27.83,27.83,0,0,1-5.52-9.4,34.5,34.5,0,0,1-1.92-11.64A35.66,35.66,0,0,1,1475.86,556.9Zm11.48,18.88a18.78,18.78,0,0,0,2.68,6.12,13.79,13.79,0,0,0,4.8,4.36,16.62,16.62,0,0,0,14.4,0,13.79,13.79,0,0,0,4.8-4.36,18.78,18.78,0,0,0,2.68-6.12,29.1,29.1,0,0,0,.84-7,31.26,31.26,0,0,0-.84-7.28,19.18,19.18,0,0,0-2.68-6.28,13.62,13.62,0,0,0-4.8-4.4,16.62,16.62,0,0,0-14.4,0,13.62,13.62,0,0,0-4.8,4.4,19.18,19.18,0,0,0-2.68,6.28,31.26,31.26,0,0,0-.84,7.28A29.1,29.1,0,0,0,1487.34,575.78Z"/>
</g>
<!-- E to dot -->
<path class="cls-1 fade-out two" d="M1769.74,580.78v10.56h-30.16v12.24h27.68v9.76h-27.68v14h30.8V637.9H1727V580.78Z"/>
<g class="move">
<path class="cls-1 fade-in three" d="M1724.7,563.49a12.62,12.62,0,0,1,6.76-6.76,12.76,12.76,0,0,1,10,0,13.22,13.22,0,0,1,4.08,2.71,12.8,12.8,0,0,1,2.75,4,12.88,12.88,0,0,1,0,10,12.87,12.87,0,0,1-6.83,6.83,12.88,12.88,0,0,1-10,0,12.64,12.64,0,0,1-4-2.75,13.07,13.07,0,0,1-2.72-4.08,12.88,12.88,0,0,1,0-10Z"/>
</g>
<!-- D to dot -->
<path class="cls-1 fade-out two" d="M1974.85,580.78a29.48,29.48,0,0,1,10.28,1.76,22.51,22.51,0,0,1,8.24,5.28,24.45,24.45,0,0,1,5.44,8.8,35.54,35.54,0,0,1,2,12.4,39.46,39.46,0,0,1-1.6,11.52,25.4,25.4,0,0,1-4.84,9.12,22.57,22.57,0,0,1-8.08,6,27.31,27.31,0,0,1-11.4,2.2h-24.64V580.78Zm-.88,46.56a16.07,16.07,0,0,0,5.28-.88,11.5,11.5,0,0,0,4.56-2.92,14.69,14.69,0,0,0,3.2-5.32,23.36,23.36,0,0,0,1.2-8,33.3,33.3,0,0,0-.84-7.8,15.61,15.61,0,0,0-2.76-6,12.25,12.25,0,0,0-5.08-3.8,20.3,20.3,0,0,0-7.8-1.32h-9v36Z"/>
<g class="move">
<path class="cls-1 fade-in three" d="M1959.15,561.84a12.56,12.56,0,0,1,2.72-4,12.72,12.72,0,0,1,4-2.72,12.85,12.85,0,0,1,9.94,0,13.18,13.18,0,0,1,4.09,2.72,12.64,12.64,0,0,1,2.75,4,12.88,12.88,0,0,1,0,9.95,13.16,13.16,0,0,1-2.75,4.08,12.75,12.75,0,0,1-4.09,2.75,12.66,12.66,0,0,1-14-2.75,13.07,13.07,0,0,1-2.72-4.08,12.76,12.76,0,0,1,0-9.95Z"/>
</g>
</svg>