<?xml version="1.0" encoding="utf-8"?>
<!-- Generator: Adobe Illustrator 15.1.0, SVG Export Plug-In . SVG Version: 6.00 Build 0)  -->
<!DOCTYPE svg PUBLIC "-//W3C//DTD SVG 1.1//EN" "http://www.w3.org/Graphics/SVG/1.1/DTD/svg11.dtd">
<svg version="1.1" id="Layer_1" xmlns="http://www.w3.org/2000/svg" xmlns:xlink="http://www.w3.org/1999/xlink" x="0px" y="0px"
	 viewBox="5.17 362.108 604.33 71.892" enable-background="new 5.17 362.108 604.33 71.892"
	 xml:space="preserve">
<style type="text/css">

	<![CDATA[

	path {
		fill: #fff;
	}

	.yellow path {fill: #fdee00;}
	
	

	@-webkit-keyframes fadeIn { from { opacity:0; } to { opacity:1; } }
	@-moz-keyframes fadeIn { from { opacity:0; } to { opacity:1; } }
	@keyframes fadeIn { from { opacity:0; } to { opacity:1; } }

	.fade-in {
	  opacity:0;  /* make things invisible upon start */
	  -webkit-animation:fadeIn ease-in 1;  
	  -moz-animation:fadeIn ease-in 1;
	  animation:fadeIn ease-in 1;

	  -webkit-animation-fill-mode:forwards; 
	  -moz-animation-fill-mode:forwards;
	  animation-fill-mode:forwards;

	  -webkit-animation-duration:1s;
	  -moz-animation-duration:1s;
	  animation-duration:1s;
	}

	.fade-in.one {
	  -webkit-animation-delay: 0.2s;
	  -moz-animation-delay: 0.2s;
	  animation-delay: 0.2s;
	}

	.fade-in.two {
	  -webkit-animation-delay: 1.5s;
	  -moz-animation-delay: 1.5s;
	  animation-delay: 1.5s;
	}

	.fade-in.three {
	  -webkit-animation-delay: 3.8s;
	  -moz-animation-delay: 3.8s;
	  animation-delay: 3.8s;
	} 


	]]>

</style>

<title>PSP_logo-web-navigation</title>
<g class="fade-in two">
  <path d="M26.53,426.663c0.06-0.143,0.146-0.271,0.256-0.38c0.109-0.109,0.238-0.196,0.38-0.256c0.299-0.126,0.636-0.126,0.935,0
	c0.143,0.061,0.272,0.147,0.384,0.256c0.109,0.108,0.197,0.237,0.258,0.38c0.125,0.299,0.125,0.637,0,0.937
	c-0.122,0.289-0.353,0.521-0.643,0.643c-0.45,0.191-0.971,0.089-1.315-0.259c-0.109-0.11-0.196-0.241-0.256-0.384
	C26.405,427.3,26.405,426.962,26.53,426.663z"/>
	<path d="M115.482,426.653c0.06-0.143,0.147-0.271,0.256-0.382c0.109-0.107,0.238-0.194,0.38-0.255c0.299-0.126,0.636-0.126,0.935,0
	c0.143,0.061,0.273,0.147,0.384,0.255c0.347,0.345,0.45,0.866,0.26,1.316c-0.124,0.29-0.354,0.521-0.644,0.643
	c-0.299,0.126-0.636,0.126-0.935,0c-0.142-0.061-0.271-0.147-0.38-0.258c-0.108-0.111-0.195-0.241-0.256-0.385
	C115.357,427.289,115.357,426.952,115.482,426.653z"/>
	<path d="M26.53,362.849c0.259-0.608,0.961-0.893,1.571-0.636c0.143,0.061,0.273,0.147,0.384,0.256
	c0.11,0.108,0.198,0.238,0.258,0.38c0.125,0.299,0.125,0.636,0,0.935c-0.061,0.144-0.148,0.274-0.258,0.384
	c-0.111,0.11-0.241,0.198-0.384,0.26c-0.45,0.192-0.972,0.089-1.315-0.26c-0.109-0.11-0.196-0.241-0.256-0.384
	C26.404,363.485,26.404,363.148,26.53,362.849z"/>
	<path d="M115.482,362.838c0.121-0.287,0.349-0.515,0.636-0.636c0.299-0.126,0.636-0.126,0.935,0c0.143,0.06,0.273,0.147,0.384,0.255
	c0.347,0.344,0.45,0.865,0.26,1.315c-0.124,0.29-0.354,0.52-0.644,0.644c-0.45,0.193-0.972,0.09-1.315-0.26
	c-0.109-0.11-0.195-0.241-0.256-0.384C115.357,363.474,115.357,363.137,115.482,362.838z"/>
	<path d="M181.868,362.849c0.121-0.287,0.349-0.515,0.636-0.636c0.299-0.125,0.637-0.125,0.936,0
	c0.143,0.061,0.272,0.147,0.383,0.256c0.347,0.344,0.45,0.865,0.26,1.315c-0.061,0.144-0.149,0.274-0.26,0.384
	c-0.11,0.11-0.24,0.198-0.383,0.26c-0.299,0.125-0.637,0.125-0.936,0c-0.143-0.061-0.271-0.149-0.38-0.26
	c-0.108-0.111-0.195-0.241-0.255-0.384C181.742,363.485,181.742,363.148,181.868,362.849z"/>
	<path d="M292.973,362.838c0.061-0.142,0.148-0.271,0.257-0.38c0.109-0.109,0.238-0.196,0.38-0.255c0.299-0.126,0.636-0.126,0.935,0
	c0.143,0.061,0.273,0.147,0.384,0.255c0.11,0.109,0.198,0.238,0.258,0.38c0.125,0.299,0.125,0.636,0,0.935
	c-0.123,0.29-0.353,0.521-0.643,0.644c-0.299,0.126-0.636,0.126-0.935,0c-0.143-0.06-0.272-0.148-0.38-0.26
	c-0.109-0.11-0.196-0.241-0.257-0.384C292.849,363.474,292.849,363.138,292.973,362.838z"/>
	<path d="M204.127,426.663c0.121-0.287,0.349-0.515,0.636-0.636c0.299-0.126,0.636-0.126,0.935,0
	c0.143,0.061,0.273,0.147,0.384,0.256c0.11,0.108,0.198,0.237,0.26,0.38c0.125,0.299,0.125,0.637,0,0.937
	c-0.062,0.143-0.15,0.273-0.26,0.384c-0.11,0.11-0.241,0.197-0.384,0.259c-0.299,0.125-0.636,0.125-0.935,0
	c-0.142-0.061-0.271-0.148-0.38-0.259c-0.108-0.111-0.195-0.241-0.256-0.384C204.001,427.3,204.001,426.962,204.127,426.663z"/>
	<path d="M204.149,406.411c0.121-0.287,0.349-0.516,0.636-0.637c0.299-0.126,0.637-0.126,0.937,0
	c0.143,0.062,0.272,0.147,0.384,0.256c0.11,0.108,0.198,0.238,0.258,0.381c0.125,0.299,0.125,0.637,0,0.936
	c-0.122,0.29-0.353,0.521-0.643,0.643c-0.299,0.125-0.637,0.125-0.937,0c-0.142-0.062-0.271-0.148-0.38-0.259
	c-0.108-0.111-0.195-0.241-0.256-0.384C204.023,407.048,204.023,406.71,204.149,406.411L204.149,406.411z"/>
	<path d="M293.001,426.663c0.121-0.287,0.349-0.515,0.636-0.636c0.299-0.126,0.636-0.126,0.935,0
	c0.143,0.061,0.273,0.147,0.384,0.256c0.347,0.345,0.45,0.865,0.26,1.316c-0.124,0.289-0.354,0.52-0.644,0.643
	c-0.299,0.125-0.636,0.125-0.935,0c-0.143-0.061-0.271-0.148-0.38-0.259c-0.108-0.111-0.195-0.241-0.255-0.384
	C292.876,427.3,292.876,426.962,293.001,426.663L293.001,426.663z"/>
	<path d="M315.199,406.411c0.061-0.142,0.147-0.271,0.256-0.381c0.109-0.108,0.238-0.195,0.38-0.256c0.3-0.126,0.638-0.126,0.937,0
	c0.143,0.063,0.272,0.152,0.383,0.263c0.347,0.345,0.45,0.865,0.26,1.316c-0.061,0.144-0.149,0.273-0.26,0.384
	c-0.11,0.109-0.24,0.197-0.383,0.259c-0.299,0.125-0.637,0.125-0.937,0c-0.142-0.061-0.271-0.148-0.38-0.259
	c-0.108-0.111-0.195-0.241-0.256-0.384c-0.126-0.299-0.126-0.637,0-0.936V406.411z"/>
	<path d="M402.204,362.838c0.06-0.142,0.146-0.271,0.255-0.38c0.109-0.109,0.238-0.196,0.381-0.255c0.299-0.126,0.636-0.126,0.935,0
	c0.144,0.06,0.273,0.147,0.384,0.255c0.347,0.345,0.448,0.865,0.259,1.315c-0.123,0.29-0.353,0.521-0.643,0.644
	c-0.299,0.126-0.636,0.126-0.935,0c-0.144-0.06-0.272-0.148-0.381-0.26c-0.108-0.11-0.195-0.241-0.255-0.384
	C402.078,363.474,402.078,363.137,402.204,362.838z"/>
	<path d="M424.54,406.411c0.06-0.142,0.146-0.271,0.256-0.381c0.109-0.108,0.238-0.195,0.38-0.256c0.299-0.126,0.636-0.126,0.935,0
	c0.143,0.061,0.273,0.147,0.385,0.256c0.347,0.345,0.449,0.865,0.26,1.316c-0.124,0.289-0.354,0.52-0.645,0.643
	c-0.299,0.126-0.636,0.126-0.935,0c-0.143-0.061-0.271-0.148-0.38-0.259c-0.108-0.111-0.195-0.241-0.256-0.384
	C424.414,407.048,424.414,406.71,424.54,406.411z"/>
	<path class="yellow" d="M5.376,406.411c0.121-0.288,0.351-0.517,0.639-0.637c0.299-0.126,0.637-0.126,0.937,0c0.142,0.063,0.271,0.152,0.381,0.263
	c0.11,0.108,0.198,0.238,0.258,0.381c0.125,0.299,0.125,0.637,0,0.936c-0.061,0.143-0.149,0.273-0.258,0.384
	c-0.111,0.109-0.241,0.197-0.384,0.259c-0.299,0.125-0.637,0.125-0.937,0c-0.142-0.062-0.271-0.148-0.38-0.259
	c-0.108-0.111-0.194-0.241-0.256-0.384c-0.125-0.299-0.125-0.637,0-0.936V406.411z"/>
	<path d="M578.324,362.838c0.061-0.142,0.146-0.271,0.256-0.38c0.109-0.108,0.238-0.195,0.38-0.255c0.3-0.126,0.637-0.126,0.937,0
	c0.143,0.061,0.272,0.147,0.383,0.255c0.347,0.344,0.449,0.865,0.26,1.315c-0.124,0.289-0.354,0.519-0.643,0.644
	c-0.451,0.193-0.974,0.09-1.316-0.26c-0.109-0.11-0.195-0.241-0.256-0.384C578.198,363.474,578.198,363.137,578.324,362.838z"/>
	<path d="M513.363,362.838c0.121-0.287,0.35-0.515,0.636-0.636c0.3-0.126,0.638-0.126,0.937,0c0.143,0.061,0.272,0.147,0.383,0.255
	c0.348,0.344,0.45,0.865,0.26,1.315c-0.124,0.289-0.354,0.519-0.643,0.644c-0.45,0.193-0.973,0.09-1.316-0.26
	c-0.108-0.11-0.195-0.241-0.256-0.384C513.238,363.474,513.238,363.137,513.363,362.838z"/>
	<path d="M578.352,426.663c0.122-0.287,0.351-0.515,0.637-0.636c0.299-0.126,0.637-0.126,0.936,0
	c0.143,0.061,0.272,0.147,0.384,0.256c0.11,0.108,0.197,0.237,0.259,0.38c0.125,0.299,0.125,0.637,0,0.937
	c-0.122,0.289-0.353,0.521-0.643,0.643c-0.45,0.191-0.972,0.089-1.315-0.259c-0.108-0.111-0.195-0.241-0.257-0.384
	C578.229,427.299,578.229,426.963,578.352,426.663z"/>
	<path d="M556.144,384.63c0.06-0.143,0.146-0.271,0.256-0.38c0.109-0.109,0.238-0.196,0.38-0.256c0.299-0.126,0.637-0.126,0.936,0
	c0.143,0.06,0.273,0.147,0.384,0.256c0.111,0.108,0.199,0.237,0.259,0.38c0.125,0.299,0.125,0.636,0,0.935
	c-0.122,0.29-0.353,0.521-0.643,0.643c-0.45,0.191-0.972,0.089-1.315-0.258c-0.108-0.111-0.195-0.241-0.256-0.384
	C556.018,385.267,556.018,384.929,556.144,384.63z"/>
	<path d="M446.67,426.663c0.12-0.287,0.35-0.516,0.637-0.636c0.299-0.126,0.636-0.126,0.936,0c0.142,0.061,0.272,0.147,0.384,0.256
	c0.109,0.108,0.197,0.237,0.258,0.38c0.126,0.299,0.126,0.637,0,0.937c-0.122,0.289-0.353,0.521-0.642,0.643
	c-0.3,0.125-0.637,0.125-0.936,0c-0.143-0.061-0.272-0.148-0.382-0.259c-0.107-0.111-0.194-0.241-0.255-0.384
	C446.546,427.299,446.546,426.963,446.67,426.663L446.67,426.663z"/>
	
	
</g>

<g class="fade-in three">
<path d="M5.376,384.63c0.122-0.287,0.351-0.516,0.639-0.636c0.299-0.125,0.637-0.125,0.937,0c0.143,0.061,0.272,0.147,0.384,0.256
	c0.346,0.345,0.448,0.865,0.258,1.315c-0.061,0.143-0.148,0.273-0.258,0.384c-0.111,0.112-0.242,0.202-0.387,0.265
	c-0.299,0.125-0.635,0.125-0.934,0c-0.142-0.061-0.271-0.149-0.38-0.258c-0.107-0.112-0.194-0.242-0.255-0.384
	c-0.126-0.299-0.126-0.636,0-0.935L5.376,384.63z"/>	
<path d="M5.267,362.838c0.259-0.607,0.959-0.891,1.568-0.636c0.143,0.061,0.273,0.147,0.384,0.255c0.111,0.108,0.2,0.238,0.261,0.38
	c0.126,0.299,0.126,0.636,0,0.935c-0.123,0.29-0.354,0.521-0.645,0.644c-0.299,0.126-0.636,0.126-0.935,0
	c-0.143-0.06-0.272-0.148-0.38-0.26c-0.109-0.11-0.196-0.241-0.255-0.384c-0.126-0.299-0.126-0.636,0-0.935H5.267z"/>
<path d="M600.527,384.63c0.121-0.287,0.35-0.515,0.636-0.636c0.3-0.125,0.638-0.125,0.937,0c0.143,0.061,0.273,0.147,0.385,0.256
	c0.346,0.345,0.448,0.865,0.258,1.315c-0.061,0.143-0.148,0.273-0.258,0.384c-0.111,0.109-0.241,0.197-0.385,0.258
	c-0.299,0.125-0.637,0.125-0.937,0c-0.142-0.061-0.271-0.149-0.38-0.258c-0.107-0.112-0.194-0.242-0.256-0.384
	C600.402,385.267,600.402,384.929,600.527,384.63z"/>
<path d="M600.506,426.663c0.06-0.143,0.146-0.271,0.256-0.38c0.109-0.109,0.238-0.196,0.38-0.256c0.299-0.126,0.636-0.126,0.935,0
	c0.143,0.061,0.273,0.147,0.385,0.256c0.346,0.345,0.448,0.865,0.258,1.316c-0.061,0.144-0.148,0.273-0.258,0.384
	c-0.11,0.109-0.241,0.197-0.385,0.259c-0.449,0.191-0.971,0.089-1.314-0.259c-0.109-0.11-0.195-0.241-0.256-0.384
	C600.38,427.3,600.38,426.962,600.506,426.663z"/>
<path d="M578.375,384.63c0.06-0.142,0.146-0.271,0.256-0.38c0.108-0.109,0.237-0.196,0.38-0.256c0.299-0.125,0.637-0.125,0.937,0
		c0.142,0.061,0.271,0.147,0.383,0.256c0.111,0.108,0.199,0.237,0.26,0.38c0.125,0.299,0.125,0.636,0,0.935
		c-0.062,0.144-0.149,0.274-0.26,0.384c-0.11,0.109-0.24,0.197-0.383,0.258c-0.3,0.125-0.638,0.125-0.937,0
		c-0.143-0.061-0.271-0.148-0.38-0.258c-0.108-0.111-0.195-0.242-0.256-0.384C578.249,385.267,578.249,384.929,578.375,384.63z"/>
<path d="M600.478,362.838c0.12-0.287,0.349-0.515,0.636-0.636c0.299-0.126,0.637-0.126,0.936,0c0.144,0.061,0.273,0.147,0.385,0.255
	c0.109,0.109,0.197,0.238,0.258,0.38c0.126,0.299,0.126,0.636,0,0.935c-0.122,0.29-0.353,0.521-0.643,0.644
	c-0.45,0.193-0.973,0.09-1.316-0.26c-0.107-0.111-0.194-0.241-0.255-0.384C600.352,363.474,600.352,363.137,600.478,362.838z"/>
	
<path d="M70.938,406.411c0.06-0.143,0.146-0.271,0.255-0.381s0.238-0.195,0.38-0.256c0.299-0.126,0.636-0.126,0.935,0
	c0.142,0.062,0.272,0.147,0.384,0.256c0.346,0.345,0.449,0.866,0.258,1.316c-0.061,0.144-0.148,0.273-0.258,0.384
	c-0.11,0.109-0.241,0.197-0.384,0.259c-0.45,0.191-0.972,0.089-1.315-0.259c-0.108-0.11-0.195-0.241-0.255-0.384
	C70.812,407.048,70.812,406.71,70.938,406.411z"/>
<path d="M424.489,384.636c0.06-0.142,0.146-0.271,0.256-0.38c0.108-0.109,0.238-0.197,0.38-0.257c0.3-0.124,0.636-0.124,0.936,0
	c0.143,0.061,0.272,0.148,0.384,0.257c0.111,0.108,0.199,0.237,0.26,0.38c0.126,0.299,0.126,0.636,0,0.935
	c-0.123,0.29-0.354,0.52-0.644,0.643c-0.3,0.125-0.637,0.125-0.936,0c-0.143-0.061-0.271-0.148-0.38-0.258
	c-0.108-0.111-0.195-0.241-0.256-0.384C424.363,385.272,424.363,384.935,424.489,384.636z"/>
<path d="M513.414,384.63c0.06-0.142,0.146-0.271,0.256-0.38s0.238-0.196,0.38-0.256c0.299-0.126,0.636-0.126,0.936,0
	c0.143,0.06,0.272,0.147,0.384,0.256c0.111,0.108,0.199,0.237,0.26,0.38c0.126,0.299,0.126,0.636,0,0.935
	c-0.123,0.29-0.354,0.52-0.644,0.643c-0.3,0.125-0.637,0.125-0.936,0c-0.143-0.061-0.271-0.148-0.38-0.258
	c-0.108-0.111-0.195-0.242-0.256-0.384C513.288,385.267,513.288,384.929,513.414,384.63z"/>
<path d="M181.918,384.63c0.06-0.142,0.146-0.271,0.256-0.38c0.109-0.109,0.238-0.196,0.38-0.256c0.299-0.126,0.636-0.126,0.935,0
	c0.143,0.06,0.273,0.147,0.384,0.256c0.111,0.108,0.2,0.237,0.26,0.38c0.126,0.299,0.126,0.636,0,0.935
	c-0.123,0.29-0.354,0.52-0.644,0.643c-0.299,0.125-0.636,0.125-0.935,0c-0.142-0.061-0.271-0.148-0.38-0.258
	c-0.108-0.111-0.195-0.242-0.256-0.384C181.792,385.267,181.792,384.929,181.918,384.63L181.918,384.63z"/>
<path d="M402.313,406.411c0.12-0.287,0.348-0.516,0.636-0.637c0.299-0.126,0.637-0.126,0.936,0c0.143,0.062,0.273,0.147,0.385,0.256
	c0.11,0.108,0.197,0.238,0.258,0.381c0.126,0.299,0.126,0.637,0,0.936c-0.122,0.29-0.353,0.521-0.643,0.643
	c-0.299,0.125-0.637,0.125-0.936,0c-0.143-0.062-0.271-0.148-0.381-0.259c-0.107-0.111-0.194-0.241-0.255-0.384
	C402.188,407.048,402.188,406.71,402.313,406.411L402.313,406.411z"/>

<path d="M5.355,426.663c0.058-0.142,0.143-0.271,0.25-0.38c0.109-0.109,0.238-0.196,0.38-0.256c0.299-0.126,0.636-0.126,0.935,0
	c0.143,0.061,0.273,0.147,0.384,0.256c0.346,0.345,0.448,0.865,0.258,1.316c-0.061,0.144-0.148,0.273-0.258,0.384
	c-0.11,0.109-0.241,0.197-0.384,0.259c-0.45,0.191-0.971,0.089-1.315-0.259c-0.109-0.11-0.195-0.241-0.256-0.384
	c-0.125-0.3-0.125-0.638,0-0.937H5.355z"/>
<path d="M26.552,406.411c0.061-0.14,0.147-0.267,0.255-0.374c0.11-0.108,0.239-0.195,0.38-0.256c0.299-0.126,0.637-0.126,0.936,0
	c0.142,0.062,0.272,0.147,0.383,0.256c0.347,0.345,0.45,0.865,0.26,1.316c-0.061,0.144-0.149,0.273-0.26,0.384
	c-0.11,0.109-0.24,0.197-0.383,0.259c-0.299,0.125-0.637,0.125-0.936,0c-0.143-0.061-0.271-0.148-0.38-0.259
	c-0.108-0.111-0.195-0.241-0.255-0.384c-0.126-0.299-0.126-0.637,0-0.936V406.411z"/>
<path d="M93.25,362.838c0.06-0.142,0.146-0.271,0.255-0.38c0.109-0.109,0.238-0.196,0.38-0.255c0.299-0.126,0.636-0.126,0.935,0
	c0.143,0.061,0.273,0.147,0.384,0.255c0.111,0.109,0.199,0.238,0.26,0.38c0.126,0.299,0.126,0.636,0,0.935
	c-0.123,0.29-0.353,0.521-0.643,0.644c-0.299,0.126-0.636,0.126-0.935,0c-0.143-0.06-0.272-0.148-0.38-0.26
	c-0.109-0.11-0.196-0.241-0.257-0.384C93.126,363.474,93.126,363.138,93.25,362.838z"/>


<path d="M48.761,426.663c0.121-0.287,0.349-0.515,0.636-0.636c0.299-0.126,0.636-0.126,0.935,0c0.143,0.061,0.274,0.147,0.385,0.256
	c0.347,0.345,0.45,0.865,0.26,1.316c-0.123,0.289-0.354,0.52-0.644,0.643c-0.299,0.125-0.636,0.125-0.935,0
	c-0.143-0.061-0.271-0.148-0.38-0.259c-0.108-0.111-0.195-0.241-0.255-0.384c-0.126-0.3-0.126-0.638,0-0.937H48.761z"/>
<path d="M70.914,426.663c0.121-0.287,0.349-0.515,0.636-0.636c0.299-0.126,0.637-0.126,0.937,0c0.142,0.061,0.271,0.147,0.383,0.256
	c0.347,0.345,0.45,0.865,0.26,1.316c-0.062,0.144-0.149,0.273-0.26,0.384c-0.11,0.109-0.24,0.197-0.383,0.259
	c-0.3,0.125-0.637,0.125-0.937,0c-0.143-0.061-0.271-0.148-0.38-0.259c-0.108-0.111-0.195-0.241-0.256-0.384
	C70.789,427.3,70.789,426.962,70.914,426.663z"/>
<path d="M93.25,426.653c0.121-0.287,0.35-0.516,0.637-0.637c0.299-0.126,0.636-0.126,0.935,0c0.143,0.061,0.273,0.147,0.384,0.255
	c0.11,0.109,0.198,0.239,0.258,0.382c0.126,0.299,0.126,0.636,0,0.935c-0.122,0.29-0.353,0.521-0.643,0.643
	c-0.45,0.192-0.971,0.09-1.315-0.258c-0.109-0.111-0.196-0.241-0.257-0.385C93.126,427.289,93.126,426.953,93.25,426.653z"/>

<path d="M137.635,426.653c0.06-0.143,0.147-0.271,0.256-0.382c0.109-0.107,0.238-0.194,0.38-0.255c0.3-0.126,0.637-0.126,0.937,0
	c0.142,0.061,0.272,0.147,0.383,0.255c0.347,0.345,0.45,0.866,0.26,1.316c-0.061,0.144-0.149,0.274-0.26,0.385
	c-0.11,0.109-0.24,0.197-0.383,0.258c-0.299,0.126-0.637,0.126-0.937,0c-0.142-0.061-0.271-0.147-0.38-0.258
	c-0.108-0.111-0.195-0.241-0.256-0.385C137.51,427.289,137.51,426.952,137.635,426.653z"/>
<path d="M159.751,426.653c0.06-0.143,0.147-0.271,0.256-0.382c0.109-0.107,0.238-0.194,0.38-0.255c0.299-0.126,0.637-0.126,0.937,0
	c0.142,0.061,0.271,0.147,0.383,0.255c0.347,0.345,0.45,0.866,0.26,1.316c-0.062,0.144-0.149,0.274-0.26,0.385
	c-0.11,0.109-0.24,0.197-0.383,0.258c-0.3,0.126-0.637,0.126-0.937,0c-0.143-0.061-0.271-0.147-0.38-0.258
	c-0.108-0.111-0.195-0.241-0.256-0.385C159.626,427.289,159.626,426.952,159.751,426.653z"/>

<path d="M48.761,362.849c0.121-0.287,0.349-0.515,0.636-0.636c0.299-0.125,0.636-0.125,0.935,0c0.144,0.06,0.274,0.147,0.385,0.256
	c0.347,0.344,0.45,0.865,0.26,1.315c-0.061,0.144-0.149,0.274-0.26,0.384c-0.11,0.11-0.241,0.198-0.384,0.26
	c-0.299,0.125-0.636,0.125-0.935,0c-0.143-0.061-0.271-0.149-0.38-0.26c-0.108-0.111-0.195-0.241-0.255-0.384
	c-0.126-0.299-0.126-0.636,0-0.935H48.761z"/>
<path d="M70.914,362.849c0.121-0.287,0.349-0.515,0.636-0.636c0.299-0.125,0.637-0.125,0.937,0c0.14,0.062,0.268,0.148,0.377,0.256
	c0.347,0.344,0.45,0.865,0.26,1.315c-0.061,0.144-0.149,0.274-0.26,0.384c-0.11,0.11-0.24,0.198-0.382,0.26
	c-0.3,0.125-0.637,0.125-0.937,0c-0.143-0.061-0.271-0.149-0.38-0.26c-0.108-0.111-0.195-0.241-0.255-0.384
	c-0.126-0.299-0.126-0.636,0-0.935H70.914z"/>


<path d="M137.635,362.838c0.121-0.287,0.349-0.515,0.636-0.636c0.3-0.126,0.637-0.126,0.937,0c0.143,0.061,0.272,0.147,0.383,0.255
	c0.347,0.344,0.45,0.865,0.26,1.315c-0.124,0.289-0.354,0.519-0.643,0.644c-0.45,0.193-0.973,0.09-1.316-0.26
	c-0.109-0.11-0.195-0.241-0.256-0.384C137.51,363.474,137.51,363.137,137.635,362.838z"/>
<path d="M159.751,362.838c0.121-0.287,0.349-0.515,0.636-0.636c0.299-0.126,0.637-0.126,0.937,0
	c0.142,0.061,0.272,0.147,0.383,0.255c0.347,0.344,0.45,0.865,0.26,1.315c-0.124,0.289-0.354,0.519-0.643,0.644
	c-0.451,0.193-0.973,0.09-1.316-0.26c-0.109-0.11-0.196-0.241-0.256-0.384C159.626,363.474,159.626,363.137,159.751,362.838
	L159.751,362.838z"/>

<path d="M204.1,362.849c0.061-0.142,0.147-0.271,0.256-0.38c0.109-0.109,0.239-0.196,0.381-0.256c0.299-0.125,0.636-0.125,0.935,0
	c0.143,0.061,0.273,0.147,0.384,0.256c0.11,0.108,0.198,0.238,0.258,0.38c0.126,0.299,0.126,0.636,0,0.935
	c-0.061,0.144-0.148,0.274-0.258,0.384c-0.111,0.11-0.241,0.198-0.384,0.26c-0.299,0.125-0.636,0.125-0.935,0
	c-0.143-0.061-0.272-0.149-0.381-0.26c-0.108-0.111-0.195-0.242-0.256-0.384C203.974,363.485,203.974,363.148,204.1,362.849z"/>
<path d="M226.253,362.849c0.259-0.608,0.961-0.893,1.571-0.636c0.143,0.061,0.273,0.147,0.384,0.256
	c0.11,0.108,0.198,0.238,0.258,0.38c0.126,0.299,0.126,0.636,0,0.935c-0.061,0.144-0.148,0.274-0.258,0.384
	c-0.11,0.11-0.241,0.198-0.384,0.26c-0.45,0.192-0.972,0.089-1.315-0.26c-0.109-0.11-0.196-0.241-0.255-0.384
	C226.127,363.485,226.127,363.148,226.253,362.849z"/>
<path d="M248.589,362.838c0.121-0.287,0.349-0.515,0.636-0.636c0.299-0.126,0.636-0.126,0.935,0c0.143,0.06,0.273,0.147,0.384,0.255
	c0.347,0.344,0.45,0.865,0.26,1.315c-0.124,0.29-0.354,0.52-0.644,0.644c-0.45,0.193-0.972,0.09-1.315-0.26
	c-0.109-0.11-0.196-0.241-0.256-0.384C248.463,363.474,248.463,363.137,248.589,362.838L248.589,362.838z"/>
<path d="M270.82,362.838c0.061-0.142,0.147-0.271,0.255-0.38c0.11-0.108,0.239-0.195,0.382-0.255c0.299-0.126,0.636-0.126,0.935,0
	c0.143,0.061,0.273,0.147,0.384,0.255c0.11,0.109,0.198,0.238,0.258,0.38c0.126,0.299,0.126,0.636,0,0.935
	c-0.123,0.29-0.353,0.521-0.642,0.644c-0.451,0.192-0.973,0.089-1.316-0.26c-0.108-0.111-0.195-0.241-0.256-0.384
	C270.694,363.474,270.694,363.137,270.82,362.838L270.82,362.838z"/>

<path d="M315.089,362.838c0.061-0.142,0.147-0.271,0.257-0.38c0.109-0.109,0.238-0.196,0.38-0.255c0.299-0.126,0.637-0.126,0.936,0
	c0.143,0.061,0.272,0.147,0.384,0.255c0.11,0.109,0.198,0.238,0.259,0.38c0.126,0.299,0.126,0.636,0,0.935
	c-0.123,0.29-0.354,0.521-0.643,0.644c-0.299,0.126-0.637,0.126-0.936,0c-0.143-0.06-0.271-0.148-0.38-0.26
	c-0.109-0.11-0.196-0.241-0.257-0.384C314.965,363.474,314.965,363.138,315.089,362.838z"/>

<path d="M48.784,406.411c0.06-0.143,0.146-0.271,0.256-0.381s0.238-0.195,0.38-0.256c0.299-0.126,0.636-0.126,0.935,0
	c0.143,0.062,0.273,0.147,0.384,0.256c0.11,0.108,0.198,0.238,0.258,0.381c0.126,0.299,0.126,0.637,0,0.936
	c-0.122,0.29-0.353,0.521-0.643,0.643c-0.45,0.191-0.971,0.089-1.315-0.259c-0.109-0.11-0.195-0.241-0.256-0.384
	C48.659,407.048,48.659,406.71,48.784,406.411z"/>

<path d="M181.895,426.663c0.121-0.287,0.349-0.515,0.636-0.636c0.299-0.126,0.637-0.126,0.936,0
	c0.143,0.061,0.273,0.147,0.384,0.256c0.11,0.108,0.198,0.237,0.258,0.38c0.126,0.299,0.126,0.637,0,0.937
	c-0.122,0.289-0.353,0.521-0.643,0.643c-0.299,0.125-0.637,0.125-0.936,0c-0.142-0.062-0.271-0.149-0.38-0.259
	c-0.108-0.111-0.194-0.241-0.255-0.384C181.769,427.3,181.769,426.962,181.895,426.663L181.895,426.663z"/>

<path d="M226.28,426.663c0.121-0.287,0.349-0.515,0.636-0.636c0.299-0.126,0.636-0.126,0.935,0c0.143,0.061,0.273,0.147,0.384,0.256
	c0.347,0.345,0.45,0.865,0.26,1.316c-0.123,0.289-0.354,0.52-0.644,0.643c-0.299,0.125-0.636,0.125-0.935,0
	c-0.143-0.061-0.271-0.148-0.38-0.259c-0.108-0.111-0.195-0.241-0.255-0.384C226.154,427.3,226.154,426.962,226.28,426.663
	L226.28,426.663z"/>
<path d="M181.918,406.411c0.06-0.142,0.147-0.271,0.256-0.381c0.109-0.108,0.238-0.195,0.38-0.256c0.299-0.126,0.636-0.126,0.935,0
	c0.142,0.063,0.27,0.152,0.379,0.263c0.347,0.345,0.45,0.865,0.26,1.316c-0.124,0.289-0.354,0.52-0.644,0.643
	c-0.299,0.126-0.636,0.126-0.935,0c-0.142-0.061-0.271-0.148-0.38-0.259c-0.108-0.111-0.195-0.241-0.256-0.384
	c-0.125-0.299-0.125-0.637,0-0.936L181.918,406.411z"/>

<path d="M226.302,406.411c0.121-0.288,0.349-0.517,0.637-0.637c0.299-0.126,0.636-0.126,0.935,0
	c0.143,0.062,0.273,0.147,0.384,0.256c0.11,0.108,0.198,0.238,0.258,0.381c0.126,0.299,0.126,0.637,0,0.936
	c-0.122,0.29-0.353,0.521-0.643,0.643c-0.299,0.126-0.636,0.126-0.935,0c-0.143-0.061-0.272-0.148-0.381-0.259
	c-0.108-0.111-0.194-0.241-0.256-0.384C226.178,407.047,226.178,406.711,226.302,406.411L226.302,406.411z"/>

<path d="M204.149,384.63c0.121-0.287,0.349-0.515,0.636-0.636c0.299-0.125,0.637-0.125,0.937,0c0.143,0.061,0.273,0.147,0.384,0.256
	c0.346,0.345,0.448,0.865,0.258,1.315c-0.122,0.29-0.353,0.521-0.643,0.643c-0.299,0.125-0.637,0.125-0.937,0
	c-0.142-0.061-0.271-0.149-0.38-0.258c-0.108-0.112-0.195-0.242-0.256-0.384C204.023,385.267,204.023,384.929,204.149,384.63
	L204.149,384.63z"/>
<path d="M226.302,384.63c0.121-0.287,0.35-0.516,0.637-0.636c0.299-0.126,0.636-0.126,0.935,0c0.143,0.061,0.273,0.147,0.384,0.256
	c0.346,0.345,0.448,0.865,0.258,1.315c-0.122,0.29-0.353,0.521-0.643,0.643c-0.299,0.125-0.636,0.125-0.935,0
	c-0.143-0.061-0.272-0.148-0.381-0.258c-0.108-0.112-0.194-0.242-0.256-0.384C226.178,385.266,226.178,384.93,226.302,384.63
	L226.302,384.63z"/>
<path d="M248.616,426.663c0.121-0.287,0.349-0.515,0.636-0.636c0.299-0.126,0.637-0.126,0.937,0
	c0.143,0.061,0.272,0.147,0.384,0.256c0.11,0.108,0.198,0.237,0.259,0.38c0.125,0.299,0.125,0.637,0,0.937
	c-0.122,0.289-0.353,0.521-0.643,0.643c-0.3,0.125-0.637,0.125-0.937,0c-0.142-0.062-0.271-0.149-0.38-0.259
	c-0.108-0.111-0.195-0.241-0.256-0.384C248.491,427.3,248.491,426.962,248.616,426.663L248.616,426.663z"/>
<path d="M270.849,426.663c0.121-0.287,0.349-0.515,0.636-0.636c0.299-0.126,0.636-0.126,0.935,0
	c0.143,0.061,0.273,0.147,0.384,0.256c0.11,0.108,0.199,0.237,0.26,0.38c0.124,0.3,0.124,0.636,0,0.937
	c-0.062,0.143-0.149,0.273-0.26,0.384s-0.241,0.197-0.384,0.259c-0.45,0.191-0.971,0.089-1.315-0.259
	c-0.108-0.111-0.195-0.241-0.255-0.384C270.723,427.3,270.723,426.962,270.849,426.663z"/>

<path d="M248.64,406.411c0.06-0.142,0.146-0.271,0.255-0.381c0.11-0.108,0.239-0.195,0.38-0.256c0.299-0.126,0.636-0.126,0.935,0
	c0.143,0.061,0.273,0.147,0.384,0.256c0.347,0.345,0.45,0.865,0.26,1.316c-0.123,0.289-0.354,0.52-0.644,0.643
	c-0.299,0.126-0.636,0.126-0.935,0c-0.143-0.061-0.271-0.148-0.38-0.259c-0.108-0.111-0.195-0.241-0.255-0.384
	C248.514,407.048,248.514,406.71,248.64,406.411L248.64,406.411z"/>
<path d="M270.871,406.411c0.12-0.287,0.348-0.516,0.635-0.637c0.3-0.126,0.637-0.126,0.937,0c0.143,0.062,0.273,0.147,0.384,0.256
	c0.11,0.108,0.198,0.238,0.258,0.381c0.126,0.299,0.126,0.637,0,0.936c-0.122,0.29-0.353,0.521-0.643,0.643
	c-0.299,0.125-0.637,0.125-0.937,0c-0.142-0.062-0.271-0.148-0.38-0.259c-0.108-0.111-0.194-0.241-0.255-0.384
	C270.745,407.048,270.745,406.71,270.871,406.411z"/>
<path d="M293.023,406.411c0.12-0.288,0.349-0.517,0.637-0.637c0.299-0.126,0.636-0.126,0.935,0c0.143,0.062,0.273,0.147,0.384,0.256
	c0.11,0.108,0.198,0.238,0.258,0.381c0.126,0.299,0.126,0.637,0,0.936c-0.122,0.29-0.353,0.521-0.643,0.643
	c-0.299,0.126-0.636,0.126-0.935,0c-0.143-0.061-0.272-0.148-0.381-0.259c-0.108-0.111-0.194-0.241-0.255-0.384
	C292.897,407.048,292.897,406.71,293.023,406.411L293.023,406.411z"/>

<path d="M335.702,362.838c0.121-0.287,0.35-0.515,0.636-0.636c0.3-0.126,0.637-0.126,0.937,0c0.143,0.061,0.272,0.147,0.385,0.255
	c0.109,0.109,0.197,0.238,0.258,0.38c0.126,0.299,0.126,0.636,0,0.935c-0.122,0.29-0.353,0.521-0.643,0.644
	c-0.45,0.193-0.973,0.09-1.316-0.26c-0.108-0.111-0.194-0.241-0.256-0.384C335.576,363.474,335.576,363.137,335.702,362.838z"/>
<path d="M357.935,362.838c0.259-0.608,0.962-0.893,1.571-0.636c0.143,0.061,0.272,0.147,0.384,0.255
	c0.346,0.345,0.448,0.865,0.259,1.315c-0.061,0.144-0.148,0.274-0.259,0.384c-0.11,0.111-0.24,0.199-0.384,0.26
	c-0.3,0.126-0.637,0.126-0.936,0c-0.143-0.06-0.272-0.148-0.38-0.26c-0.109-0.11-0.196-0.241-0.256-0.384
	C357.809,363.474,357.809,363.137,357.935,362.838L357.935,362.838z"/>
<path d="M380.088,362.838c0.06-0.142,0.146-0.271,0.256-0.38c0.108-0.109,0.237-0.196,0.38-0.255c0.299-0.126,0.636-0.126,0.935,0
	c0.144,0.06,0.273,0.147,0.385,0.255c0.346,0.345,0.448,0.865,0.258,1.315c-0.122,0.29-0.353,0.521-0.643,0.644
	c-0.45,0.193-0.972,0.09-1.314-0.26c-0.109-0.11-0.195-0.241-0.256-0.384C379.962,363.474,379.962,363.137,380.088,362.838z"/>

<path d="M335.753,406.411c0.061-0.142,0.146-0.271,0.256-0.381c0.109-0.108,0.238-0.195,0.38-0.256c0.3-0.126,0.637-0.126,0.937,0
	c0.143,0.062,0.271,0.147,0.383,0.256c0.347,0.345,0.45,0.865,0.26,1.316c-0.062,0.144-0.149,0.273-0.26,0.384
	c-0.11,0.109-0.24,0.197-0.383,0.259c-0.3,0.125-0.637,0.125-0.937,0c-0.143-0.061-0.271-0.148-0.38-0.259
	c-0.108-0.111-0.195-0.241-0.256-0.384C335.627,407.048,335.627,406.71,335.753,406.411z"/>
<path d="M357.985,406.411c0.06-0.143,0.146-0.271,0.256-0.381s0.238-0.195,0.38-0.256c0.299-0.126,0.636-0.126,0.935,0
	c0.145,0.062,0.275,0.151,0.388,0.263c0.109,0.108,0.197,0.238,0.258,0.381c0.126,0.299,0.126,0.637,0,0.936
	c-0.122,0.29-0.353,0.521-0.643,0.643c-0.449,0.191-0.971,0.089-1.314-0.259c-0.109-0.11-0.196-0.241-0.256-0.384
	c-0.126-0.299-0.126-0.637,0-0.936L357.985,406.411z"/>
<path d="M380.139,406.411c0.06-0.143,0.146-0.271,0.255-0.381s0.238-0.195,0.381-0.256c0.299-0.126,0.636-0.126,0.935,0
	c0.142,0.063,0.271,0.152,0.38,0.263c0.347,0.345,0.448,0.865,0.259,1.316c-0.122,0.29-0.353,0.521-0.643,0.643
	c-0.45,0.191-0.972,0.089-1.315-0.259c-0.108-0.11-0.195-0.241-0.256-0.384c-0.125-0.299-0.125-0.637,0-0.936L380.139,406.411z"/>

<path d="M424.489,362.849c0.121-0.287,0.349-0.515,0.636-0.636c0.299-0.125,0.636-0.125,0.935,0
	c0.144,0.061,0.273,0.147,0.385,0.256c0.347,0.344,0.45,0.865,0.26,1.315c-0.061,0.144-0.149,0.274-0.26,0.384
	c-0.11,0.11-0.241,0.198-0.385,0.26c-0.299,0.125-0.636,0.125-0.935,0c-0.143-0.061-0.271-0.149-0.38-0.26
	c-0.108-0.111-0.195-0.241-0.256-0.384C424.363,363.485,424.363,363.148,424.489,362.849L424.489,362.849z"/>

<path d="M446.643,362.849c0.12-0.287,0.349-0.515,0.636-0.636c0.299-0.125,0.637-0.125,0.937,0c0.142,0.061,0.271,0.147,0.382,0.256
	c0.348,0.344,0.45,0.865,0.26,1.315c-0.061,0.144-0.148,0.274-0.26,0.384c-0.109,0.11-0.239,0.198-0.382,0.26
	c-0.3,0.125-0.638,0.125-0.937,0c-0.143-0.061-0.271-0.149-0.381-0.26c-0.108-0.111-0.195-0.241-0.255-0.384
	C446.517,363.485,446.517,363.148,446.643,362.849L446.643,362.849z"/>
<path d="M468.979,362.838c0.061-0.142,0.147-0.271,0.257-0.38c0.109-0.109,0.238-0.196,0.38-0.255c0.299-0.126,0.637-0.126,0.936,0
	c0.143,0.061,0.272,0.147,0.384,0.255c0.11,0.109,0.198,0.238,0.259,0.38c0.125,0.299,0.125,0.636,0,0.935
	c-0.123,0.29-0.354,0.521-0.643,0.644c-0.299,0.126-0.637,0.126-0.936,0c-0.143-0.06-0.271-0.148-0.38-0.26
	c-0.109-0.11-0.196-0.241-0.257-0.384C468.854,363.474,468.854,363.138,468.979,362.838z"/>
<path d="M491.211,362.838c0.12-0.287,0.349-0.515,0.636-0.636c0.299-0.126,0.636-0.126,0.935,0c0.144,0.06,0.273,0.147,0.385,0.255
	c0.347,0.344,0.449,0.865,0.259,1.315c-0.123,0.29-0.354,0.52-0.644,0.644c-0.45,0.193-0.972,0.09-1.315-0.26
	c-0.108-0.11-0.195-0.241-0.255-0.384C491.085,363.474,491.085,363.137,491.211,362.838L491.211,362.838z"/>

<path d="M535.479,362.838c0.121-0.287,0.349-0.515,0.636-0.636c0.3-0.126,0.637-0.126,0.937,0c0.143,0.061,0.272,0.147,0.383,0.255
	c0.347,0.344,0.45,0.865,0.26,1.315c-0.124,0.289-0.354,0.519-0.643,0.644c-0.45,0.193-0.973,0.09-1.316-0.26
	c-0.108-0.11-0.195-0.241-0.256-0.384C535.354,363.474,535.354,363.137,535.479,362.838z"/>
<path d="M424.517,426.663c0.121-0.287,0.349-0.515,0.636-0.636c0.3-0.126,0.637-0.126,0.937,0c0.143,0.061,0.272,0.147,0.384,0.256
	c0.11,0.108,0.197,0.237,0.259,0.38c0.126,0.299,0.126,0.637,0,0.937c-0.122,0.289-0.353,0.521-0.643,0.643
	c-0.3,0.125-0.637,0.125-0.937,0c-0.143-0.062-0.271-0.149-0.38-0.259c-0.108-0.111-0.194-0.241-0.256-0.384
	C424.391,427.3,424.391,426.962,424.517,426.663L424.517,426.663z"/>


<path d="M446.692,384.63c0.061-0.142,0.147-0.271,0.256-0.38c0.109-0.109,0.238-0.196,0.38-0.256c0.3-0.125,0.638-0.125,0.937,0
	c0.143,0.061,0.272,0.147,0.383,0.256c0.111,0.108,0.2,0.237,0.26,0.38c0.126,0.299,0.126,0.636,0,0.935
	c-0.061,0.144-0.149,0.274-0.26,0.384c-0.109,0.109-0.239,0.197-0.383,0.258c-0.299,0.125-0.637,0.125-0.937,0
	c-0.142-0.061-0.271-0.148-0.38-0.258c-0.108-0.111-0.194-0.242-0.256-0.384C446.567,385.267,446.567,384.929,446.692,384.63z"/>
<path d="M469.007,426.663c0.121-0.287,0.35-0.515,0.636-0.636c0.299-0.126,0.637-0.126,0.936,0c0.143,0.061,0.272,0.147,0.384,0.256
	c0.347,0.345,0.45,0.865,0.26,1.316c-0.123,0.289-0.354,0.52-0.644,0.643c-0.299,0.125-0.637,0.125-0.936,0
	c-0.143-0.061-0.271-0.148-0.38-0.259c-0.108-0.111-0.195-0.241-0.256-0.384C468.882,427.3,468.882,426.962,469.007,426.663
	L469.007,426.663z"/>
<path d="M491.238,426.663c0.12-0.287,0.349-0.515,0.636-0.636c0.299-0.126,0.637-0.126,0.937,0c0.142,0.061,0.272,0.147,0.384,0.256
	c0.109,0.108,0.197,0.237,0.258,0.38c0.126,0.299,0.126,0.637,0,0.937c-0.122,0.289-0.353,0.521-0.642,0.643
	c-0.3,0.125-0.638,0.125-0.937,0c-0.143-0.062-0.271-0.149-0.381-0.259c-0.107-0.111-0.194-0.241-0.255-0.384
	C491.112,427.3,491.112,426.962,491.238,426.663L491.238,426.663z"/>
<path d="M513.391,426.663c0.121-0.287,0.35-0.516,0.638-0.636c0.299-0.126,0.636-0.126,0.935,0c0.143,0.061,0.272,0.147,0.385,0.256
	c0.109,0.108,0.197,0.237,0.258,0.38c0.126,0.299,0.126,0.637,0,0.937c-0.122,0.289-0.353,0.521-0.643,0.643
	c-0.299,0.125-0.636,0.125-0.935,0c-0.144-0.061-0.272-0.148-0.382-0.259c-0.107-0.111-0.194-0.241-0.256-0.384
	C513.266,427.3,513.266,426.962,513.391,426.663L513.391,426.663z"/>
<path d="M469.033,384.63c0.121-0.287,0.35-0.516,0.637-0.636c0.299-0.126,0.637-0.126,0.936,0c0.143,0.061,0.272,0.147,0.384,0.256
	c0.346,0.345,0.448,0.865,0.259,1.315c-0.122,0.29-0.354,0.521-0.643,0.643c-0.299,0.125-0.637,0.125-0.936,0
	c-0.143-0.061-0.272-0.148-0.381-0.258c-0.108-0.112-0.195-0.242-0.256-0.384C468.909,385.266,468.909,384.93,469.033,384.63
	L469.033,384.63z"/>
<path d="M491.262,384.63c0.06-0.142,0.146-0.271,0.255-0.38c0.109-0.109,0.238-0.196,0.38-0.256c0.3-0.126,0.637-0.126,0.936,0
	c0.143,0.06,0.273,0.147,0.384,0.256c0.111,0.108,0.2,0.237,0.26,0.38c0.126,0.299,0.126,0.636,0,0.935
	c-0.123,0.29-0.354,0.52-0.644,0.643c-0.299,0.125-0.636,0.125-0.936,0c-0.142-0.061-0.271-0.148-0.38-0.258
	c-0.108-0.111-0.194-0.242-0.255-0.384C491.136,385.267,491.136,384.929,491.262,384.63z"/>

<path d="M535.567,426.663c0.12-0.287,0.349-0.515,0.636-0.636c0.299-0.126,0.637-0.126,0.937,0c0.142,0.061,0.271,0.147,0.382,0.256
	c0.348,0.345,0.45,0.865,0.26,1.316c-0.061,0.144-0.148,0.273-0.26,0.384c-0.109,0.109-0.239,0.197-0.382,0.259
	c-0.3,0.125-0.638,0.125-0.937,0c-0.143-0.061-0.271-0.148-0.381-0.259c-0.107-0.111-0.194-0.241-0.255-0.384
	C535.441,427.3,535.441,426.962,535.567,426.663z"/>
<path d="M535.591,384.63c0.059-0.143,0.146-0.271,0.255-0.38c0.109-0.109,0.238-0.196,0.381-0.256c0.299-0.126,0.636-0.126,0.935,0
	c0.144,0.06,0.273,0.147,0.384,0.256c0.111,0.108,0.199,0.237,0.259,0.38c0.126,0.299,0.126,0.636,0,0.935
	c-0.122,0.29-0.353,0.521-0.643,0.643c-0.45,0.191-0.972,0.089-1.315-0.258c-0.108-0.111-0.195-0.241-0.255-0.384
	C535.465,385.267,535.465,384.929,535.591,384.63z"/>
<path d="M556.094,362.838c0.06-0.142,0.146-0.271,0.255-0.38c0.109-0.109,0.238-0.196,0.38-0.255c0.3-0.126,0.637-0.126,0.936,0
	c0.143,0.06,0.273,0.147,0.384,0.255c0.347,0.345,0.448,0.865,0.259,1.315c-0.123,0.29-0.354,0.521-0.643,0.644
	c-0.45,0.193-0.972,0.09-1.315-0.26c-0.108-0.11-0.195-0.241-0.255-0.384C555.968,363.474,555.968,363.137,556.094,362.838z"/>


<path d="M556.121,426.663c0.12-0.287,0.349-0.515,0.635-0.636c0.3-0.126,0.638-0.126,0.937,0c0.143,0.061,0.272,0.147,0.383,0.256
	c0.348,0.345,0.45,0.865,0.26,1.316c-0.061,0.144-0.149,0.273-0.26,0.384c-0.109,0.109-0.239,0.197-0.383,0.259
	c-0.299,0.125-0.637,0.125-0.937,0c-0.142-0.061-0.271-0.148-0.38-0.259c-0.108-0.111-0.194-0.241-0.255-0.384
	C555.995,427.3,555.995,426.962,556.121,426.663L556.121,426.663z"/>


</g>	


<g id="Project_Soul" class="yellow fade-in one">
	<path d="M28.031,382.516c0.288-0.008,0.575,0.041,0.845,0.144c0.214,0.085,0.407,0.215,0.566,0.381
		c0.145,0.157,0.253,0.343,0.319,0.547c0.067,0.203,0.101,0.415,0.1,0.629c0,0.212-0.034,0.424-0.1,0.626
		c-0.065,0.203-0.174,0.39-0.319,0.547c-0.159,0.166-0.352,0.296-0.566,0.381c-0.27,0.102-0.557,0.151-0.845,0.144h-1.221v1.896
		h-1.164v-5.294H28.031z M27.713,385.003c0.129,0,0.258-0.01,0.385-0.03c0.115-0.017,0.226-0.056,0.326-0.115
		c0.096-0.059,0.174-0.142,0.227-0.24c0.115-0.262,0.115-0.559,0-0.82c-0.053-0.099-0.131-0.182-0.227-0.241
		c-0.101-0.059-0.211-0.097-0.326-0.115c-0.127-0.02-0.256-0.03-0.385-0.03h-0.902v1.586L27.713,385.003z"/>
	<path d="M50.674,382.387c0.218-0.003,0.436,0.036,0.64,0.115c0.182,0.071,0.349,0.178,0.489,0.314
		c0.134,0.131,0.24,0.289,0.311,0.463c0.073,0.18,0.11,0.372,0.108,0.566c0.007,0.282-0.061,0.561-0.197,0.808
		c-0.147,0.241-0.374,0.424-0.64,0.519v0.015c0.131,0.033,0.252,0.094,0.355,0.181c0.094,0.082,0.171,0.18,0.23,0.29
		c0.061,0.115,0.104,0.239,0.13,0.367c0.026,0.132,0.044,0.265,0.055,0.399c0,0.083,0.009,0.183,0.015,0.297
		c0.006,0.113,0.014,0.229,0.026,0.347c0.011,0.114,0.031,0.227,0.059,0.338c0.023,0.098,0.064,0.191,0.123,0.273h-1.164
		c-0.068-0.192-0.108-0.394-0.117-0.599c-0.015-0.232-0.037-0.455-0.067-0.667c-0.017-0.224-0.105-0.437-0.252-0.607
		c-0.128-0.128-0.338-0.193-0.63-0.193h-1.162v2.065h-1.162v-5.29H50.674z M50.264,384.779c0.214,0.016,0.427-0.047,0.599-0.178
		c0.145-0.154,0.217-0.363,0.197-0.574c0.019-0.207-0.055-0.412-0.201-0.559c-0.172-0.128-0.385-0.19-0.599-0.173h-1.274v1.488
		L50.264,384.779z"/>
	<path d="M69.68,384.027c0.111-0.325,0.285-0.625,0.511-0.884c0.227-0.255,0.507-0.458,0.82-0.592c0.701-0.286,1.486-0.286,2.187,0
		c0.313,0.135,0.593,0.337,0.82,0.592c0.226,0.259,0.399,0.559,0.51,0.884c0.12,0.352,0.18,0.722,0.177,1.094
		c0.003,0.367-0.057,0.731-0.177,1.077c-0.111,0.321-0.284,0.617-0.51,0.871c-0.228,0.25-0.508,0.449-0.82,0.581
		c-0.702,0.28-1.485,0.28-2.187,0c-0.312-0.131-0.593-0.33-0.82-0.581c-0.226-0.254-0.4-0.55-0.511-0.871
		c-0.12-0.346-0.181-0.71-0.178-1.077C69.5,384.749,69.56,384.379,69.68,384.027z M70.743,385.774
		c0.048,0.203,0.131,0.395,0.248,0.567c0.113,0.168,0.266,0.307,0.444,0.403c0.421,0.202,0.912,0.202,1.333,0
		c0.178-0.097,0.331-0.235,0.444-0.403c0.116-0.173,0.199-0.365,0.248-0.567c0.052-0.212,0.079-0.43,0.078-0.648
		c0-0.227-0.026-0.452-0.078-0.672c-0.047-0.208-0.131-0.404-0.248-0.583c-0.113-0.17-0.265-0.311-0.444-0.41
		c-0.421-0.201-0.911-0.201-1.333,0c-0.179,0.099-0.332,0.239-0.444,0.41c-0.117,0.178-0.201,0.375-0.248,0.583
		c-0.052,0.22-0.079,0.446-0.078,0.672C70.665,385.345,70.691,385.562,70.743,385.774z"/>
	<path d="M96.138,386.589c-0.035,0.208-0.116,0.407-0.237,0.581c-0.138,0.192-0.321,0.347-0.533,0.452
		c-0.295,0.133-0.617,0.195-0.94,0.181c-0.219,0.003-0.437-0.025-0.648-0.085c-0.203-0.059-0.392-0.157-0.556-0.29
		c-0.167-0.136-0.302-0.308-0.393-0.503c-0.104-0.234-0.155-0.488-0.147-0.744v-0.459h1.051v0.236
		c-0.001,0.119,0.009,0.238,0.03,0.355c0.016,0.097,0.051,0.19,0.103,0.273c0.05,0.078,0.121,0.141,0.204,0.182
		c0.106,0.049,0.222,0.072,0.338,0.067c0.124,0.007,0.247-0.021,0.355-0.082c0.08-0.051,0.144-0.124,0.182-0.211
		c0.038-0.089,0.06-0.185,0.066-0.281c0.008-0.101,0.011-0.198,0.011-0.292v-3.568h1.163v3.62
		C96.185,386.212,96.168,386.402,96.138,386.589z"/>
	<path d="M118.617,382.51v0.978h-2.792v1.133h2.561v0.902h-2.561v1.296h2.85v0.978h-4.014v-5.287H118.617z"/>
	<path d="M139.985,383.925c-0.143-0.227-0.358-0.399-0.611-0.489c-0.132-0.046-0.271-0.07-0.41-0.07
		c-0.231-0.007-0.46,0.045-0.666,0.152c-0.179,0.098-0.332,0.239-0.444,0.41c-0.116,0.177-0.2,0.374-0.247,0.581
		c-0.053,0.221-0.079,0.447-0.078,0.674c0,0.218,0.026,0.435,0.078,0.646c0.048,0.202,0.132,0.395,0.247,0.567
		c0.114,0.168,0.266,0.307,0.444,0.403c0.206,0.106,0.435,0.159,0.666,0.152c0.312,0.018,0.616-0.101,0.834-0.326
		c0.209-0.241,0.337-0.542,0.366-0.86h1.125c-0.024,0.31-0.102,0.614-0.229,0.897c-0.116,0.258-0.282,0.49-0.488,0.684
		c-0.206,0.189-0.447,0.335-0.711,0.429c-0.288,0.102-0.591,0.152-0.896,0.149c-0.375,0.006-0.748-0.066-1.094-0.212
		c-0.312-0.132-0.592-0.33-0.82-0.581c-0.226-0.253-0.399-0.549-0.511-0.869c-0.12-0.347-0.18-0.711-0.178-1.077
		c-0.003-0.375,0.057-0.747,0.178-1.101c0.112-0.325,0.285-0.625,0.511-0.885c0.227-0.254,0.507-0.457,0.82-0.592
		c0.608-0.251,1.285-0.282,1.914-0.089c0.252,0.08,0.488,0.204,0.697,0.366c0.207,0.164,0.379,0.366,0.507,0.596
		c0.138,0.254,0.224,0.533,0.251,0.82h-1.126C140.099,384.169,140.055,384.04,139.985,383.925z"/>
	<path d="M158.773,383.487v-0.978h4.332v0.978h-1.586v4.309h-1.165v-4.309H158.773z"/>
	<path d="M93.377,408.225c0.06,0.119,0.147,0.222,0.255,0.3c0.113,0.08,0.24,0.138,0.375,0.17c0.145,0.037,0.294,0.057,0.444,0.056
		c0.111,0,0.223-0.009,0.333-0.025c0.115-0.017,0.228-0.051,0.333-0.1c0.101-0.048,0.19-0.117,0.26-0.204
		c0.071-0.095,0.107-0.211,0.103-0.329c0.005-0.131-0.044-0.257-0.137-0.349c-0.104-0.097-0.226-0.173-0.359-0.222
		c-0.164-0.065-0.332-0.117-0.503-0.156c-0.187-0.043-0.377-0.093-0.57-0.147c-0.196-0.049-0.389-0.109-0.577-0.182
		c-0.18-0.066-0.351-0.158-0.504-0.273c-0.326-0.246-0.511-0.636-0.496-1.044c-0.006-0.247,0.055-0.491,0.175-0.707
		c0.114-0.197,0.27-0.368,0.456-0.5c0.193-0.136,0.409-0.236,0.637-0.296c0.232-0.063,0.471-0.097,0.711-0.097
		c0.268-0.001,0.535,0.03,0.796,0.093c0.242,0.057,0.472,0.158,0.676,0.3c0.197,0.137,0.358,0.318,0.471,0.53
		c0.123,0.241,0.183,0.51,0.175,0.78h-1.126c-0.004-0.137-0.038-0.271-0.1-0.393c-0.053-0.1-0.13-0.184-0.226-0.244
		c-0.099-0.062-0.208-0.104-0.323-0.126c-0.13-0.025-0.263-0.038-0.395-0.037c-0.095,0-0.189,0.01-0.282,0.03
		c-0.091,0.019-0.178,0.054-0.256,0.104c-0.075,0.048-0.139,0.111-0.188,0.185c-0.052,0.085-0.078,0.183-0.074,0.282
		c-0.004,0.087,0.016,0.175,0.059,0.251c0.06,0.08,0.141,0.142,0.234,0.178c0.155,0.068,0.316,0.123,0.481,0.163
		c0.204,0.055,0.471,0.123,0.802,0.207c0.1,0.02,0.236,0.055,0.41,0.107c0.185,0.056,0.36,0.139,0.521,0.246
		c0.178,0.12,0.331,0.274,0.448,0.455c0.133,0.219,0.199,0.473,0.188,0.729c0.003,0.231-0.043,0.462-0.137,0.674
		c-0.095,0.209-0.239,0.394-0.418,0.537c-0.204,0.16-0.436,0.279-0.684,0.352c-0.311,0.09-0.634,0.132-0.957,0.126
		c-0.286,0-0.571-0.035-0.848-0.106c-0.261-0.066-0.507-0.181-0.726-0.338c-0.209-0.153-0.381-0.354-0.5-0.585
		c-0.128-0.263-0.189-0.552-0.178-0.844h1.126C93.278,407.93,93.31,408.084,93.377,408.225z"/>
	<path d="M114.19,405.809c0.112-0.325,0.286-0.625,0.512-0.885c0.226-0.256,0.506-0.458,0.82-0.593c0.701-0.286,1.486-0.286,2.188,0
		c0.313,0.136,0.593,0.338,0.82,0.593c0.226,0.259,0.399,0.56,0.51,0.885c0.121,0.352,0.181,0.722,0.178,1.094
		c0.003,0.366-0.057,0.73-0.178,1.077c-0.111,0.321-0.284,0.617-0.51,0.871c-0.229,0.25-0.508,0.448-0.82,0.581
		c-0.702,0.28-1.485,0.28-2.188,0c-0.312-0.133-0.592-0.331-0.82-0.581c-0.226-0.255-0.4-0.55-0.512-0.871
		c-0.12-0.347-0.18-0.711-0.178-1.077C114.011,406.53,114.071,406.16,114.19,405.809z M115.253,407.556
		c0.049,0.202,0.133,0.395,0.249,0.567c0.114,0.168,0.267,0.306,0.444,0.403c0.421,0.202,0.912,0.202,1.333,0
		c0.178-0.098,0.33-0.236,0.444-0.403c0.115-0.173,0.199-0.365,0.248-0.567c0.052-0.212,0.078-0.43,0.078-0.648
		c0-0.227-0.025-0.453-0.078-0.674c-0.048-0.206-0.132-0.403-0.248-0.581c-0.113-0.17-0.266-0.311-0.444-0.41
		c-0.421-0.202-0.912-0.202-1.333,0c-0.179,0.099-0.332,0.24-0.444,0.41c-0.116,0.178-0.201,0.375-0.249,0.581
		c-0.052,0.222-0.078,0.447-0.077,0.674C115.175,407.126,115.201,407.344,115.253,407.556z"/>
	<path d="M140.42,409.051c-0.401,0.349-0.954,0.522-1.658,0.522c-0.704,0-1.258-0.173-1.662-0.518
		c-0.393-0.347-0.589-0.878-0.589-1.6v-3.281h1.164v3.281c0,0.142,0.012,0.283,0.037,0.422c0.023,0.133,0.076,0.258,0.155,0.366
		c0.086,0.113,0.2,0.202,0.33,0.26c0.18,0.074,0.373,0.108,0.567,0.101c0.415,0,0.701-0.092,0.859-0.273
		c0.158-0.187,0.236-0.476,0.236-0.871v-3.281h1.164v3.281C141.021,408.174,140.82,408.704,140.42,409.051z"/>
	<path d="M160.174,404.229v4.309h2.577v0.978h-3.739v-5.286H160.174z"/>
</g>
<g id="About" class="yellow fade-in one">
	<path d="M316.89,424.499l1.971,5.271h-1.203l-0.399-1.175h-1.971l-0.41,1.175h-1.166l1.993-5.271H316.89z M316.956,427.733
		l-0.664-1.935h-0.016l-0.684,1.935H316.956z"/>
	<path d="M337.113,424.499c0.229-0.002,0.459,0.021,0.684,0.066c0.189,0.037,0.37,0.111,0.531,0.218
		c0.149,0.104,0.269,0.245,0.344,0.41c0.087,0.194,0.129,0.406,0.121,0.619c0.01,0.234-0.054,0.467-0.18,0.664
		c-0.137,0.19-0.321,0.341-0.535,0.437c0.293,0.072,0.551,0.246,0.728,0.49c0.286,0.465,0.317,1.042,0.085,1.536
		c-0.1,0.189-0.243,0.352-0.419,0.476c-0.181,0.126-0.383,0.219-0.597,0.273c-0.226,0.059-0.458,0.089-0.69,0.089h-2.554v-5.278
		H337.113z M336.966,426.633c0.182,0.008,0.36-0.044,0.51-0.147c0.142-0.118,0.216-0.297,0.199-0.48
		c0.004-0.104-0.019-0.208-0.066-0.302c-0.042-0.076-0.104-0.141-0.178-0.185c-0.079-0.046-0.165-0.078-0.255-0.093
		c-0.099-0.018-0.198-0.026-0.299-0.026h-1.084v1.23L336.966,426.633z M337.032,428.869c0.109,0.001,0.218-0.011,0.324-0.033
		c0.098-0.019,0.19-0.057,0.273-0.11c0.08-0.053,0.146-0.125,0.188-0.21c0.051-0.106,0.074-0.223,0.07-0.34
		c0-0.273-0.077-0.465-0.229-0.579c-0.177-0.124-0.391-0.185-0.605-0.174h-1.262v1.443L337.032,428.869z"/>
	<path d="M356.662,426.064c0.11-0.325,0.284-0.624,0.51-0.882c0.227-0.255,0.507-0.456,0.82-0.591c0.701-0.288,1.486-0.288,2.188,0
		c0.311,0.136,0.587,0.337,0.812,0.591c0.226,0.258,0.398,0.558,0.51,0.882c0.12,0.352,0.18,0.722,0.177,1.094
		c0.003,0.365-0.057,0.729-0.177,1.074c-0.111,0.319-0.284,0.614-0.51,0.866c-0.226,0.25-0.503,0.447-0.812,0.58
		c-0.702,0.282-1.485,0.282-2.188,0c-0.312-0.131-0.593-0.329-0.82-0.58c-0.226-0.252-0.399-0.547-0.51-0.866
		c-0.12-0.346-0.181-0.709-0.178-1.074C356.481,426.786,356.542,426.416,356.662,426.064z M357.722,427.807
		c0.048,0.202,0.132,0.393,0.247,0.565c0.114,0.167,0.266,0.305,0.443,0.401c0.42,0.202,0.908,0.202,1.328,0
		c0.178-0.097,0.329-0.234,0.443-0.401c0.115-0.173,0.199-0.363,0.247-0.565c0.052-0.211,0.078-0.429,0.077-0.646
		c0.001-0.226-0.025-0.451-0.077-0.671c-0.047-0.206-0.131-0.402-0.247-0.58c-0.112-0.17-0.265-0.311-0.443-0.41
		c-0.42-0.202-0.908-0.202-1.328,0c-0.179,0.1-0.331,0.24-0.443,0.41c-0.116,0.178-0.2,0.374-0.247,0.58
		c-0.053,0.22-0.079,0.445-0.078,0.671c-0.003,0.218,0.021,0.436,0.071,0.646H357.722z"/>
	<path d="M382.872,429.31c-0.399,0.346-0.95,0.519-1.654,0.52c-0.703,0.001-1.256-0.172-1.656-0.517
		c-0.392-0.345-0.587-0.876-0.587-1.595v-3.28h1.158v3.28c0,0.142,0.012,0.282,0.037,0.422c0.022,0.132,0.075,0.257,0.155,0.364
		c0.087,0.112,0.199,0.201,0.328,0.259c0.179,0.073,0.372,0.107,0.564,0.1c0.41,0,0.699-0.093,0.857-0.273s0.235-0.473,0.235-0.866
		v-3.281h1.159v3.281C383.47,428.434,383.271,428.962,382.872,429.31z"/>
	<path d="M401.265,425.35v-0.976h4.318v0.976h-1.579v4.296h-1.159v-4.296H401.265z"/>
</g>
<g id="Services" class="yellow fade-in one">
	<path d="M248.746,386.441c0.06,0.119,0.147,0.221,0.256,0.298c0.112,0.079,0.238,0.137,0.372,0.169
		c0.145,0.037,0.293,0.056,0.443,0.056c0.111,0,0.222-0.009,0.333-0.026c0.115-0.016,0.227-0.05,0.332-0.1
		c0.101-0.046,0.189-0.116,0.258-0.202c0.072-0.094,0.109-0.211,0.104-0.33c0.005-0.129-0.044-0.255-0.137-0.346
		c-0.104-0.097-0.226-0.172-0.358-0.222c-0.163-0.064-0.331-0.116-0.501-0.156c-0.188-0.043-0.377-0.093-0.569-0.147
		c-0.195-0.049-0.387-0.109-0.576-0.181c-0.18-0.066-0.349-0.158-0.501-0.273c-0.326-0.244-0.511-0.633-0.495-1.04
		c-0.006-0.247,0.054-0.49,0.174-0.706c0.113-0.197,0.268-0.367,0.454-0.498c0.192-0.135,0.407-0.235,0.634-0.295
		c0.231-0.063,0.47-0.095,0.709-0.096c0.267-0.001,0.533,0.03,0.792,0.092c0.242,0.056,0.471,0.158,0.676,0.299
		c0.195,0.136,0.356,0.317,0.469,0.528c0.122,0.241,0.182,0.509,0.173,0.779h-1.122c-0.004-0.136-0.038-0.271-0.1-0.392
		c-0.052-0.099-0.129-0.183-0.224-0.243c-0.099-0.061-0.208-0.104-0.321-0.126c-0.13-0.025-0.262-0.038-0.395-0.037
		c-0.092,0.001-0.184,0.011-0.273,0.03c-0.091,0.019-0.178,0.054-0.255,0.104c-0.075,0.048-0.139,0.11-0.188,0.185
		c-0.052,0.084-0.078,0.181-0.074,0.28c-0.004,0.087,0.016,0.174,0.059,0.25c0.06,0.08,0.14,0.142,0.232,0.178
		c0.155,0.068,0.316,0.122,0.48,0.163c0.204,0.053,0.472,0.123,0.801,0.207c0.098,0.019,0.235,0.056,0.41,0.106
		c0.185,0.057,0.36,0.14,0.521,0.248c0.178,0.12,0.33,0.274,0.447,0.454c0.133,0.218,0.199,0.471,0.188,0.727
		c0.003,0.231-0.043,0.46-0.137,0.672c-0.093,0.208-0.233,0.391-0.41,0.535c-0.203,0.16-0.435,0.279-0.684,0.352
		c-0.308,0.088-0.628,0.13-0.949,0.124c-0.285,0.001-0.569-0.035-0.845-0.106c-0.261-0.065-0.506-0.179-0.725-0.336
		c-0.209-0.152-0.38-0.352-0.498-0.582c-0.128-0.262-0.189-0.551-0.178-0.842h1.123
		C248.661,386.147,248.687,386.301,248.746,386.441z"/>
	<path d="M273.868,382.461v0.975h-2.783v1.129h2.554v0.901h-2.554v1.296h2.842v0.973h-4.001v-5.274H273.868z"/>
	<path d="M294.442,382.461c0.218-0.003,0.435,0.035,0.638,0.113c0.182,0.072,0.347,0.179,0.487,0.314
		c0.134,0.131,0.24,0.288,0.311,0.461c0.072,0.18,0.108,0.372,0.106,0.566c0.008,0.28-0.06,0.558-0.195,0.804
		c-0.147,0.241-0.373,0.423-0.639,0.517v0.022c0.13,0.033,0.251,0.094,0.354,0.181c0.094,0.081,0.172,0.179,0.23,0.288
		c0.06,0.115,0.103,0.238,0.128,0.365c0.027,0.131,0.046,0.265,0.056,0.399c0,0.083,0.009,0.182,0.014,0.295
		c0.004,0.113,0.014,0.229,0.026,0.347c0.012,0.113,0.032,0.225,0.06,0.335c0.021,0.099,0.063,0.191,0.122,0.273h-1.159
		c-0.069-0.192-0.109-0.394-0.118-0.597c-0.015-0.231-0.037-0.453-0.067-0.665c-0.017-0.224-0.105-0.436-0.251-0.605
		c-0.127-0.127-0.336-0.191-0.627-0.191h-1.159v2.059H291.6v-5.281H294.442z M294.032,384.845c0.215,0.017,0.428-0.046,0.599-0.178
		c0.147-0.154,0.22-0.364,0.2-0.575c0.019-0.206-0.054-0.41-0.2-0.558c-0.172-0.127-0.385-0.188-0.599-0.172h-1.27v1.486
		L294.032,384.845z"/>
	<path d="M315.521,387.731l-1.704-5.27h1.188l1.175,3.706h0.015l1.188-3.706h1.196l-1.749,5.27H315.521z"/>
	<path d="M337.387,382.461v5.27h-1.159v-5.27H337.387z"/>
	<path d="M360.197,383.87c-0.069-0.11-0.157-0.209-0.259-0.291c-0.216-0.172-0.484-0.267-0.761-0.267
		c-0.231-0.007-0.46,0.045-0.665,0.152c-0.179,0.099-0.33,0.24-0.442,0.41c-0.116,0.177-0.199,0.373-0.248,0.58
		c-0.051,0.22-0.076,0.445-0.076,0.671c0,0.218,0.025,0.435,0.076,0.647c0.049,0.201,0.133,0.392,0.248,0.564
		c0.113,0.167,0.265,0.305,0.442,0.402c0.205,0.106,0.434,0.159,0.665,0.152c0.311,0.018,0.614-0.101,0.831-0.326
		c0.209-0.239,0.337-0.539,0.365-0.855h1.122c-0.024,0.309-0.102,0.61-0.229,0.893c-0.115,0.258-0.281,0.49-0.488,0.684
		c-0.204,0.189-0.445,0.335-0.708,0.428c-0.287,0.102-0.59,0.151-0.894,0.148c-0.375,0.006-0.748-0.065-1.094-0.209
		c-0.312-0.131-0.592-0.329-0.82-0.58c-0.226-0.253-0.398-0.548-0.509-0.868c-0.121-0.345-0.181-0.708-0.178-1.074
		c-0.004-0.372,0.057-0.742,0.178-1.094c0.11-0.325,0.283-0.625,0.509-0.883c0.228-0.254,0.507-0.456,0.82-0.59
		c0.608-0.25,1.284-0.282,1.914-0.089c0.251,0.081,0.485,0.205,0.694,0.366c0.206,0.163,0.378,0.364,0.506,0.593
		c0.137,0.251,0.223,0.527,0.251,0.812h-1.122C360.311,384.112,360.266,383.985,360.197,383.87z"/>
	<path d="M383.136,382.461v0.975h-2.783v1.129h2.557v0.901h-2.557v1.296h2.843v0.973h-4.002v-5.274H383.136z"/>
	<path d="M402.311,386.436c0.06,0.118,0.146,0.22,0.254,0.298c0.112,0.08,0.239,0.138,0.373,0.171
		c0.146,0.037,0.294,0.055,0.443,0.055c0.111,0,0.222-0.009,0.332-0.026c0.115-0.016,0.228-0.05,0.332-0.1
		c0.101-0.047,0.189-0.116,0.259-0.202c0.071-0.095,0.108-0.211,0.104-0.33c0.005-0.129-0.045-0.255-0.137-0.346
		c-0.104-0.097-0.226-0.172-0.358-0.222c-0.163-0.064-0.33-0.116-0.501-0.156c-0.188-0.044-0.378-0.093-0.569-0.147
		c-0.195-0.049-0.387-0.109-0.575-0.181c-0.18-0.066-0.35-0.158-0.503-0.273c-0.327-0.244-0.512-0.633-0.494-1.041
		c-0.006-0.246,0.054-0.49,0.174-0.705c0.113-0.197,0.269-0.367,0.454-0.498c0.192-0.136,0.407-0.235,0.635-0.295
		c0.23-0.063,0.469-0.095,0.708-0.096c0.268-0.001,0.534,0.03,0.794,0.091c0.242,0.057,0.471,0.158,0.676,0.3
		c0.195,0.136,0.355,0.317,0.469,0.527c0.121,0.242,0.181,0.509,0.173,0.779h-1.116c-0.005-0.136-0.039-0.27-0.1-0.392
		c-0.053-0.1-0.131-0.184-0.226-0.244c-0.099-0.061-0.207-0.103-0.32-0.125c-0.13-0.025-0.263-0.038-0.395-0.037
		c-0.095,0-0.189,0.011-0.282,0.03c-0.091,0.019-0.177,0.054-0.254,0.104c-0.075,0.047-0.14,0.11-0.188,0.185
		c-0.053,0.083-0.078,0.181-0.074,0.28c-0.004,0.087,0.018,0.174,0.061,0.25c0.059,0.08,0.139,0.142,0.232,0.178
		c0.154,0.068,0.315,0.123,0.479,0.163c0.204,0.055,0.471,0.124,0.801,0.207c0.099,0.019,0.234,0.056,0.41,0.106
		c0.185,0.057,0.36,0.14,0.521,0.248c0.178,0.12,0.33,0.274,0.446,0.454c0.133,0.219,0.198,0.472,0.188,0.728
		c0.003,0.231-0.044,0.46-0.137,0.672c-0.096,0.208-0.238,0.391-0.417,0.535c-0.203,0.16-0.435,0.279-0.684,0.351
		c-0.309,0.088-0.628,0.13-0.948,0.125c-0.286,0.001-0.57-0.035-0.847-0.106c-0.26-0.065-0.506-0.179-0.723-0.336
		c-0.21-0.152-0.381-0.352-0.498-0.583c-0.129-0.261-0.19-0.551-0.178-0.842h1.122C402.219,386.143,402.247,386.296,402.311,386.436
		z"/>
</g>
<g id="Calendar" class="yellow fade-in one">
	<path d="M448.955,405.657c-0.068-0.111-0.156-0.21-0.258-0.292c-0.104-0.084-0.224-0.15-0.351-0.195
		c-0.131-0.048-0.271-0.071-0.41-0.071c-0.23-0.007-0.459,0.046-0.664,0.152c-0.179,0.099-0.331,0.239-0.443,0.41
		c-0.116,0.177-0.2,0.373-0.247,0.579c-0.053,0.221-0.078,0.445-0.078,0.672c0,0.218,0.026,0.435,0.078,0.646
		c0.049,0.201,0.133,0.393,0.247,0.564c0.114,0.167,0.266,0.305,0.443,0.401c0.205,0.107,0.434,0.159,0.664,0.152
		c0.312,0.018,0.614-0.102,0.83-0.325c0.21-0.239,0.338-0.539,0.366-0.856h1.121c-0.023,0.309-0.101,0.611-0.229,0.894
		c-0.115,0.257-0.281,0.489-0.486,0.683c-0.205,0.189-0.446,0.335-0.71,0.429c-0.286,0.101-0.588,0.15-0.893,0.147
		c-0.375,0.007-0.747-0.065-1.094-0.211c-0.312-0.13-0.593-0.328-0.819-0.579c-0.227-0.253-0.399-0.547-0.511-0.867
		c-0.12-0.346-0.18-0.709-0.178-1.074c-0.002-0.372,0.058-0.742,0.178-1.094c0.111-0.324,0.284-0.624,0.511-0.882
		c0.227-0.255,0.506-0.456,0.819-0.591c0.608-0.252,1.285-0.283,1.914-0.089c0.251,0.081,0.486,0.205,0.694,0.366
		c0.206,0.163,0.378,0.364,0.505,0.594c0.138,0.251,0.224,0.527,0.251,0.812h-1.122
		C449.069,405.899,449.024,405.771,448.955,405.657z"/>
	<path d="M470.742,404.247l1.971,5.271h-1.203l-0.398-1.173h-1.972l-0.41,1.173h-1.166l1.993-5.271H470.742z M470.809,407.48
		l-0.664-1.935h-0.018l-0.684,1.935H470.809z"/>
	<path d="M491.663,404.247v4.296h2.568v0.975h-3.728v-5.271H491.663z"/>
	<path d="M516.47,404.247v0.97h-2.783v1.131h2.555v0.899h-2.555v1.291h2.842v0.976h-4.001v-5.267H516.47z"/>
	<path d="M535.623,404.247l2.199,3.535h0.016v-3.535h1.086v5.271h-1.16l-2.187-3.528h-0.016v3.528h-1.085v-5.271H535.623z"/>
	<path d="M557.191,404.247c0.323-0.003,0.645,0.052,0.948,0.161c0.286,0.104,0.546,0.271,0.761,0.488
		c0.224,0.231,0.395,0.509,0.503,0.812c0.127,0.367,0.188,0.755,0.18,1.144c0.004,0.36-0.046,0.718-0.147,1.062
		c-0.09,0.309-0.241,0.596-0.447,0.842c-0.203,0.24-0.457,0.431-0.744,0.559c-0.333,0.142-0.691,0.211-1.053,0.202h-2.273v-5.271
		H557.191z M557.11,408.543c0.166,0,0.33-0.027,0.486-0.081c0.16-0.057,0.305-0.15,0.421-0.273c0.133-0.141,0.233-0.308,0.296-0.49
		c0.079-0.238,0.117-0.488,0.11-0.738c0.003-0.243-0.023-0.484-0.078-0.721c-0.044-0.198-0.131-0.385-0.254-0.547
		c-0.123-0.156-0.284-0.277-0.469-0.352c-0.229-0.087-0.474-0.128-0.719-0.121h-0.827v3.321L557.11,408.543z"/>
	<path d="M580.088,404.247l1.971,5.271h-1.201l-0.398-1.173h-1.971l-0.41,1.173h-1.168l1.994-5.271H580.088z M580.153,407.48
		l-0.663-1.935h-0.014l-0.684,1.935H580.153z"/>
	<path d="M602.208,404.247c0.218-0.003,0.435,0.035,0.639,0.114c0.181,0.071,0.347,0.178,0.486,0.314
		c0.134,0.13,0.24,0.287,0.311,0.46c0.071,0.18,0.107,0.371,0.106,0.564c0.007,0.281-0.061,0.56-0.195,0.806
		c-0.147,0.24-0.373,0.423-0.639,0.517v0.015c0.13,0.033,0.251,0.096,0.354,0.181c0.094,0.081,0.172,0.179,0.23,0.289
		c0.06,0.114,0.103,0.237,0.128,0.364c0.027,0.132,0.046,0.266,0.057,0.399c0,0.083,0.009,0.182,0.014,0.295
		c0.004,0.114,0.014,0.229,0.025,0.347c0.012,0.113,0.032,0.226,0.06,0.336c0.022,0.099,0.064,0.191,0.123,0.273h-1.16
		c-0.069-0.192-0.109-0.394-0.118-0.598c-0.014-0.23-0.037-0.452-0.066-0.664c-0.017-0.224-0.104-0.436-0.251-0.605
		c-0.127-0.129-0.336-0.191-0.628-0.191h-1.159v2.059h-1.158v-5.274H602.208z M601.798,406.632c0.215,0.017,0.428-0.047,0.599-0.178
		c0.146-0.154,0.219-0.364,0.198-0.576c0.019-0.206-0.054-0.409-0.198-0.558c-0.172-0.127-0.385-0.189-0.599-0.174h-1.271v1.485
		H601.798z"/>
</g>
<a href="http://localhost:8888/projectsoul/services/" target="_parent"><rect id="services-link"  x="242" y="376" fill="transparent" width="168.5" height="16.5"/></a>
<a href="http://google.ca" target="_parent"><rect id="calendar-link" x="440" y="398.5" fill="transparent" width="169.5" height="16"/></a>
<a href="http://localhost:8888/projectsoul/about/" target="_parent"><rect id="about-link" x="309.5" y="419" fill="transparent" width="101" height="15"/></a>

<a href="http://localhost:8888/projectsoul/home/" target="_parent"><rect id="home-link" x="20" y="380" fill="transparent" width="169.5" height="30"/></a>
</svg>
