<svg id="Layer_1" data-name="Layer 1" xmlns="http://www.w3.org/2000/svg" viewBox="0 0 1446.87 518.16"><defs><style>.cls-1{fill:#fff;}.cls-2{fill:#fdee00;}</style></defs><title>PSP_logo-mobile</title><path class="cls-1" d="M226.82,488.13a8.72,8.72,0,0,1,4.65-4.65,8.82,8.82,0,0,1,6.84,0,9,9,0,0,1,2.81,1.87,8.56,8.56,0,0,1,2.58,6.2A8.49,8.49,0,0,1,243,495a9.06,9.06,0,0,1-1.9,2.81,8.91,8.91,0,0,1-2.81,1.89,8.72,8.72,0,0,1-9.62-1.89,9.15,9.15,0,0,1-1.87-2.81,8.82,8.82,0,0,1,0-6.84Z"/><path class="cls-1" d="M389.29,488.13a8.67,8.67,0,0,1,1.87-2.78,8.78,8.78,0,0,1,2.78-1.87,8.85,8.85,0,0,1,6.85,0,9.1,9.1,0,0,1,2.8,1.87,8.43,8.43,0,0,1,1.9,2.78,8.82,8.82,0,0,1,0,6.84,8.89,8.89,0,0,1-1.9,2.81,9,9,0,0,1-2.8,1.89,8.85,8.85,0,0,1-6.85,0,8.67,8.67,0,0,1-2.78-1.89,9.15,9.15,0,0,1-1.87-2.81,8.82,8.82,0,0,1,0-6.84Z"/><path class="cls-1" d="M551.76,488.13a8.7,8.7,0,0,1,4.66-4.65,8.82,8.82,0,0,1,6.84,0,9.15,9.15,0,0,1,2.81,1.87A8.77,8.77,0,0,1,568,495a8.81,8.81,0,0,1-4.7,4.7,8.82,8.82,0,0,1-6.84,0,8.71,8.71,0,0,1-2.79-1.89,9.33,9.33,0,0,1-1.87-2.81,8.94,8.94,0,0,1,0-6.84Z"/><path class="cls-1" d="M714.24,488.05a8.72,8.72,0,0,1,4.65-4.65,8.82,8.82,0,0,1,6.84,0,9,9,0,0,1,2.81,1.87,8.7,8.7,0,0,1,1.9,2.78,8.82,8.82,0,0,1,0,6.84,8.94,8.94,0,0,1-4.71,4.71,8.82,8.82,0,0,1-6.84,0,8.7,8.7,0,0,1-2.78-1.9,9,9,0,0,1-1.87-2.81,8.82,8.82,0,0,1,0-6.84Z"/><path class="cls-1" d="M876.71,488.05a8.78,8.78,0,0,1,1.87-2.78,8.89,8.89,0,0,1,2.78-1.87,8.85,8.85,0,0,1,6.85,0,9.1,9.1,0,0,1,2.8,1.87,8.75,8.75,0,0,1,1.9,9.62,8.78,8.78,0,0,1-1.9,2.81,9,9,0,0,1-2.8,1.9,8.85,8.85,0,0,1-6.85,0,8.81,8.81,0,0,1-2.78-1.9,9,9,0,0,1-1.87-2.81,8.82,8.82,0,0,1,0-6.84Z"/><path class="cls-1" d="M1039.18,488.05a8.81,8.81,0,0,1,1.88-2.78,8.67,8.67,0,0,1,2.78-1.87,8.82,8.82,0,0,1,6.84,0,9.15,9.15,0,0,1,2.81,1.87,8.67,8.67,0,0,1,1.89,2.78,8.82,8.82,0,0,1,0,6.84,8.91,8.91,0,0,1-1.89,2.81,9.06,9.06,0,0,1-2.81,1.9,8.69,8.69,0,0,1-9.62-1.9,9.06,9.06,0,0,1-1.88-2.81,8.94,8.94,0,0,1,0-6.84Z"/><path class="cls-1" d="M1201.66,488.05a8.72,8.72,0,0,1,4.65-4.65,8.82,8.82,0,0,1,6.84,0,9,9,0,0,1,2.81,1.87,8.7,8.7,0,0,1,1.9,2.78,8.82,8.82,0,0,1,0,6.84,8.94,8.94,0,0,1-4.71,4.71,8.82,8.82,0,0,1-6.84,0,8.7,8.7,0,0,1-2.78-1.9,9,9,0,0,1-1.87-2.81,8.82,8.82,0,0,1,0-6.84Z"/><path class="cls-1" d="M226.82,21.32a8.89,8.89,0,0,1,1.87-2.78,8.67,8.67,0,0,1,2.78-1.87,8.82,8.82,0,0,1,6.84,0,9,9,0,0,1,2.81,1.87,8.81,8.81,0,0,1,1.9,2.78,9,9,0,0,1,0,6.85,9,9,0,0,1-1.9,2.8,8.78,8.78,0,0,1-2.81,1.9,8.69,8.69,0,0,1-9.62-1.9,9.1,9.1,0,0,1-1.87-2.8,8.85,8.85,0,0,1,0-6.85Z"/><path class="cls-1" d="M389.29,21.32a8.89,8.89,0,0,1,1.87-2.78,8.78,8.78,0,0,1,2.78-1.87,8.85,8.85,0,0,1,6.85,0,9.1,9.1,0,0,1,2.8,1.87,8.77,8.77,0,0,1,1.9,9.63,9,9,0,0,1-4.7,4.7,8.7,8.7,0,0,1-9.63-1.9,9.1,9.1,0,0,1-1.87-2.8,8.85,8.85,0,0,1,0-6.85Z"/><path class="cls-1" d="M551.76,21.32a9.07,9.07,0,0,1,1.87-2.78,8.82,8.82,0,0,1,2.79-1.87,8.82,8.82,0,0,1,6.84,0,9.15,9.15,0,0,1,2.81,1.87A8.78,8.78,0,0,1,568,21.32a8.85,8.85,0,0,1,0,6.85,9,9,0,0,1-1.89,2.8,8.89,8.89,0,0,1-2.81,1.9,8.72,8.72,0,0,1-9.63-1.9,9.28,9.28,0,0,1-1.87-2.8,9,9,0,0,1,0-6.85Z"/><path class="cls-1" d="M714.24,21.24a8.89,8.89,0,0,1,1.87-2.78,8.78,8.78,0,0,1,2.78-1.87,8.82,8.82,0,0,1,6.84,0,9,9,0,0,1,2.81,1.87,8.81,8.81,0,0,1,1.9,2.78,8.85,8.85,0,0,1,0,6.85,8.9,8.9,0,0,1-1.9,2.8,8.78,8.78,0,0,1-2.81,1.9,8.69,8.69,0,0,1-9.62-1.9,9,9,0,0,1-1.87-2.8,8.85,8.85,0,0,1,0-6.85Z"/><path class="cls-1" d="M876.71,21.24a8.72,8.72,0,0,1,4.65-4.65,8.85,8.85,0,0,1,6.85,0,9.1,9.1,0,0,1,2.8,1.87,8.74,8.74,0,0,1,0,12.43,8.84,8.84,0,0,1-2.8,1.9,8.7,8.7,0,0,1-9.63-1.9,9,9,0,0,1-1.87-2.8,8.85,8.85,0,0,1,0-6.85Z"/><path class="cls-1" d="M1039.18,21.24a8.92,8.92,0,0,1,1.88-2.78,8.67,8.67,0,0,1,2.78-1.87,8.82,8.82,0,0,1,6.84,0,9.15,9.15,0,0,1,2.81,1.87,8.78,8.78,0,0,1,1.89,2.78,8.85,8.85,0,0,1,0,6.85,8.9,8.9,0,0,1-4.7,4.7,8.82,8.82,0,0,1-6.84,0,8.43,8.43,0,0,1-2.78-1.9,9,9,0,0,1-1.88-2.8,9,9,0,0,1,0-6.85Z"/><path class="cls-1" d="M1201.66,21.24a8.89,8.89,0,0,1,1.87-2.78,8.78,8.78,0,0,1,2.78-1.87,8.82,8.82,0,0,1,6.84,0,9,9,0,0,1,2.81,1.87,8.81,8.81,0,0,1,1.9,2.78,8.85,8.85,0,0,1,0,6.85,8.9,8.9,0,0,1-1.9,2.8,8.78,8.78,0,0,1-2.81,1.9,8.69,8.69,0,0,1-9.62-1.9,9,9,0,0,1-1.87-2.8,8.85,8.85,0,0,1,0-6.85Z"/><path class="cls-2" d="M238.12,165.18a16,16,0,0,1,6.18,1.06,11.53,11.53,0,0,1,4.14,2.79,10.63,10.63,0,0,1,2.33,3.95,14.8,14.8,0,0,1,0,9.18,10.59,10.59,0,0,1-2.33,4,11.53,11.53,0,0,1-4.14,2.79,16,16,0,0,1-6.18,1.06h-8.93v13.86h-8.51V165.18Zm-2.33,18.2a17.14,17.14,0,0,0,2.82-.22,6.35,6.35,0,0,0,2.38-.84,4.55,4.55,0,0,0,1.66-1.76,7.47,7.47,0,0,0,0-6,4.69,4.69,0,0,0-1.66-1.76,6.72,6.72,0,0,0-2.38-.84,18.33,18.33,0,0,0-2.82-.21h-6.6v11.59Z"/><path class="cls-2" d="M403.75,164.28a12.63,12.63,0,0,1,4.68.83,11,11,0,0,1,3.58,2.31,9.92,9.92,0,0,1,2.27,3.38,10.76,10.76,0,0,1,.79,4.15,11.59,11.59,0,0,1-1.44,5.9,9,9,0,0,1-4.68,3.79v.11a6.6,6.6,0,0,1,2.6,1.33,7.53,7.53,0,0,1,1.68,2.11,9.56,9.56,0,0,1,.94,2.68,22.54,22.54,0,0,1,.41,2.92c0,.62.07,1.34.11,2.17s.1,1.68.19,2.55a17,17,0,0,0,.43,2.46,5.82,5.82,0,0,0,.89,2h-8.5a15,15,0,0,1-.87-4.39c-.1-1.7-.27-3.32-.48-4.87a7.75,7.75,0,0,0-1.84-4.45c-.94-.93-2.48-1.4-4.61-1.4h-8.5V203h-8.5V164.28Zm-3,17.49a6.41,6.41,0,0,0,4.39-1.3,5.37,5.37,0,0,0,1.46-4.22,5.14,5.14,0,0,0-1.46-4.09,6.52,6.52,0,0,0-4.39-1.28H391.4v10.89Z"/><path class="cls-2" d="M542.78,176.25a19.25,19.25,0,0,1,3.74-6.48,17.12,17.12,0,0,1,6-4.33,21.19,21.19,0,0,1,16,0,17.32,17.32,0,0,1,6,4.33,19.23,19.23,0,0,1,3.73,6.48,24,24,0,0,1,1.3,8,23.31,23.31,0,0,1-1.3,7.88,18.68,18.68,0,0,1-3.73,6.36,17.12,17.12,0,0,1-6,4.25,21.45,21.45,0,0,1-16,0,16.92,16.92,0,0,1-6-4.25,18.7,18.7,0,0,1-3.74-6.36,23.31,23.31,0,0,1-1.3-7.88A24,24,0,0,1,542.78,176.25ZM550.55,189a12.89,12.89,0,0,0,1.82,4.14,9.23,9.23,0,0,0,3.25,3,11.26,11.26,0,0,0,9.75,0,9.32,9.32,0,0,0,3.25-3,12.88,12.88,0,0,0,1.81-4.14,19.71,19.71,0,0,0,.57-4.74,21.12,21.12,0,0,0-.57-4.93,13,13,0,0,0-1.81-4.25,9.21,9.21,0,0,0-3.25-3,11.26,11.26,0,0,0-9.75,0,9.13,9.13,0,0,0-3.25,3,13,13,0,0,0-1.82,4.25,21.12,21.12,0,0,0-.57,4.93A19.71,19.71,0,0,0,550.55,189Z"/><path class="cls-2" d="M736.32,195a10.55,10.55,0,0,1-1.74,4.26,10.43,10.43,0,0,1-3.9,3.3,15,15,0,0,1-6.88,1.33,16.51,16.51,0,0,1-4.71-.68,11.74,11.74,0,0,1-4.06-2.11,10.55,10.55,0,0,1-2.87-3.68,12.52,12.52,0,0,1-1.08-5.45v-3.36h7.69v1.74a15,15,0,0,0,.21,2.6,5.69,5.69,0,0,0,.76,2,3.75,3.75,0,0,0,1.49,1.32,5.35,5.35,0,0,0,2.47.49,4.86,4.86,0,0,0,2.6-.59,3.41,3.41,0,0,0,1.32-1.55,6.28,6.28,0,0,0,.49-2.06c.06-.73.08-1.45.08-2.14v-26.1h8.51v26.48A25.71,25.71,0,0,1,736.32,195Z"/><path class="cls-2" d="M900.76,165.14v7.15H880.34v8.29h18.74v6.61H880.34v9.48h20.85v7.15H871.83V165.14Z"/><path class="cls-2" d="M1057,175.49a8.6,8.6,0,0,0-1.9-2.14,8.79,8.79,0,0,0-5.58-1.95,9.9,9.9,0,0,0-4.87,1.11,9.13,9.13,0,0,0-3.25,3,12.79,12.79,0,0,0-1.81,4.25,21.12,21.12,0,0,0-.57,4.93,19.71,19.71,0,0,0,.57,4.74,12.66,12.66,0,0,0,1.81,4.14,9.23,9.23,0,0,0,3.25,2.95,9.9,9.9,0,0,0,4.87,1.11,7.89,7.89,0,0,0,6.1-2.38,11.06,11.06,0,0,0,2.68-6.28h8.23a19.78,19.78,0,0,1-1.68,6.55,15.61,15.61,0,0,1-3.57,5,15.27,15.27,0,0,1-5.2,3.15,19.13,19.13,0,0,1-6.56,1.08,19.84,19.84,0,0,1-8-1.54,17.07,17.07,0,0,1-6-4.26,18.7,18.7,0,0,1-3.74-6.36,23.51,23.51,0,0,1-1.3-7.88,24.29,24.29,0,0,1,1.3-8,19.25,19.25,0,0,1,3.74-6.48,17.12,17.12,0,0,1,6-4.33,20.75,20.75,0,0,1,14-.65,16.4,16.4,0,0,1,5.09,2.68,14.51,14.51,0,0,1,3.71,4.36,15.67,15.67,0,0,1,1.85,6H1058A6.91,6.91,0,0,0,1057,175.49Z"/><path class="cls-2" d="M1194.5,172.29v-7.15h31.68v7.15h-11.59v31.53h-8.5V172.29Z"/><path class="cls-2" d="M716.13,353.26a6.14,6.14,0,0,0,1.87,2.19,8.25,8.25,0,0,0,2.73,1.25,13,13,0,0,0,3.25.4,16.49,16.49,0,0,0,2.44-.19,8.32,8.32,0,0,0,2.44-.73,5.25,5.25,0,0,0,1.89-1.49,3.7,3.7,0,0,0,.76-2.41,3.37,3.37,0,0,0-1-2.54,8,8,0,0,0-2.63-1.63A27.25,27.25,0,0,0,724.2,347q-2.06-.48-4.17-1.08a35.66,35.66,0,0,1-4.22-1.33,14.44,14.44,0,0,1-3.69-2,9.68,9.68,0,0,1-2.63-3.11,9.55,9.55,0,0,1-1-4.52,10.15,10.15,0,0,1,1.28-5.18,11.3,11.3,0,0,1,3.33-3.65,14.4,14.4,0,0,1,4.65-2.17,19.84,19.84,0,0,1,5.2-.7,24.69,24.69,0,0,1,5.83.67,14.65,14.65,0,0,1,5,2.2,11,11,0,0,1,3.44,3.87,11.86,11.86,0,0,1,1.27,5.71h-8.23a6.76,6.76,0,0,0-.73-2.87,4.73,4.73,0,0,0-1.65-1.78,6.85,6.85,0,0,0-2.36-.92,13.78,13.78,0,0,0-2.89-.27,10.21,10.21,0,0,0-2.06.21,5.62,5.62,0,0,0-1.87.76,4.68,4.68,0,0,0-1.38,1.35,3.67,3.67,0,0,0-.54,2.06,3.46,3.46,0,0,0,.43,1.84,3.85,3.85,0,0,0,1.7,1.3,21,21,0,0,0,3.53,1.19q2.24.6,5.87,1.52c.72.15,1.73.41,3,.79a14.56,14.56,0,0,1,3.82,1.81,11.55,11.55,0,0,1,3.27,3.33,9.5,9.5,0,0,1,1.38,5.34,11.92,11.92,0,0,1-1,4.93,10.81,10.81,0,0,1-3.06,3.92,14.6,14.6,0,0,1-5,2.57,23.65,23.65,0,0,1-7,.93,24.56,24.56,0,0,1-6.2-.79,15.43,15.43,0,0,1-5.31-2.46,12.24,12.24,0,0,1-3.66-4.28,12.9,12.9,0,0,1-1.3-6.18h8.24A7.13,7.13,0,0,0,716.13,353.26Z"/><path class="cls-1" d="M227,340a8.72,8.72,0,0,1,4.65-4.65,8.82,8.82,0,0,1,6.84,0,9,9,0,0,1,2.81,1.87,8.7,8.7,0,0,1,1.9,2.78,8.94,8.94,0,0,1,0,6.84,8.94,8.94,0,0,1-4.71,4.71,8.82,8.82,0,0,1-6.84,0,8.7,8.7,0,0,1-2.78-1.9,9,9,0,0,1-1.87-2.81,8.82,8.82,0,0,1,0-6.84Z"/><path class="cls-1" d="M64.34,488.13A8.7,8.7,0,0,1,69,483.48a8.82,8.82,0,0,1,6.84,0,9.15,9.15,0,0,1,2.81,1.87A8.77,8.77,0,0,1,80.54,495a8.81,8.81,0,0,1-4.7,4.7,8.82,8.82,0,0,1-6.84,0,8.71,8.71,0,0,1-2.79-1.89A9.33,9.33,0,0,1,64.34,495a8.82,8.82,0,0,1,0-6.84Z"/><path class="cls-1" d="M64.34,21.32a9.07,9.07,0,0,1,1.87-2.78A8.82,8.82,0,0,1,69,16.67a8.82,8.82,0,0,1,6.84,0,9.15,9.15,0,0,1,2.81,1.87,8.78,8.78,0,0,1,1.89,2.78,8.85,8.85,0,0,1,0,6.85A9,9,0,0,1,78.65,31a8.89,8.89,0,0,1-2.81,1.9A8.72,8.72,0,0,1,66.21,31a9.28,9.28,0,0,1-1.87-2.8,8.85,8.85,0,0,1,0-6.85Z"/><path class="cls-1" d="M64.51,340a8.72,8.72,0,0,1,4.65-4.65,8.82,8.82,0,0,1,6.84,0,9,9,0,0,1,2.81,1.87,8.75,8.75,0,0,1,1.9,9.62,8.78,8.78,0,0,1-1.9,2.81,8.94,8.94,0,0,1-2.81,1.9,8.82,8.82,0,0,1-6.84,0,8.7,8.7,0,0,1-2.78-1.9,9,9,0,0,1-1.87-2.81,8.82,8.82,0,0,1,0-6.84Z"/><path class="cls-1" d="M64.51,180.16a8.72,8.72,0,0,1,4.65-4.65,8.82,8.82,0,0,1,6.84,0,9.21,9.21,0,0,1,2.81,1.87,8.77,8.77,0,0,1,1.9,9.63,8.88,8.88,0,0,1-4.71,4.7,8.82,8.82,0,0,1-6.84,0,8.67,8.67,0,0,1-2.78-1.89A9.15,9.15,0,0,1,64.51,187a8.85,8.85,0,0,1,0-6.85Z"/><path class="cls-1" d="M1364.13,488.13a8.72,8.72,0,0,1,4.65-4.65,8.85,8.85,0,0,1,6.85,0,9.27,9.27,0,0,1,2.81,1.87,8.77,8.77,0,0,1,1.89,9.62,9,9,0,0,1-1.89,2.81,9.15,9.15,0,0,1-2.81,1.89,8.85,8.85,0,0,1-6.85,0,8.78,8.78,0,0,1-2.78-1.89,9.33,9.33,0,0,1-1.87-2.81,8.82,8.82,0,0,1,0-6.84Z"/><path class="cls-1" d="M1364.13,21.32a9.07,9.07,0,0,1,1.87-2.78,8.89,8.89,0,0,1,2.78-1.87,8.85,8.85,0,0,1,6.85,0,9.27,9.27,0,0,1,2.81,1.87,8.78,8.78,0,0,1,1.89,2.78,8.85,8.85,0,0,1,0,6.85,8.9,8.9,0,0,1-4.7,4.7A8.7,8.7,0,0,1,1366,31a9.28,9.28,0,0,1-1.87-2.8,8.85,8.85,0,0,1,0-6.85Z"/><path class="cls-1" d="M1364.3,340a8.72,8.72,0,0,1,4.65-4.65,8.82,8.82,0,0,1,6.84,0,9,9,0,0,1,2.81,1.87,8.7,8.7,0,0,1,1.9,2.78,8.94,8.94,0,0,1,0,6.84,8.94,8.94,0,0,1-4.71,4.71,8.82,8.82,0,0,1-6.84,0,8.7,8.7,0,0,1-2.78-1.9,9,9,0,0,1-1.87-2.81,8.82,8.82,0,0,1,0-6.84Z"/><path class="cls-1" d="M1364.3,180.16a8.72,8.72,0,0,1,4.65-4.65,8.82,8.82,0,0,1,6.84,0,9.21,9.21,0,0,1,2.81,1.87,8.81,8.81,0,0,1,1.9,2.78,9,9,0,0,1,0,6.85,9.06,9.06,0,0,1-1.9,2.81,8.91,8.91,0,0,1-2.81,1.89,8.82,8.82,0,0,1-6.84,0,8.67,8.67,0,0,1-2.78-1.89,9.15,9.15,0,0,1-1.87-2.81,8.85,8.85,0,0,1,0-6.85Z"/><path class="cls-1" d="M389.49,340A8.78,8.78,0,0,1,401,335.33a9.15,9.15,0,0,1,2.81,1.87,8.77,8.77,0,0,1,1.89,9.62,8.75,8.75,0,0,1-1.89,2.81,9.06,9.06,0,0,1-2.81,1.9,8.69,8.69,0,0,1-9.62-1.9,8.86,8.86,0,0,1-1.87-2.81,8.82,8.82,0,0,1,0-6.84Z"/><path class="cls-1" d="M552,340a9,9,0,0,1,1.87-2.78,8.82,8.82,0,0,1,2.79-1.87,8.82,8.82,0,0,1,6.84,0,9.15,9.15,0,0,1,2.81,1.87,8.67,8.67,0,0,1,1.89,2.78,8.82,8.82,0,0,1,0,6.84,8.91,8.91,0,0,1-1.89,2.81,9.06,9.06,0,0,1-2.81,1.9,8.82,8.82,0,0,1-6.84,0,8.74,8.74,0,0,1-2.79-1.9,9.21,9.21,0,0,1-1.87-2.81,8.94,8.94,0,0,1,0-6.84Z"/><path class="cls-2" d="M868.38,335.57a19.3,19.3,0,0,1,3.74-6.47,17.12,17.12,0,0,1,6-4.33,21.19,21.19,0,0,1,16,0,17.32,17.32,0,0,1,6,4.33,19.28,19.28,0,0,1,3.73,6.47,24.14,24.14,0,0,1,1.3,8.05,23.31,23.31,0,0,1-1.3,7.88,18.78,18.78,0,0,1-3.73,6.36,17.25,17.25,0,0,1-6,4.25,21.45,21.45,0,0,1-16,0,17,17,0,0,1-6-4.25,18.8,18.8,0,0,1-3.74-6.36,23.31,23.31,0,0,1-1.3-7.88A24.14,24.14,0,0,1,868.38,335.57Zm7.77,12.78A12.85,12.85,0,0,0,878,352.5a9.23,9.23,0,0,0,3.25,2.95,11.26,11.26,0,0,0,9.75,0,9.41,9.41,0,0,0,3.25-2.95,12.84,12.84,0,0,0,1.81-4.15,19.57,19.57,0,0,0,.57-4.73,21.12,21.12,0,0,0-.57-4.93,13,13,0,0,0-1.81-4.25,9.3,9.3,0,0,0-3.25-3,11.26,11.26,0,0,0-9.75,0,9.13,9.13,0,0,0-3.25,3,13,13,0,0,0-1.82,4.25,21.12,21.12,0,0,0-.57,4.93A19.57,19.57,0,0,0,876.15,348.35Z"/><path class="cls-2" d="M1060.25,359.3q-4.39,3.81-12.13,3.82t-12.16-3.8q-4.31-3.78-4.31-11.69V323.58h8.5v24.05a17.55,17.55,0,0,0,.27,3.08,6.2,6.2,0,0,0,1.14,2.68,6.28,6.28,0,0,0,2.41,1.9,9.77,9.77,0,0,0,4.15.73q4.55,0,6.28-2t1.73-6.36V323.58h8.51v24.05Q1064.64,355.48,1060.25,359.3Z"/><path class="cls-2" d="M1204.75,324v31.52h18.85v7.15h-27.35V324Z"/></svg>