<svg id="Layer_1" data-name="Layer 1" xmlns="http://www.w3.org/2000/svg" viewBox="0 0 147.84 603.19"><defs><style>.cls-1{fill:#fff;}</style></defs><title>PSP_logo-about-services-calendar</title><path class="cls-1" d="M66.08,64.44A8.89,8.89,0,0,1,68,61.66a8.78,8.78,0,0,1,2.78-1.87,8.82,8.82,0,0,1,6.84,0,9,9,0,0,1,2.81,1.87,8.81,8.81,0,0,1,1.9,2.78,8.85,8.85,0,0,1,0,6.85,9,9,0,0,1-1.9,2.8A8.78,8.78,0,0,1,77.57,76,8.69,8.69,0,0,1,68,74.09a9.1,9.1,0,0,1-1.87-2.8,8.85,8.85,0,0,1,0-6.85Z"/><path class="cls-1" d="M66.08,223.81a8.72,8.72,0,0,1,4.65-4.65,8.82,8.82,0,0,1,6.84,0A9,9,0,0,1,80.38,221a8.7,8.7,0,0,1,1.9,2.78,8.82,8.82,0,0,1,0,6.84,8.94,8.94,0,0,1-1.9,2.81,8.78,8.78,0,0,1-2.81,1.9,8.69,8.69,0,0,1-9.62-1.9,9,9,0,0,1-1.87-2.81,8.82,8.82,0,0,1,0-6.84Z"/><path class="cls-1" d="M66.28,531.25a8.79,8.79,0,0,1,4.65-4.66,9,9,0,0,1,6.85,0,9.3,9.3,0,0,1,2.81,1.88,8.77,8.77,0,0,1,1.89,9.62,9,9,0,0,1-1.89,2.81,9.15,9.15,0,0,1-2.81,1.89,8.85,8.85,0,0,1-6.85,0,8.78,8.78,0,0,1-2.78-1.89,9.33,9.33,0,0,1-1.87-2.81,8.82,8.82,0,0,1,0-6.84Z"/><path class="cls-1" d="M66.45,383.1a8.72,8.72,0,0,1,4.65-4.65,8.82,8.82,0,0,1,6.84,0,9,9,0,0,1,2.81,1.87,8.7,8.7,0,0,1,1.9,2.78,8.94,8.94,0,0,1,0,6.84,9.06,9.06,0,0,1-1.9,2.81,8.94,8.94,0,0,1-2.81,1.9,8.94,8.94,0,0,1-6.84,0,8.7,8.7,0,0,1-2.78-1.9,9.15,9.15,0,0,1-1.87-2.81,8.82,8.82,0,0,1,0-6.84Z"/></svg>