<svg id="Layer_1" data-name="Layer 1" xmlns="http://www.w3.org/2000/svg" viewBox="0 0 2726.9 615.02"><defs><style>.cls-1{fill:#fff;}.cls-2{fill:#fdee00;}</style></defs><title>PSP_logo-about-services-calendar</title><path class="cls-1" d="M68.54,51.53a8.72,8.72,0,0,1,4.65-4.65,8.82,8.82,0,0,1,6.84,0,9,9,0,0,1,2.81,1.87,8.78,8.78,0,0,1,1.89,9.63,8.9,8.9,0,0,1-4.7,4.7,8.82,8.82,0,0,1-6.84,0,8.43,8.43,0,0,1-2.78-1.9,8.93,8.93,0,0,1-1.87-2.8,8.85,8.85,0,0,1,0-6.85Z"/><path class="cls-1" d="M231.16,51.53A8.89,8.89,0,0,1,233,48.75a8.78,8.78,0,0,1,2.78-1.87,8.85,8.85,0,0,1,6.85,0,9.1,9.1,0,0,1,2.8,1.87,8.77,8.77,0,0,1,1.9,9.63,9,9,0,0,1-4.7,4.7,8.7,8.7,0,0,1-9.63-1.9,9.1,9.1,0,0,1-1.87-2.8,8.85,8.85,0,0,1,0-6.85Z"/><path class="cls-1" d="M393.21,51.53a8.72,8.72,0,0,1,4.65-4.65,8.85,8.85,0,0,1,6.85,0,9.1,9.1,0,0,1,2.8,1.87,8.77,8.77,0,0,1,1.9,9.63,9,9,0,0,1-4.7,4.7,8.7,8.7,0,0,1-9.63-1.9,9.1,9.1,0,0,1-1.87-2.8,8.85,8.85,0,0,1,0-6.85Z"/><path class="cls-1" d="M555,51.53a8.72,8.72,0,0,1,4.65-4.65,8.85,8.85,0,0,1,6.85,0,9.1,9.1,0,0,1,2.8,1.87,8.77,8.77,0,0,1,1.9,9.63,9,9,0,0,1-4.7,4.7,8.7,8.7,0,0,1-9.63-1.9,9.1,9.1,0,0,1-1.87-2.8,8.85,8.85,0,0,1,0-6.85Z"/><path class="cls-1" d="M68.74,518.42a8.82,8.82,0,0,1,1.87-2.79,9,9,0,0,1,2.78-1.87,8.85,8.85,0,0,1,6.85,0,9.28,9.28,0,0,1,2.8,1.87,8.77,8.77,0,0,1,1.9,9.63,8.89,8.89,0,0,1-1.9,2.81,9,9,0,0,1-2.8,1.89,8.85,8.85,0,0,1-6.85,0,8.67,8.67,0,0,1-2.78-1.89,9.15,9.15,0,0,1-1.87-2.81,8.82,8.82,0,0,1,0-6.84Z"/><path class="cls-1" d="M231.36,518.42a8.67,8.67,0,0,1,4.66-4.66,8.82,8.82,0,0,1,6.84,0,9.33,9.33,0,0,1,2.81,1.87,8.71,8.71,0,0,1,1.89,2.79,8.82,8.82,0,0,1,0,6.84,8.81,8.81,0,0,1-4.7,4.7,8.82,8.82,0,0,1-6.84,0,8.71,8.71,0,0,1-2.79-1.89,9.33,9.33,0,0,1-1.87-2.81,8.94,8.94,0,0,1,0-6.84Z"/><path class="cls-1" d="M393.42,518.42a8.66,8.66,0,0,1,1.87-2.79,8.83,8.83,0,0,1,2.78-1.87,8.82,8.82,0,0,1,6.84,0,9.33,9.33,0,0,1,2.81,1.87,8.71,8.71,0,0,1,1.89,2.79,8.82,8.82,0,0,1,0,6.84,8.81,8.81,0,0,1-4.7,4.7,8.72,8.72,0,0,1-9.62-1.89,9,9,0,0,1-1.87-2.81,8.82,8.82,0,0,1,0-6.84Z"/><path class="cls-1" d="M68.91,370.27a8.51,8.51,0,0,1,1.87-2.78,8.69,8.69,0,0,1,2.78-1.88,8.94,8.94,0,0,1,6.84,0,9.17,9.17,0,0,1,2.81,1.88,8.41,8.41,0,0,1,1.89,2.78,8.82,8.82,0,0,1,0,6.84,8.86,8.86,0,0,1-1.89,2.81,9,9,0,0,1-2.81,1.89,8.72,8.72,0,0,1-9.62-1.89,9,9,0,0,1-1.87-2.81,8.82,8.82,0,0,1,0-6.84Z"/><path class="cls-1" d="M231.53,370.27a8.67,8.67,0,0,1,1.87-2.78,8.81,8.81,0,0,1,2.78-1.88,9,9,0,0,1,6.85,0,9.13,9.13,0,0,1,2.8,1.88,8.43,8.43,0,0,1,1.9,2.78,8.82,8.82,0,0,1,0,6.84,8.89,8.89,0,0,1-1.9,2.81,9,9,0,0,1-2.8,1.89,8.85,8.85,0,0,1-6.85,0,8.67,8.67,0,0,1-2.78-1.89,9.15,9.15,0,0,1-1.87-2.81,8.82,8.82,0,0,1,0-6.84Z"/><path class="cls-1" d="M393.58,370.27a8.67,8.67,0,0,1,1.87-2.78,8.81,8.81,0,0,1,2.78-1.88,9,9,0,0,1,6.85,0,9.13,9.13,0,0,1,2.8,1.88,8.43,8.43,0,0,1,1.9,2.78,8.82,8.82,0,0,1,0,6.84,8.89,8.89,0,0,1-1.9,2.81,9,9,0,0,1-2.8,1.89,8.85,8.85,0,0,1-6.85,0,8.67,8.67,0,0,1-2.78-1.89,9.15,9.15,0,0,1-1.87-2.81,8.82,8.82,0,0,1,0-6.84Z"/><path class="cls-1" d="M555.8,370.27a8.67,8.67,0,0,1,1.87-2.78,8.81,8.81,0,0,1,2.78-1.88,8.94,8.94,0,0,1,6.84,0,9.06,9.06,0,0,1,2.81,1.88,8.8,8.8,0,0,1,1.9,9.62,9.06,9.06,0,0,1-1.9,2.81,8.91,8.91,0,0,1-2.81,1.89,8.82,8.82,0,0,1-6.84,0,8.67,8.67,0,0,1-2.78-1.89,9.15,9.15,0,0,1-1.87-2.81,8.82,8.82,0,0,1,0-6.84Z"/><path class="cls-1" d="M705.78,51.53a8.89,8.89,0,0,1,1.87-2.78,8.78,8.78,0,0,1,2.78-1.87,8.82,8.82,0,0,1,6.84,0,9,9,0,0,1,2.81,1.87,8.81,8.81,0,0,1,1.9,2.78,8.85,8.85,0,0,1,0,6.85,9,9,0,0,1-1.9,2.8,8.78,8.78,0,0,1-2.81,1.9,8.69,8.69,0,0,1-9.62-1.9,9.1,9.1,0,0,1-1.87-2.8,8.85,8.85,0,0,1,0-6.85Z"/><path class="cls-1" d="M868.4,51.53a9.07,9.07,0,0,1,1.87-2.78,8.89,8.89,0,0,1,2.78-1.87,8.85,8.85,0,0,1,6.85,0,9.15,9.15,0,0,1,2.81,1.87,8.78,8.78,0,0,1,1.89,2.78,8.85,8.85,0,0,1,0,6.85,9,9,0,0,1-1.89,2.8,8.89,8.89,0,0,1-2.81,1.9,8.7,8.7,0,0,1-9.63-1.9,9.28,9.28,0,0,1-1.87-2.8,8.85,8.85,0,0,1,0-6.85Z"/><path class="cls-1" d="M1030.45,51.53a9.07,9.07,0,0,1,1.87-2.78,8.89,8.89,0,0,1,2.78-1.87,8.85,8.85,0,0,1,6.85,0,9.15,9.15,0,0,1,2.81,1.87,8.78,8.78,0,0,1,1.89,2.78,8.85,8.85,0,0,1,0,6.85,9,9,0,0,1-1.89,2.8,8.89,8.89,0,0,1-2.81,1.9,8.7,8.7,0,0,1-9.63-1.9,9.28,9.28,0,0,1-1.87-2.8,8.85,8.85,0,0,1,0-6.85Z"/><path class="cls-1" d="M1192.23,51.53a9.07,9.07,0,0,1,1.87-2.78,8.89,8.89,0,0,1,2.78-1.87,8.85,8.85,0,0,1,6.85,0,9.15,9.15,0,0,1,2.81,1.87,8.78,8.78,0,0,1,1.89,2.78,8.85,8.85,0,0,1,0,6.85,9,9,0,0,1-1.89,2.8,8.89,8.89,0,0,1-2.81,1.9,8.7,8.7,0,0,1-9.63-1.9,9.28,9.28,0,0,1-1.87-2.8,8.85,8.85,0,0,1,0-6.85Z"/><path class="cls-1" d="M706.15,370.27a8.67,8.67,0,0,1,1.87-2.78,8.81,8.81,0,0,1,2.78-1.88,8.94,8.94,0,0,1,6.84,0,9.06,9.06,0,0,1,2.81,1.88,8.8,8.8,0,0,1,1.9,9.62,9.06,9.06,0,0,1-1.9,2.81,8.91,8.91,0,0,1-2.81,1.89,8.82,8.82,0,0,1-6.84,0,8.67,8.67,0,0,1-2.78-1.89,9.15,9.15,0,0,1-1.87-2.81,8.82,8.82,0,0,1,0-6.84Z"/><path class="cls-1" d="M868.77,370.27a8.79,8.79,0,0,1,4.65-4.66,9,9,0,0,1,6.85,0,9.3,9.3,0,0,1,2.81,1.88,8.77,8.77,0,0,1,1.89,9.62,9,9,0,0,1-1.89,2.81,9.15,9.15,0,0,1-2.81,1.89,8.85,8.85,0,0,1-6.85,0,8.78,8.78,0,0,1-2.78-1.89,9.33,9.33,0,0,1-1.87-2.81,8.82,8.82,0,0,1,0-6.84Z"/><path class="cls-1" d="M1030.82,370.27a8.79,8.79,0,0,1,4.65-4.66,9,9,0,0,1,6.85,0,9.17,9.17,0,0,1,2.81,1.88,8.77,8.77,0,0,1,1.89,9.62,8.81,8.81,0,0,1-4.7,4.7,8.85,8.85,0,0,1-6.85,0,8.78,8.78,0,0,1-2.78-1.89,9.33,9.33,0,0,1-1.87-2.81,8.82,8.82,0,0,1,0-6.84Z"/><path class="cls-1" d="M1193,370.27a8.67,8.67,0,0,1,1.87-2.78,8.81,8.81,0,0,1,2.78-1.88,8.94,8.94,0,0,1,6.84,0,9.06,9.06,0,0,1,2.81,1.88,8.43,8.43,0,0,1,1.9,2.78,8.82,8.82,0,0,1,0,6.84,8.88,8.88,0,0,1-4.71,4.7,8.82,8.82,0,0,1-6.84,0,8.67,8.67,0,0,1-2.78-1.89,9.15,9.15,0,0,1-1.87-2.81,8.82,8.82,0,0,1,0-6.84Z"/><path class="cls-1" d="M1355.26,51.61a8.72,8.72,0,0,1,4.65-4.65,8.82,8.82,0,0,1,6.84,0,9,9,0,0,1,2.81,1.87,8.78,8.78,0,0,1,1.89,9.63,8.9,8.9,0,0,1-4.7,4.7,8.82,8.82,0,0,1-6.84,0,8.43,8.43,0,0,1-2.78-1.9,8.93,8.93,0,0,1-1.87-2.8,8.85,8.85,0,0,1,0-6.85Z"/><path class="cls-1" d="M1355.26,211a8.78,8.78,0,0,1,11.49-4.65,9,9,0,0,1,2.81,1.87,8.77,8.77,0,0,1,1.89,9.62,8.88,8.88,0,0,1-4.7,4.71,8.69,8.69,0,0,1-9.62-1.9,9,9,0,0,1-1.87-2.81,8.82,8.82,0,0,1,0-6.84Z"/><path class="cls-1" d="M1517.31,51.61a8.89,8.89,0,0,1,1.87-2.78A8.67,8.67,0,0,1,1522,47a8.82,8.82,0,0,1,6.84,0,9,9,0,0,1,2.81,1.87,8.81,8.81,0,0,1,1.9,2.78,9,9,0,0,1,0,6.85,9,9,0,0,1-1.9,2.8,8.78,8.78,0,0,1-2.81,1.9,8.69,8.69,0,0,1-9.62-1.9,9.1,9.1,0,0,1-1.87-2.8,8.85,8.85,0,0,1,0-6.85Z"/><path class="cls-1" d="M1680.7,51.53a9.07,9.07,0,0,1,1.87-2.78,8.89,8.89,0,0,1,2.78-1.87,8.85,8.85,0,0,1,6.85,0,9.27,9.27,0,0,1,2.81,1.87,8.78,8.78,0,0,1,1.89,2.78,8.85,8.85,0,0,1,0,6.85,8.9,8.9,0,0,1-4.7,4.7,8.7,8.7,0,0,1-9.63-1.9,9.28,9.28,0,0,1-1.87-2.8,8.85,8.85,0,0,1,0-6.85Z"/><path class="cls-1" d="M1843.33,51.53a8.72,8.72,0,0,1,4.65-4.65,8.82,8.82,0,0,1,6.84,0,9.15,9.15,0,0,1,2.81,1.87,8.78,8.78,0,0,1,1.89,9.63,8.9,8.9,0,0,1-4.7,4.7,8.82,8.82,0,0,1-6.84,0,8.43,8.43,0,0,1-2.78-1.9,8.93,8.93,0,0,1-1.87-2.8,8.85,8.85,0,0,1,0-6.85Z"/><path class="cls-1" d="M2005.38,51.53a8.89,8.89,0,0,1,1.87-2.78,8.67,8.67,0,0,1,2.78-1.87,8.82,8.82,0,0,1,6.84,0,9,9,0,0,1,2.81,1.87,8.78,8.78,0,0,1,1.89,9.63,8.9,8.9,0,0,1-4.7,4.7,8.69,8.69,0,0,1-9.62-1.9,9.1,9.1,0,0,1-1.87-2.8,8.85,8.85,0,0,1,0-6.85Z"/><path class="cls-1" d="M2167.16,51.53a8.89,8.89,0,0,1,1.87-2.78,8.67,8.67,0,0,1,2.78-1.87,8.82,8.82,0,0,1,6.84,0,9,9,0,0,1,2.81,1.87,8.78,8.78,0,0,1,1.89,9.63,8.9,8.9,0,0,1-4.7,4.7,8.69,8.69,0,0,1-9.62-1.9,9.1,9.1,0,0,1-1.87-2.8,8.85,8.85,0,0,1,0-6.85Z"/><path class="cls-1" d="M1355.46,518.42a8.82,8.82,0,0,1,1.87-2.79,9,9,0,0,1,2.78-1.87,8.85,8.85,0,0,1,6.85,0,9.28,9.28,0,0,1,2.8,1.87,8.77,8.77,0,0,1,1.9,9.63,8.89,8.89,0,0,1-1.9,2.81A9,9,0,0,1,1367,530a8.85,8.85,0,0,1-6.85,0,8.67,8.67,0,0,1-2.78-1.89,9.15,9.15,0,0,1-1.87-2.81,8.82,8.82,0,0,1,0-6.84Z"/><path class="cls-1" d="M1517.51,518.42a8.82,8.82,0,0,1,1.87-2.79,9,9,0,0,1,2.78-1.87,8.85,8.85,0,0,1,6.85,0,9.28,9.28,0,0,1,2.8,1.87,8.77,8.77,0,0,1,1.9,9.63,8.89,8.89,0,0,1-1.9,2.81A9,9,0,0,1,1529,530a8.85,8.85,0,0,1-6.85,0,8.67,8.67,0,0,1-2.78-1.89,9.15,9.15,0,0,1-1.87-2.81,8.82,8.82,0,0,1,0-6.84Z"/><path class="cls-1" d="M1355.63,370.27a8.51,8.51,0,0,1,1.87-2.78,8.69,8.69,0,0,1,2.78-1.88,8.94,8.94,0,0,1,6.84,0,9.17,9.17,0,0,1,2.81,1.88,8.41,8.41,0,0,1,1.89,2.78,8.82,8.82,0,0,1,0,6.84,8.86,8.86,0,0,1-1.89,2.81,9,9,0,0,1-2.81,1.89,8.72,8.72,0,0,1-9.62-1.89,9,9,0,0,1-1.87-2.81,8.82,8.82,0,0,1,0-6.84Z"/><path class="cls-1" d="M1517.68,210.94a8.78,8.78,0,0,1,1.87-2.78,8.67,8.67,0,0,1,2.78-1.87,8.82,8.82,0,0,1,6.84,0,9,9,0,0,1,2.81,1.87,8.77,8.77,0,0,1,1.89,9.62,8.75,8.75,0,0,1-1.89,2.81,8.94,8.94,0,0,1-2.81,1.9,8.69,8.69,0,0,1-9.62-1.9,9,9,0,0,1-1.87-2.81,8.82,8.82,0,0,1,0-6.84Z"/><path class="cls-1" d="M1680.91,518.42a8.66,8.66,0,0,1,1.87-2.79,8.83,8.83,0,0,1,2.78-1.87,8.82,8.82,0,0,1,6.84,0,9.33,9.33,0,0,1,2.81,1.87,8.78,8.78,0,0,1,1.89,9.63,8.86,8.86,0,0,1-1.89,2.81,9,9,0,0,1-2.81,1.89,8.72,8.72,0,0,1-9.62-1.89,9,9,0,0,1-1.87-2.81,8.82,8.82,0,0,1,0-6.84Z"/><path class="cls-1" d="M1843.53,518.42a8.82,8.82,0,0,1,1.87-2.79,9,9,0,0,1,2.78-1.87,8.85,8.85,0,0,1,6.85,0,9.28,9.28,0,0,1,2.8,1.87,8.77,8.77,0,0,1,1.9,9.63,8.89,8.89,0,0,1-1.9,2.81A9,9,0,0,1,1855,530a8.85,8.85,0,0,1-6.85,0,8.67,8.67,0,0,1-2.78-1.89,9.15,9.15,0,0,1-1.87-2.81,8.82,8.82,0,0,1,0-6.84Z"/><path class="cls-1" d="M2005.58,518.42a8.82,8.82,0,0,1,1.87-2.79,9,9,0,0,1,2.78-1.87,8.85,8.85,0,0,1,6.85,0,9.28,9.28,0,0,1,2.8,1.87,8.77,8.77,0,0,1,1.9,9.63,8.89,8.89,0,0,1-1.9,2.81,9,9,0,0,1-2.8,1.89,8.85,8.85,0,0,1-6.85,0,8.67,8.67,0,0,1-2.78-1.89,9.15,9.15,0,0,1-1.87-2.81,8.82,8.82,0,0,1,0-6.84Z"/><path class="cls-1" d="M1681.07,210.94a8.78,8.78,0,0,1,1.87-2.78,8.89,8.89,0,0,1,2.78-1.87,8.85,8.85,0,0,1,6.85,0,9.1,9.1,0,0,1,2.8,1.87,8.75,8.75,0,0,1,1.9,9.62,8.78,8.78,0,0,1-1.9,2.81,9,9,0,0,1-2.8,1.9,8.85,8.85,0,0,1-6.85,0,8.81,8.81,0,0,1-2.78-1.9,9,9,0,0,1-1.87-2.81,8.82,8.82,0,0,1,0-6.84Z"/><path class="cls-1" d="M1843.7,210.94a8.78,8.78,0,0,1,11.49-4.65,9.15,9.15,0,0,1,2.81,1.87,8.67,8.67,0,0,1,1.89,2.78,8.82,8.82,0,0,1,0,6.84,8.91,8.91,0,0,1-1.89,2.81,9.06,9.06,0,0,1-2.81,1.9,8.69,8.69,0,0,1-9.62-1.9,8.86,8.86,0,0,1-1.87-2.81,8.82,8.82,0,0,1,0-6.84Z"/><path class="cls-1" d="M2005.75,210.94a8.78,8.78,0,0,1,11.49-4.65,9,9,0,0,1,2.81,1.87,8.77,8.77,0,0,1,1.89,9.62,8.75,8.75,0,0,1-1.89,2.81,8.94,8.94,0,0,1-2.81,1.9,8.69,8.69,0,0,1-9.62-1.9,8.86,8.86,0,0,1-1.87-2.81,8.82,8.82,0,0,1,0-6.84Z"/><path class="cls-1" d="M2167.8,518.42a8.7,8.7,0,0,1,4.65-4.66,8.82,8.82,0,0,1,6.84,0,9.21,9.21,0,0,1,2.81,1.87,8.74,8.74,0,0,1,1.9,2.79,8.94,8.94,0,0,1,0,6.84,9.06,9.06,0,0,1-1.9,2.81,8.91,8.91,0,0,1-2.81,1.89,8.72,8.72,0,0,1-9.62-1.89,9.15,9.15,0,0,1-1.87-2.81,8.82,8.82,0,0,1,0-6.84Z"/><path class="cls-1" d="M2168,210.94a8.72,8.72,0,0,1,4.65-4.65,8.85,8.85,0,0,1,6.85,0,9.15,9.15,0,0,1,2.81,1.87,8.67,8.67,0,0,1,1.89,2.78,8.82,8.82,0,0,1,0,6.84,8.91,8.91,0,0,1-1.89,2.81,9.06,9.06,0,0,1-2.81,1.9,8.85,8.85,0,0,1-6.85,0,8.81,8.81,0,0,1-2.78-1.9,9.21,9.21,0,0,1-1.87-2.81,8.82,8.82,0,0,1,0-6.84Z"/><path class="cls-1" d="M2317.94,51.53a9.07,9.07,0,0,1,1.87-2.78,8.82,8.82,0,0,1,2.79-1.87,8.82,8.82,0,0,1,6.84,0,9.15,9.15,0,0,1,2.81,1.87,8.78,8.78,0,0,1,1.89,2.78,8.85,8.85,0,0,1,0,6.85,9,9,0,0,1-1.89,2.8,8.89,8.89,0,0,1-2.81,1.9,8.72,8.72,0,0,1-9.63-1.9,9.28,9.28,0,0,1-1.87-2.8,8.85,8.85,0,0,1,0-6.85Z"/><path class="cls-1" d="M2480.57,51.53a8.89,8.89,0,0,1,1.87-2.78,8.78,8.78,0,0,1,2.78-1.87,8.82,8.82,0,0,1,6.84,0,9,9,0,0,1,2.81,1.87,8.81,8.81,0,0,1,1.9,2.78,8.85,8.85,0,0,1,0,6.85,9,9,0,0,1-1.9,2.8,8.78,8.78,0,0,1-2.81,1.9,8.69,8.69,0,0,1-9.62-1.9,9.1,9.1,0,0,1-1.87-2.8,8.85,8.85,0,0,1,0-6.85Z"/><path class="cls-1" d="M2642.62,51.53a8.89,8.89,0,0,1,1.87-2.78,8.78,8.78,0,0,1,2.78-1.87,8.82,8.82,0,0,1,6.84,0,9,9,0,0,1,2.81,1.87,8.77,8.77,0,0,1,1.9,9.63,9,9,0,0,1-4.71,4.7,8.69,8.69,0,0,1-9.62-1.9,9.1,9.1,0,0,1-1.87-2.8,8.85,8.85,0,0,1,0-6.85Z"/><path class="cls-1" d="M2318.15,518.42a8.7,8.7,0,0,1,4.65-4.66,8.82,8.82,0,0,1,6.84,0,9.21,9.21,0,0,1,2.81,1.87,8.74,8.74,0,0,1,1.9,2.79,8.94,8.94,0,0,1,0,6.84,9.06,9.06,0,0,1-1.9,2.81,8.91,8.91,0,0,1-2.81,1.89,8.72,8.72,0,0,1-9.62-1.89,9.15,9.15,0,0,1-1.87-2.81,8.82,8.82,0,0,1,0-6.84Z"/><path class="cls-1" d="M2480.77,518.42a8.7,8.7,0,0,1,4.65-4.66,8.85,8.85,0,0,1,6.85,0,9.45,9.45,0,0,1,2.81,1.87,8.71,8.71,0,0,1,1.89,2.79,8.82,8.82,0,0,1,0,6.84,9,9,0,0,1-1.89,2.81,9.15,9.15,0,0,1-2.81,1.89,8.85,8.85,0,0,1-6.85,0,8.78,8.78,0,0,1-2.78-1.89,9.33,9.33,0,0,1-1.87-2.81,8.82,8.82,0,0,1,0-6.84Z"/><path class="cls-1" d="M2642.82,518.42a8.7,8.7,0,0,1,4.65-4.66,8.85,8.85,0,0,1,6.85,0,9.33,9.33,0,0,1,2.81,1.87,8.71,8.71,0,0,1,1.89,2.79,8.82,8.82,0,0,1,0,6.84,8.81,8.81,0,0,1-4.7,4.7,8.85,8.85,0,0,1-6.85,0,8.78,8.78,0,0,1-2.78-1.89,9.33,9.33,0,0,1-1.87-2.81,8.82,8.82,0,0,1,0-6.84Z"/><path class="cls-1" d="M2318.31,210.94a8.72,8.72,0,0,1,4.65-4.65,8.85,8.85,0,0,1,6.85,0,9.15,9.15,0,0,1,2.81,1.87,8.67,8.67,0,0,1,1.89,2.78,8.82,8.82,0,0,1,0,6.84,8.91,8.91,0,0,1-1.89,2.81,9.06,9.06,0,0,1-2.81,1.9,8.85,8.85,0,0,1-6.85,0,8.81,8.81,0,0,1-2.78-1.9,9.21,9.21,0,0,1-1.87-2.81,8.82,8.82,0,0,1,0-6.84Z"/><path class="cls-1" d="M2480.94,210.94a8.78,8.78,0,0,1,1.87-2.78,8.67,8.67,0,0,1,2.78-1.87,8.82,8.82,0,0,1,6.84,0,9,9,0,0,1,2.81,1.87,8.7,8.7,0,0,1,1.9,2.78,8.94,8.94,0,0,1,0,6.84,8.94,8.94,0,0,1-4.71,4.71,8.82,8.82,0,0,1-6.84,0,8.59,8.59,0,0,1-2.78-1.9,9,9,0,0,1-1.87-2.81,8.82,8.82,0,0,1,0-6.84Z"/><path class="cls-1" d="M2643,210.94a8.72,8.72,0,0,1,4.65-4.65,8.82,8.82,0,0,1,6.84,0,9,9,0,0,1,2.81,1.87,8.7,8.7,0,0,1,1.9,2.78,8.82,8.82,0,0,1,0,6.84,8.94,8.94,0,0,1-4.71,4.71,8.82,8.82,0,0,1-6.84,0,8.7,8.7,0,0,1-2.78-1.9,9,9,0,0,1-1.87-2.81,8.82,8.82,0,0,1,0-6.84Z"/><path class="cls-2" d="M568.16,502.59l14.42,38.55h-8.81l-2.91-8.58H556.44l-3,8.58h-8.54l14.58-38.55Zm.49,23.65-4.86-14.15h-.11l-5,14.15Z"/><path class="cls-2" d="M716.08,502.59a24.31,24.31,0,0,1,5,.48,11.12,11.12,0,0,1,3.89,1.59,7.37,7.37,0,0,1,2.51,2.95,10.36,10.36,0,0,1,.89,4.53,8.43,8.43,0,0,1-1.32,4.86,9.59,9.59,0,0,1-3.92,3.19,9.24,9.24,0,0,1,5.32,3.59,10.68,10.68,0,0,1,1.76,6.18,10.55,10.55,0,0,1-1.14,5A9.8,9.8,0,0,1,726,538.5a13.42,13.42,0,0,1-4.37,2,19.38,19.38,0,0,1-5,.65H697.94V502.59ZM715,518.19a6.13,6.13,0,0,0,3.73-1.08,4.08,4.08,0,0,0,1.45-3.51,4.5,4.5,0,0,0-.48-2.21,3.59,3.59,0,0,0-1.3-1.35,5.43,5.43,0,0,0-1.86-.68,12.93,12.93,0,0,0-2.19-.19h-7.94v9Zm.48,16.36a11.5,11.5,0,0,0,2.38-.24,5.76,5.76,0,0,0,2-.81,4.21,4.21,0,0,0,1.38-1.54,5.31,5.31,0,0,0,.51-2.48c0-2-.56-3.4-1.68-4.24a7.09,7.09,0,0,0-4.42-1.27h-9.24v10.58Z"/><path class="cls-2" d="M859.05,514a19.27,19.27,0,0,1,3.72-6.45,17.05,17.05,0,0,1,6-4.32,21.07,21.07,0,0,1,16,0,17.12,17.12,0,0,1,5.94,4.32,19.27,19.27,0,0,1,3.72,6.45,24,24,0,0,1,1.3,8,23.15,23.15,0,0,1-1.3,7.86,18.66,18.66,0,0,1-3.72,6.34,16.92,16.92,0,0,1-5.94,4.24,21.45,21.45,0,0,1-16,0,16.86,16.86,0,0,1-6-4.24,18.66,18.66,0,0,1-3.72-6.34,23.15,23.15,0,0,1-1.3-7.86A24,24,0,0,1,859.05,514Zm7.75,12.75a12.8,12.8,0,0,0,1.8,4.13,9.36,9.36,0,0,0,3.24,2.94,11.22,11.22,0,0,0,9.73,0,9.36,9.36,0,0,0,3.24-2.94,12.8,12.8,0,0,0,1.8-4.13,19.57,19.57,0,0,0,.57-4.73,21,21,0,0,0-.57-4.91,12.93,12.93,0,0,0-1.8-4.24,9.25,9.25,0,0,0-3.24-3,11.22,11.22,0,0,0-9.73,0,9.25,9.25,0,0,0-3.24,3,12.93,12.93,0,0,0-1.8,4.24,21,21,0,0,0-.57,4.91A19.57,19.57,0,0,0,866.8,526.78Z"/><path class="cls-2" d="M1050.83,537.77q-4.38,3.79-12.1,3.8t-12.12-3.78q-4.3-3.78-4.3-11.66v-24h8.48v24a17.55,17.55,0,0,0,.27,3.08,6,6,0,0,0,3.54,4.56,9.67,9.67,0,0,0,4.13.73q4.53,0,6.26-2t1.73-6.34v-24h8.48v24Q1055.2,534,1050.83,537.77Z"/><path class="cls-2" d="M1185.37,508.8v-7.13H1217v7.13H1205.4v31.43h-8.47V508.8Z"/><path class="cls-2" d="M69.69,224.19a6.09,6.09,0,0,0,1.86,2.18,8.05,8.05,0,0,0,2.73,1.25,12.84,12.84,0,0,0,3.24.4,16.36,16.36,0,0,0,2.43-.19,8.35,8.35,0,0,0,2.43-.73,5.31,5.31,0,0,0,1.89-1.48,3.74,3.74,0,0,0,.75-2.4,3.4,3.4,0,0,0-1-2.54,7.9,7.9,0,0,0-2.62-1.62,27.25,27.25,0,0,0-3.68-1.14c-1.36-.32-2.75-.68-4.15-1.08a37.57,37.57,0,0,1-4.22-1.32,14.77,14.77,0,0,1-3.67-2,9.65,9.65,0,0,1-2.62-3.11,9.48,9.48,0,0,1-1-4.51,10.17,10.17,0,0,1,1.27-5.16,11.6,11.6,0,0,1,3.33-3.64,14.44,14.44,0,0,1,4.64-2.16,19.7,19.7,0,0,1,5.18-.7,24.58,24.58,0,0,1,5.81.67,14.47,14.47,0,0,1,4.94,2.19,11.08,11.08,0,0,1,3.43,3.86,11.94,11.94,0,0,1,1.27,5.7H83.73a6.82,6.82,0,0,0-.73-2.86A4.75,4.75,0,0,0,81.35,202a6.9,6.9,0,0,0-2.35-.91,14.41,14.41,0,0,0-2.89-.27,10.26,10.26,0,0,0-2,.21,5.66,5.66,0,0,0-1.86.76,4.68,4.68,0,0,0-1.38,1.35,3.61,3.61,0,0,0-.54,2.05,3.46,3.46,0,0,0,.44,1.84,3.79,3.79,0,0,0,1.7,1.29,21.3,21.3,0,0,0,3.51,1.19q2.23.6,5.85,1.51,1.08.23,3,.78a14.67,14.67,0,0,1,3.81,1.81,11.63,11.63,0,0,1,3.27,3.32,9.53,9.53,0,0,1,1.37,5.32,11.84,11.84,0,0,1-1,4.92,10.75,10.75,0,0,1-3,3.91,14.63,14.63,0,0,1-5,2.57,23.76,23.76,0,0,1-6.94.92,24.46,24.46,0,0,1-6.18-.79,15.59,15.59,0,0,1-5.29-2.45,12.18,12.18,0,0,1-3.65-4.27,12.81,12.81,0,0,1-1.29-6.16H69A7.06,7.06,0,0,0,69.69,224.19Z"/><path class="cls-2" d="M253.46,195.07v7.13H233.1v8.26h18.69v6.59H233.1v9.45h20.79v7.12H224.63V195.07Z"/><path class="cls-2" d="M404,195.07a12.43,12.43,0,0,1,4.68.84,10.69,10.69,0,0,1,3.56,2.29,10.07,10.07,0,0,1,2.27,3.38,10.81,10.81,0,0,1,.78,4.13,11.61,11.61,0,0,1-1.43,5.88,9,9,0,0,1-4.67,3.78v.11a6.61,6.61,0,0,1,2.59,1.32,7.46,7.46,0,0,1,1.67,2.11,9.62,9.62,0,0,1,1,2.67,22.74,22.74,0,0,1,.4,2.92c0,.61.08,1.33.11,2.16s.1,1.67.19,2.54a16.66,16.66,0,0,0,.43,2.45,5.77,5.77,0,0,0,.89,2H407.9a14.9,14.9,0,0,1-.87-4.37q-.16-2.53-.48-4.86a7.68,7.68,0,0,0-1.84-4.43c-.94-.93-2.47-1.4-4.59-1.4h-8.48v15.06h-8.48V195.07Zm-3,17.44a6.37,6.37,0,0,0,4.37-1.3c1-.86,1.46-2.26,1.46-4.21a5.09,5.09,0,0,0-1.46-4.07,6.48,6.48,0,0,0-4.37-1.27h-9.29v10.85Z"/><path class="cls-2" d="M558.15,233.62l-12.47-38.55h8.69L563,222.18h.1l8.7-27.11h8.75l-12.8,38.55Z"/><path class="cls-2" d="M718.12,195.07v38.55h-8.48V195.07Z"/><path class="cls-2" d="M885,205.38a8.32,8.32,0,0,0-1.89-2.13,8.66,8.66,0,0,0-2.56-1.43,8.92,8.92,0,0,0-3-.51,10,10,0,0,0-4.86,1.1,9.25,9.25,0,0,0-3.24,3,13.13,13.13,0,0,0-1.81,4.24,21,21,0,0,0-.57,4.92,19.49,19.49,0,0,0,.57,4.72,12.73,12.73,0,0,0,1.81,4.13,9.29,9.29,0,0,0,3.24,3,10,10,0,0,0,4.86,1.1,7.87,7.87,0,0,0,6.08-2.37,11.12,11.12,0,0,0,2.67-6.27h8.21a19.79,19.79,0,0,1-1.68,6.54,15.65,15.65,0,0,1-3.56,5,15.2,15.2,0,0,1-5.19,3.14,19,19,0,0,1-6.53,1.08,19.83,19.83,0,0,1-8-1.54,17.11,17.11,0,0,1-6-4.24,18.9,18.9,0,0,1-3.73-6.35,23.38,23.38,0,0,1-1.29-7.85,24.17,24.17,0,0,1,1.29-8,19.41,19.41,0,0,1,3.73-6.46,17.18,17.18,0,0,1,6-4.32,19.5,19.5,0,0,1,8-1.56,19.2,19.2,0,0,1,6,.92,16.34,16.34,0,0,1,5.08,2.67,14.61,14.61,0,0,1,3.7,4.35,15.45,15.45,0,0,1,1.83,5.94h-8.21A6.75,6.75,0,0,0,885,205.38Z"/><path class="cls-2" d="M1052.75,195.07v7.13H1032.4v8.26h18.68v6.59H1032.4v9.45h20.79v7.12h-29.27V195.07Z"/><path class="cls-2" d="M1193,224.15a6.11,6.11,0,0,0,1.86,2.19,8.14,8.14,0,0,0,2.73,1.24,12.84,12.84,0,0,0,3.24.4,16.46,16.46,0,0,0,2.43-.19,8.35,8.35,0,0,0,2.43-.73,5.39,5.39,0,0,0,1.89-1.48,3.74,3.74,0,0,0,.75-2.4,3.37,3.37,0,0,0-1-2.54,7.8,7.8,0,0,0-2.62-1.62,27.09,27.09,0,0,0-3.67-1.14c-1.37-.32-2.75-.68-4.16-1.08a37.41,37.41,0,0,1-4.21-1.32,14.6,14.6,0,0,1-3.67-2,9.65,9.65,0,0,1-2.62-3.11,9.48,9.48,0,0,1-1-4.51,10.11,10.11,0,0,1,1.27-5.15A11.49,11.49,0,0,1,1190,197a14.59,14.59,0,0,1,4.65-2.16,19.58,19.58,0,0,1,5.18-.7,24.58,24.58,0,0,1,5.81.67,14.47,14.47,0,0,1,4.94,2.19,11.17,11.17,0,0,1,3.43,3.86,11.94,11.94,0,0,1,1.26,5.7h-8.2a7,7,0,0,0-.73-2.86,4.92,4.92,0,0,0-1.65-1.79,7,7,0,0,0-2.35-.91,14.41,14.41,0,0,0-2.89-.27,10.19,10.19,0,0,0-2,.21,5.57,5.57,0,0,0-1.86.76,4.68,4.68,0,0,0-1.38,1.35,3.61,3.61,0,0,0-.54,2A3.46,3.46,0,0,0,1194,207a3.91,3.91,0,0,0,1.7,1.29,22,22,0,0,0,3.51,1.19q2.25.6,5.86,1.51,1.08.22,3,.78a14.67,14.67,0,0,1,3.81,1.81,11.48,11.48,0,0,1,3.26,3.32,9.45,9.45,0,0,1,1.38,5.32,11.69,11.69,0,0,1-1,4.92,10.57,10.57,0,0,1-3,3.91,14.58,14.58,0,0,1-5,2.57,23.81,23.81,0,0,1-6.94.92,24.46,24.46,0,0,1-6.18-.79,15.59,15.59,0,0,1-5.29-2.45,12.18,12.18,0,0,1-3.65-4.27,12.7,12.7,0,0,1-1.29-6.16h8.2A7.06,7.06,0,0,0,1193,224.15Z"/><path class="cls-2" d="M1534.23,364.75a8.62,8.62,0,0,0-4.46-3.56,8.6,8.6,0,0,0-3-.52,9.85,9.85,0,0,0-4.85,1.11,9.08,9.08,0,0,0-3.24,3,12.83,12.83,0,0,0-1.81,4.24,21,21,0,0,0-.57,4.91,19.57,19.57,0,0,0,.57,4.73,12.52,12.52,0,0,0,1.81,4.13,9.09,9.09,0,0,0,3.24,2.94,9.85,9.85,0,0,0,4.85,1.11,7.83,7.83,0,0,0,6.08-2.38,10.93,10.93,0,0,0,2.67-6.26h8.21a19.66,19.66,0,0,1-1.67,6.53,15.57,15.57,0,0,1-3.57,5,15,15,0,0,1-5.18,3.13,19,19,0,0,1-6.54,1.08,19.69,19.69,0,0,1-8-1.54,17,17,0,0,1-6-4.23,18.71,18.71,0,0,1-3.72-6.35,23.15,23.15,0,0,1-1.3-7.86,24,24,0,0,1,1.3-8,19.27,19.27,0,0,1,3.72-6.45,17.18,17.18,0,0,1,6-4.32,20.8,20.8,0,0,1,14-.65,16.41,16.41,0,0,1,5.07,2.68,14.4,14.4,0,0,1,3.7,4.34,15.74,15.74,0,0,1,1.84,5.94h-8.21A7.08,7.08,0,0,0,1534.23,364.75Z"/><path class="cls-2" d="M1693.6,354.44,1708,393h-8.81l-2.91-8.58h-14.42l-3,8.58h-8.54l14.58-38.55Zm.48,23.65-4.86-14.15h-.1l-5,14.15Z"/><path class="cls-2" d="M1846.64,354.44v31.42h18.79V393h-27.27V354.44Z"/><path class="cls-2" d="M2028.05,354.44v7.12h-20.36v8.27h18.68v6.58h-18.68v9.45h20.79V393h-29.27V354.44Z"/><path class="cls-2" d="M2168.2,354.44l16.1,25.86h.1V354.44h7.94V393h-8.48l-16-25.81h-.11V393h-7.94V354.44Z"/><path class="cls-2" d="M2326,354.44a19.91,19.91,0,0,1,6.94,1.18,15.06,15.06,0,0,1,5.56,3.57,16.3,16.3,0,0,1,3.67,5.94,24,24,0,0,1,1.33,8.37,26.63,26.63,0,0,1-1.08,7.77,17.09,17.09,0,0,1-3.27,6.16,15.37,15.37,0,0,1-5.45,4.08A18.49,18.49,0,0,1,2326,393h-16.63V354.44Zm-.59,31.42a10.77,10.77,0,0,0,3.56-.59,7.89,7.89,0,0,0,3.08-2,9.88,9.88,0,0,0,2.16-3.59,15.83,15.83,0,0,0,.81-5.4,22.4,22.4,0,0,0-.57-5.27,10.65,10.65,0,0,0-1.86-4,8.32,8.32,0,0,0-3.43-2.56,13.58,13.58,0,0,0-5.27-.9h-6v24.3Z"/><path class="cls-2" d="M2493.46,354.44,2507.88,393h-8.8l-2.92-8.58h-14.41l-3,8.58h-8.53l14.58-38.55Zm.49,23.65-4.86-14.15H2489l-5,14.15Z"/><path class="cls-2" d="M2655.27,354.44a12.54,12.54,0,0,1,4.67.83,10.81,10.81,0,0,1,3.57,2.3,10.12,10.12,0,0,1,2.27,3.37,10.88,10.88,0,0,1,.78,4.13,11.63,11.63,0,0,1-1.43,5.89,9,9,0,0,1-4.67,3.78v.11a6.68,6.68,0,0,1,2.59,1.32,7.46,7.46,0,0,1,1.67,2.11,9.62,9.62,0,0,1,1,2.67,22.27,22.27,0,0,1,.4,2.92c0,.61.07,1.33.11,2.16s.1,1.67.19,2.53a16.57,16.57,0,0,0,.43,2.46,5.77,5.77,0,0,0,.89,2h-8.48a15.24,15.24,0,0,1-.86-4.37q-.17-2.53-.48-4.86a7.72,7.72,0,0,0-1.84-4.43c-.94-.94-2.47-1.4-4.59-1.4H2643V393h-8.48V354.44Zm-3,17.44a6.37,6.37,0,0,0,4.37-1.3,5.38,5.38,0,0,0,1.46-4.21,5.16,5.16,0,0,0-1.46-4.08,6.53,6.53,0,0,0-4.37-1.27H2643v10.86Z"/></svg>