<svg id="Layer_1" data-name="Layer 1" xmlns="http://www.w3.org/2000/svg" viewBox="0 0 2218.13 1178.55"><defs><style>.cls-1{fill:#231f20;}</style></defs><title>PSP_logo-freestyle-MOBILE-06</title><path class="cls-1" d="M508.06,806.39a12.68,12.68,0,0,1,6.76-6.77,12.88,12.88,0,0,1,9.95,0,13.43,13.43,0,0,1,4.08,2.72,12.66,12.66,0,0,1,2.76,4,12.85,12.85,0,0,1,0,9.94,13,13,0,0,1-6.84,6.84,12.88,12.88,0,0,1-9.95,0,12.62,12.62,0,0,1-4-2.76,13.43,13.43,0,0,1-2.72-4.08,12.85,12.85,0,0,1,0-9.94Z"/><path class="cls-1" d="M508.06,1021.82a12.71,12.71,0,0,1,6.76-6.76,12.88,12.88,0,0,1,9.95,0,13.43,13.43,0,0,1,4.08,2.72,12.73,12.73,0,0,1,2.76,4,12.88,12.88,0,0,1,0,9.95,13,13,0,0,1-6.84,6.84,12.88,12.88,0,0,1-9.95,0,12.62,12.62,0,0,1-4-2.76,13.43,13.43,0,0,1-2.72-4.08,12.88,12.88,0,0,1,0-9.95Z"/><path class="cls-1" d="M508.06,345.06a12.71,12.71,0,0,1,6.76-6.76,12.88,12.88,0,0,1,9.95,0,13.25,13.25,0,0,1,4.08,2.72,12.75,12.75,0,0,1,2.76,14,12.93,12.93,0,0,1-6.84,6.83,12.88,12.88,0,0,1-9.95,0,12.59,12.59,0,0,1-4-2.75,13.43,13.43,0,0,1-2.72-4.08,12.88,12.88,0,0,1,0-9.95Z"/><path class="cls-1" d="M1211.41,590.83a12.89,12.89,0,0,1,2.72-4,12.72,12.72,0,0,1,4-2.72,12.88,12.88,0,0,1,9.95,0,13.25,13.25,0,0,1,4.08,2.72,12.76,12.76,0,0,1,2.75,14,12.87,12.87,0,0,1-6.83,6.83,12.67,12.67,0,0,1-14-2.75,13.43,13.43,0,0,1-2.72-4.08,12.88,12.88,0,0,1,0-9.95Z"/><path class="cls-1" d="M1448.41,806.27a12.71,12.71,0,0,1,6.76-6.76,12.88,12.88,0,0,1,9.95,0,13.25,13.25,0,0,1,4.08,2.72,12.75,12.75,0,0,1,2.76,14,12.93,12.93,0,0,1-6.84,6.83,12.88,12.88,0,0,1-9.95,0,12.59,12.59,0,0,1-4-2.75,13.43,13.43,0,0,1-2.72-4.08,12.88,12.88,0,0,1,0-10Z"/><path class="cls-1" d="M1448.41,127.8a12.71,12.71,0,0,1,6.76-6.76,12.88,12.88,0,0,1,9.95,0,13.25,13.25,0,0,1,4.08,2.72,12.75,12.75,0,0,1,2.76,14,13,13,0,0,1-2.76,4.08,12.82,12.82,0,0,1-4.08,2.75,12.67,12.67,0,0,1-14-2.75,13.43,13.43,0,0,1-2.72-4.08,12.88,12.88,0,0,1,0-10Z"/><path class="cls-1" d="M1682.86,591a12.71,12.71,0,0,1,6.76-6.76,12.88,12.88,0,0,1,10,0,13.43,13.43,0,0,1,4.08,2.72,12.51,12.51,0,0,1,3.76,9,12.57,12.57,0,0,1-1,5,13,13,0,0,1-6.84,6.84,12.88,12.88,0,0,1-10,0,12.62,12.62,0,0,1-4-2.76,13.43,13.43,0,0,1-2.72-4.08,12.88,12.88,0,0,1,0-10Z"/><path class="cls-1" d="M1916.1,127.8a12.71,12.71,0,0,1,6.76-6.76,12.88,12.88,0,0,1,10,0,13.25,13.25,0,0,1,4.08,2.72,12.75,12.75,0,0,1,2.76,14,13,13,0,0,1-2.76,4.08,12.82,12.82,0,0,1-4.08,2.75,12.67,12.67,0,0,1-14-2.75,13.43,13.43,0,0,1-2.72-4.08,12.88,12.88,0,0,1,0-10Z"/><path class="cls-1" d="M1916.1,345a12.68,12.68,0,0,1,6.76-6.77,12.88,12.88,0,0,1,10,0,13.43,13.43,0,0,1,4.08,2.72,12.75,12.75,0,0,1,2.76,14,13,13,0,0,1-6.84,6.84,12.88,12.88,0,0,1-10,0,12.62,12.62,0,0,1-4-2.76,13.43,13.43,0,0,1-2.72-4.08,12.85,12.85,0,0,1,0-9.94Z"/><path class="cls-1" d="M273.61,1021.82a13.12,13.12,0,0,1,2.72-4,12.94,12.94,0,0,1,4.05-2.72,12.85,12.85,0,0,1,9.94,0,13.43,13.43,0,0,1,4.08,2.72,12.73,12.73,0,0,1,2.76,4,12.88,12.88,0,0,1,0,9.95,13,13,0,0,1-6.84,6.84,12.85,12.85,0,0,1-9.94,0,12.55,12.55,0,0,1-4.05-2.76,13.43,13.43,0,0,1-2.72-4.08,12.88,12.88,0,0,1,0-9.95Z"/><path class="cls-1" d="M273.61,806.39a12.65,12.65,0,0,1,6.77-6.77,12.85,12.85,0,0,1,9.94,0,13.43,13.43,0,0,1,4.08,2.72,12.66,12.66,0,0,1,2.76,4,12.85,12.85,0,0,1,0,9.94,13,13,0,0,1-6.84,6.84,12.85,12.85,0,0,1-9.94,0,12.55,12.55,0,0,1-4.05-2.76,13.43,13.43,0,0,1-2.72-4.08,12.85,12.85,0,0,1,0-9.94Z"/><path class="cls-1" d="M273.61,343.3a12.65,12.65,0,0,1,6.77-6.77,12.85,12.85,0,0,1,9.94,0,13.43,13.43,0,0,1,4.08,2.72,12.66,12.66,0,0,1,2.76,4.05,12.88,12.88,0,0,1,0,9.95,13,13,0,0,1-6.84,6.83,12.85,12.85,0,0,1-9.94,0,12.55,12.55,0,0,1-4.05-2.76,13.38,13.38,0,0,1-2.72-4.07,12.88,12.88,0,0,1,0-9.95Z"/><path class="cls-1" d="M742.51,1021.82a12.71,12.71,0,0,1,6.76-6.76,12.88,12.88,0,0,1,10,0,13.43,13.43,0,0,1,4.08,2.72,12.51,12.51,0,0,1,3.76,9,12.57,12.57,0,0,1-1,5,13,13,0,0,1-6.84,6.84,12.88,12.88,0,0,1-10,0,12.62,12.62,0,0,1-4-2.76,13.43,13.43,0,0,1-2.72-4.08,12.88,12.88,0,0,1,0-9.95Z"/><path class="cls-1" d="M742.51,127.92a12.68,12.68,0,0,1,6.76-6.77,12.88,12.88,0,0,1,10,0,13.43,13.43,0,0,1,4.08,2.72,12.75,12.75,0,0,1,2.76,14,13,13,0,0,1-6.84,6.84,12.88,12.88,0,0,1-10,0,12.62,12.62,0,0,1-4-2.76,13.31,13.31,0,0,1-2.72-4.08,12.85,12.85,0,0,1,0-9.94Z"/><path class="cls-1" d="M742.51,806.39a12.68,12.68,0,0,1,6.76-6.77,12.88,12.88,0,0,1,10,0,13.43,13.43,0,0,1,4.08,2.72,12.75,12.75,0,0,1,2.76,14,13,13,0,0,1-6.84,6.84,12.88,12.88,0,0,1-10,0,12.62,12.62,0,0,1-4-2.76,13.43,13.43,0,0,1-2.72-4.08,12.85,12.85,0,0,1,0-9.94Z"/><path class="cls-1" d="M977,127.92a13.05,13.05,0,0,1,2.72-4,12.89,12.89,0,0,1,4-2.72,12.88,12.88,0,0,1,9.95,0,13.43,13.43,0,0,1,4.08,2.72,12.71,12.71,0,0,1,2.75,14,12.71,12.71,0,0,1-2.75,4.08,13,13,0,0,1-4.08,2.76,12.64,12.64,0,0,1-14-2.76,13.31,13.31,0,0,1-2.72-4.08,12.85,12.85,0,0,1,0-9.94Z"/><path class="cls-1" d="M977,591.06a12.89,12.89,0,0,1,2.72-4,12.72,12.72,0,0,1,4-2.72,12.88,12.88,0,0,1,9.95,0,13.25,13.25,0,0,1,4.08,2.72,12.71,12.71,0,0,1,2.75,14,12.87,12.87,0,0,1-6.83,6.83,12.67,12.67,0,0,1-14-2.75A13.43,13.43,0,0,1,977,601a12.88,12.88,0,0,1,0-10Z"/><path class="cls-1" d="M1211.41,1024.26a13.05,13.05,0,0,1,2.72-4,12.89,12.89,0,0,1,4-2.72,12.88,12.88,0,0,1,9.95,0,13.43,13.43,0,0,1,4.08,2.72,12.6,12.6,0,0,1,3.75,9,12.33,12.33,0,0,1-1,5,12.71,12.71,0,0,1-2.75,4.08,13,13,0,0,1-4.08,2.76,12.64,12.64,0,0,1-14-2.76,13.31,13.31,0,0,1-2.72-4.08,12.85,12.85,0,0,1,0-9.94Z"/><path class="cls-1" d="M1682.86,1024.43a12.71,12.71,0,0,1,6.76-6.76,12.88,12.88,0,0,1,10,0,13.25,13.25,0,0,1,4.08,2.72,12.75,12.75,0,0,1,2.76,14,12.93,12.93,0,0,1-6.84,6.83,12.88,12.88,0,0,1-10,0,12.59,12.59,0,0,1-4-2.75,13.43,13.43,0,0,1-2.72-4.08,12.88,12.88,0,0,1,0-10Z"/><path class="cls-1" d="M82.84,319.75v10.56H55.24v13.2H79.16v9.76H55.24v23.6H42.68V319.75Z"/><path class="cls-1" d="M291.59,567.51a18.54,18.54,0,0,1,6.92,1.24,16,16,0,0,1,5.28,3.4,15,15,0,0,1,3.36,5,16.14,16.14,0,0,1,1.16,6.12,17.2,17.2,0,0,1-2.12,8.72,13.31,13.31,0,0,1-6.92,5.6v.16a9.82,9.82,0,0,1,3.84,2,10.92,10.92,0,0,1,2.48,3.12,14.75,14.75,0,0,1,1.4,4,35.6,35.6,0,0,1,.6,4.32c.05.91.1,2,.16,3.2s.14,2.48.28,3.76a23.78,23.78,0,0,0,.64,3.64,8.26,8.26,0,0,0,1.32,2.92H297.43a21.89,21.89,0,0,1-1.28-6.48q-.24-3.75-.72-7.2-.65-4.47-2.72-6.56c-1.39-1.38-3.66-2.08-6.8-2.08H273.35v22.32H260.79V567.51Zm-4.48,25.84q4.32,0,6.48-1.92t2.16-6.24q0-4.16-2.16-6t-6.48-1.88H273.35v16.08Z"/><path class="cls-1" d="M1009.77,321.51v10.56H979.61v12.24h27.68v9.76H979.61v14h30.8v10.56H967.05V321.51Z"/><path class="cls-1" d="M775.32,567.51v10.56H745.16v12.24h27.68v9.76H745.16v14H776v10.56H732.6V567.51Z"/><path class="cls-1" d="M1212.34,825.8a9.28,9.28,0,0,0,2.76,3.24,12,12,0,0,0,4,1.84,19.13,19.13,0,0,0,4.8.6,24.55,24.55,0,0,0,3.6-.28,12.74,12.74,0,0,0,3.6-1.08,7.8,7.8,0,0,0,2.8-2.2,5.49,5.49,0,0,0,1.12-3.56,5,5,0,0,0-1.48-3.76,11.67,11.67,0,0,0-3.88-2.4,38.59,38.59,0,0,0-5.44-1.68c-2-.48-4.08-1-6.16-1.6a55.12,55.12,0,0,1-6.24-2,21.35,21.35,0,0,1-5.44-3,14.2,14.2,0,0,1-3.88-4.6,14.05,14.05,0,0,1-1.48-6.68,15,15,0,0,1,1.88-7.64,17.19,17.19,0,0,1,4.92-5.4,21.4,21.4,0,0,1,6.88-3.2,29.41,29.41,0,0,1,7.68-1,36.11,36.11,0,0,1,8.6,1,21.52,21.52,0,0,1,7.32,3.24,16.26,16.26,0,0,1,5.08,5.72,17.46,17.46,0,0,1,1.88,8.44h-12.16a9.89,9.89,0,0,0-1.08-4.24,7,7,0,0,0-2.44-2.64,10.33,10.33,0,0,0-3.48-1.36,21.11,21.11,0,0,0-4.28-.4,15,15,0,0,0-3,.32,8.19,8.19,0,0,0-2.76,1.12,7.07,7.07,0,0,0-2,2,5.39,5.39,0,0,0-.8,3,5.19,5.19,0,0,0,.64,2.72,5.8,5.8,0,0,0,2.52,1.92,32.54,32.54,0,0,0,5.2,1.76c2.22.59,5.11,1.33,8.68,2.24,1.07.21,2.55.6,4.44,1.16a21,21,0,0,1,5.64,2.68,17.08,17.08,0,0,1,4.84,4.92,14,14,0,0,1,2,7.88,17.36,17.36,0,0,1-1.52,7.28,15.81,15.81,0,0,1-4.52,5.8,21.74,21.74,0,0,1-7.44,3.8,35,35,0,0,1-10.28,1.36,36.28,36.28,0,0,1-9.16-1.16,23.07,23.07,0,0,1-7.84-3.64,18.09,18.09,0,0,1-5.4-6.32,18.94,18.94,0,0,1-1.92-9.12h12.16A10.51,10.51,0,0,0,1212.34,825.8Z"/><path class="cls-1" d="M1436.79,332.07V321.51h46.8v10.56h-17.12v46.56h-12.56V332.07Z"/><path class="cls-1" d="M1920.24,567.28v46.56h27.84V624.4h-40.41V567.28Z"/><path class="cls-1" d="M1667.27,782.72h14.08l13.36,22.56L1708,782.72h14l-21.2,35.2v21.92h-12.56V817.6Z"/><path class="cls-1" d="M2172.76,320.5v10.56H2142.6V343.3h27.68v9.76H2142.6v14h30.8v10.56H2130V320.5Z"/><path class="cls-1" d="M51,1021.82a12.71,12.71,0,0,1,6.76-6.76,12.88,12.88,0,0,1,10,0,13.43,13.43,0,0,1,4.08,2.72,12.51,12.51,0,0,1,3.76,9,12.57,12.57,0,0,1-1,5,13,13,0,0,1-6.84,6.84,12.88,12.88,0,0,1-10,0,12.62,12.62,0,0,1-4-2.76,13.43,13.43,0,0,1-2.72-4.08,12.88,12.88,0,0,1,0-9.95Z"/><path class="cls-1" d="M51,591.06a12.71,12.71,0,0,1,6.76-6.76,12.88,12.88,0,0,1,10,0A13.25,13.25,0,0,1,71.78,587a12.75,12.75,0,0,1,2.76,14,13,13,0,0,1-2.76,4.08,12.82,12.82,0,0,1-4.08,2.75,12.67,12.67,0,0,1-14-2.75A13.43,13.43,0,0,1,51,601a12.88,12.88,0,0,1,0-10Z"/><path class="cls-1" d="M51,127.86a13.05,13.05,0,0,1,2.72-4,12.81,12.81,0,0,1,4-2.71,12.76,12.76,0,0,1,10,0,13.22,13.22,0,0,1,4.08,2.71,12.76,12.76,0,0,1,2.76,14,13,13,0,0,1-2.76,4.08,13.16,13.16,0,0,1-4.08,2.75,12.88,12.88,0,0,1-10,0,12.75,12.75,0,0,1-4-2.75A13.43,13.43,0,0,1,51,137.81a12.88,12.88,0,0,1,0-10Z"/><path class="cls-1" d="M2140.09,806.39a13.05,13.05,0,0,1,2.72-4,12.89,12.89,0,0,1,4-2.72,12.88,12.88,0,0,1,10,0,13.43,13.43,0,0,1,4.08,2.72,12.71,12.71,0,0,1,2.75,14,12.82,12.82,0,0,1-2.75,4.08,13,13,0,0,1-4.08,2.76,12.64,12.64,0,0,1-14-2.76,13.43,13.43,0,0,1-2.72-4.08,12.85,12.85,0,0,1,0-9.94Z"/><path class="cls-1" d="M1916.1,1024.26a12.68,12.68,0,0,1,6.76-6.77,12.88,12.88,0,0,1,10,0,13.43,13.43,0,0,1,4.08,2.72,12.56,12.56,0,0,1,3.76,9,12.5,12.5,0,0,1-1,5,13,13,0,0,1-6.84,6.84,12.88,12.88,0,0,1-10,0,12.62,12.62,0,0,1-4-2.76,13.31,13.31,0,0,1-2.72-4.08,12.85,12.85,0,0,1,0-9.94Z"/><path class="cls-1" d="M2140.09,591.06a12.89,12.89,0,0,1,2.72-4,12.72,12.72,0,0,1,4-2.72,12.88,12.88,0,0,1,10,0,13.25,13.25,0,0,1,4.08,2.72,12.71,12.71,0,0,1,2.75,14,12.87,12.87,0,0,1-6.83,6.83,12.67,12.67,0,0,1-14-2.75,13.43,13.43,0,0,1-2.72-4.08,12.88,12.88,0,0,1,0-10Z"/></svg>