<svg id="Layer_1" data-name="Layer 1" xmlns="http://www.w3.org/2000/svg" viewBox="0 0 2408.58 1178.55"><defs><style>.cls-1{fill:#231f20;}</style></defs><title>PSP_logo-custom-MOBILE-07</title><path class="cls-1" d="M318,1055.21a12.71,12.71,0,0,1,6.76-6.76,12.88,12.88,0,0,1,9.95,0,13.43,13.43,0,0,1,4.08,2.72,12.73,12.73,0,0,1,2.76,4,12.88,12.88,0,0,1,0,10,13,13,0,0,1-6.84,6.84,12.88,12.88,0,0,1-9.95,0,12.62,12.62,0,0,1-4-2.76,13.43,13.43,0,0,1-2.72-4.08,12.88,12.88,0,0,1,0-10Z"/><path class="cls-1" d="M318,346.46a12.71,12.71,0,0,1,6.76-6.76,12.88,12.88,0,0,1,9.95,0,13.25,13.25,0,0,1,4.08,2.72,12.75,12.75,0,0,1,2.76,14,12.93,12.93,0,0,1-6.84,6.83,12.88,12.88,0,0,1-9.95,0,12.59,12.59,0,0,1-4-2.75,13.43,13.43,0,0,1-2.72-4.08,12.88,12.88,0,0,1,0-10Z"/><path class="cls-1" d="M318,563.6a12.71,12.71,0,0,1,6.76-6.76,12.88,12.88,0,0,1,9.95,0,13.43,13.43,0,0,1,4.08,2.72,12.62,12.62,0,0,1,2.76,4,12.88,12.88,0,0,1,0,9.95,13,13,0,0,1-6.84,6.84,12.64,12.64,0,0,1-14-2.76,13.43,13.43,0,0,1-2.72-4.08,12.88,12.88,0,0,1,0-9.95Z"/><path class="cls-1" d="M318,810a12.71,12.71,0,0,1,6.76-6.76,12.88,12.88,0,0,1,9.95,0,13.25,13.25,0,0,1,4.08,2.72,12.75,12.75,0,0,1,2.76,14,12.93,12.93,0,0,1-6.84,6.83,12.88,12.88,0,0,1-9.95,0,12.59,12.59,0,0,1-4-2.75A13.43,13.43,0,0,1,318,820a12.88,12.88,0,0,1,0-10Z"/><path class="cls-1" d="M1021.35,346.35a13.05,13.05,0,0,1,2.72-4.05,12.89,12.89,0,0,1,4-2.72,12.88,12.88,0,0,1,10,0,13.43,13.43,0,0,1,4.08,2.72,12.71,12.71,0,0,1,2.75,14,12.82,12.82,0,0,1-2.75,4.08,13,13,0,0,1-4.08,2.76,12.64,12.64,0,0,1-14-2.76,13.43,13.43,0,0,1-2.72-4.08,12.85,12.85,0,0,1,0-9.94Z"/><path class="cls-1" d="M1021.35,563.49a13.05,13.05,0,0,1,2.72-4,12.7,12.7,0,0,1,4-2.71,12.76,12.76,0,0,1,10,0,13.22,13.22,0,0,1,4.08,2.71,12.73,12.73,0,0,1,2.75,14,12.82,12.82,0,0,1-2.75,4.08,13.16,13.16,0,0,1-4.08,2.75,12.88,12.88,0,0,1-10,0,12.64,12.64,0,0,1-4-2.75,13.43,13.43,0,0,1-2.72-4.08,12.88,12.88,0,0,1,0-10Z"/><path class="cls-1" d="M1255.8,346.35a12.68,12.68,0,0,1,6.76-6.77,12.88,12.88,0,0,1,10,0,13.43,13.43,0,0,1,4.08,2.72,12.76,12.76,0,0,1,2.75,14,12.82,12.82,0,0,1-2.75,4.08,13,13,0,0,1-4.08,2.76,12.64,12.64,0,0,1-14-2.76,13.25,13.25,0,0,1-2.72-4.08,12.85,12.85,0,0,1,0-9.94Z"/><path class="cls-1" d="M1255.8,563.49a12.88,12.88,0,0,1,2.72-4,12.7,12.7,0,0,1,4-2.71,12.76,12.76,0,0,1,10,0,13.22,13.22,0,0,1,4.08,2.71,12.78,12.78,0,0,1,2.75,14,12.82,12.82,0,0,1-2.75,4.08,13.16,13.16,0,0,1-4.08,2.75,12.88,12.88,0,0,1-10,0,12.64,12.64,0,0,1-4-2.75,13.25,13.25,0,0,1-2.72-4.08,12.88,12.88,0,0,1,0-10Z"/><path class="cls-1" d="M1490.25,346.35a12.71,12.71,0,0,1,2.72-4.05,12.89,12.89,0,0,1,4-2.72,12.88,12.88,0,0,1,10,0,13.43,13.43,0,0,1,4.08,2.72,12.63,12.63,0,0,1,2.75,4.05,12.85,12.85,0,0,1,0,9.94,12.93,12.93,0,0,1-6.83,6.84,12.64,12.64,0,0,1-14-2.76,13.07,13.07,0,0,1-2.72-4.08,12.85,12.85,0,0,1,0-9.94Z"/><path class="cls-1" d="M1724.7,563.49a12.62,12.62,0,0,1,6.76-6.76,12.76,12.76,0,0,1,10,0,13.22,13.22,0,0,1,4.08,2.71,12.8,12.8,0,0,1,2.75,4,12.88,12.88,0,0,1,0,10,12.87,12.87,0,0,1-6.83,6.83,12.88,12.88,0,0,1-10,0,12.64,12.64,0,0,1-4-2.75,13.07,13.07,0,0,1-2.72-4.08,12.88,12.88,0,0,1,0-10Z"/><path class="cls-1" d="M83.56,1055.21a12.62,12.62,0,0,1,6.76-6.76,12.85,12.85,0,0,1,9.94,0,13.43,13.43,0,0,1,4.08,2.72,12.73,12.73,0,0,1,2.76,4,12.88,12.88,0,0,1,0,10,13,13,0,0,1-6.84,6.84,12.85,12.85,0,0,1-9.94,0,12.55,12.55,0,0,1-4-2.76,13.22,13.22,0,0,1-2.71-4.08,12.76,12.76,0,0,1,0-10Z"/><path class="cls-1" d="M83.56,810a12.62,12.62,0,0,1,6.76-6.76,12.85,12.85,0,0,1,9.94,0,13.25,13.25,0,0,1,4.08,2.72,12.75,12.75,0,0,1,2.76,14,12.93,12.93,0,0,1-6.84,6.83,12.85,12.85,0,0,1-9.94,0,12.52,12.52,0,0,1-4-2.75A13.22,13.22,0,0,1,83.56,820a12.76,12.76,0,0,1,0-10Z"/><path class="cls-1" d="M83.56,346.4a12.62,12.62,0,0,1,6.76-6.76,12.85,12.85,0,0,1,9.94,0,13.25,13.25,0,0,1,4.08,2.72,12.75,12.75,0,0,1,2.76,14,13,13,0,0,1-6.84,6.84,12.66,12.66,0,0,1-14-2.76,13.22,13.22,0,0,1-2.71-4.08,12.76,12.76,0,0,1,0-10Z"/><path class="cls-1" d="M83.56,561.84a12.62,12.62,0,0,1,6.76-6.76,12.85,12.85,0,0,1,9.94,0,13.25,13.25,0,0,1,4.08,2.72,12.75,12.75,0,0,1,2.76,14,13,13,0,0,1-2.76,4.08,12.82,12.82,0,0,1-4.08,2.75,12.69,12.69,0,0,1-14-2.75,13.22,13.22,0,0,1-2.71-4.08,12.76,12.76,0,0,1,0-9.95Z"/><path class="cls-1" d="M1959.15,346.4a12.56,12.56,0,0,1,2.72-4,12.72,12.72,0,0,1,4-2.72,12.85,12.85,0,0,1,9.94,0,13.18,13.18,0,0,1,4.09,2.72,12.64,12.64,0,0,1,2.75,4,12.88,12.88,0,0,1,0,10,13.16,13.16,0,0,1-2.75,4.08,13,13,0,0,1-4.09,2.76,12.63,12.63,0,0,1-14-2.76,13.07,13.07,0,0,1-2.72-4.08,12.76,12.76,0,0,1,0-10Z"/><path class="cls-1" d="M1959.15,561.84a12.56,12.56,0,0,1,2.72-4,12.72,12.72,0,0,1,4-2.72,12.85,12.85,0,0,1,9.94,0,13.18,13.18,0,0,1,4.09,2.72,12.64,12.64,0,0,1,2.75,4,12.88,12.88,0,0,1,0,9.95,13.16,13.16,0,0,1-2.75,4.08,12.75,12.75,0,0,1-4.09,2.75,12.66,12.66,0,0,1-14-2.75,13.07,13.07,0,0,1-2.72-4.08,12.76,12.76,0,0,1,0-9.95Z"/><path class="cls-1" d="M2184.69,810a12.56,12.56,0,0,1,2.72-4,12.72,12.72,0,0,1,4-2.72,12.88,12.88,0,0,1,10,0,13.25,13.25,0,0,1,4.08,2.72,12.64,12.64,0,0,1,2.75,4,12.88,12.88,0,0,1,0,10,13.16,13.16,0,0,1-2.75,4.08,13,13,0,0,1-4.08,2.75,12.67,12.67,0,0,1-14-2.75,13.07,13.07,0,0,1-2.72-4.08,12.88,12.88,0,0,1,0-10Z"/><path class="cls-1" d="M2184.69,346.4a12.56,12.56,0,0,1,2.72-4,12.72,12.72,0,0,1,4-2.72,12.88,12.88,0,0,1,10,0,13.25,13.25,0,0,1,4.08,2.72,12.64,12.64,0,0,1,2.75,4,12.88,12.88,0,0,1,0,10,13.16,13.16,0,0,1-2.75,4.08,13,13,0,0,1-4.08,2.76,12.64,12.64,0,0,1-14-2.76,13.07,13.07,0,0,1-2.72-4.08,12.88,12.88,0,0,1,0-10Z"/><path class="cls-1" d="M2184.69,561.84a12.56,12.56,0,0,1,2.72-4,12.72,12.72,0,0,1,4-2.72,12.88,12.88,0,0,1,10,0,13.25,13.25,0,0,1,4.08,2.72,12.64,12.64,0,0,1,2.75,4,12.88,12.88,0,0,1,0,9.95,13.16,13.16,0,0,1-2.75,4.08,12.82,12.82,0,0,1-4.08,2.75,12.67,12.67,0,0,1-14-2.75,13.07,13.07,0,0,1-2.72-4.08,12.88,12.88,0,0,1,0-9.95Z"/><path class="cls-1" d="M552.45,1055.21a12.71,12.71,0,0,1,6.76-6.76,12.88,12.88,0,0,1,9.95,0,13.43,13.43,0,0,1,4.08,2.72,12.51,12.51,0,0,1,3.76,9,12.57,12.57,0,0,1-1,5,13,13,0,0,1-6.84,6.84,12.88,12.88,0,0,1-9.95,0,12.62,12.62,0,0,1-4-2.76,13.43,13.43,0,0,1-2.72-4.08,12.88,12.88,0,0,1,0-10Z"/><path class="cls-1" d="M552.45,563.6a12.71,12.71,0,0,1,6.76-6.76,12.88,12.88,0,0,1,9.95,0,13.43,13.43,0,0,1,4.08,2.72,12.75,12.75,0,0,1,2.76,14,13,13,0,0,1-6.84,6.84,12.64,12.64,0,0,1-14-2.76,13.43,13.43,0,0,1-2.72-4.08,12.88,12.88,0,0,1,0-9.95Z"/><path class="cls-1" d="M318,100.34a12.68,12.68,0,0,1,6.76-6.77,12.88,12.88,0,0,1,9.95,0,13.43,13.43,0,0,1,4.08,2.72,12.66,12.66,0,0,1,2.76,4,12.85,12.85,0,0,1,0,9.94,13,13,0,0,1-6.84,6.84,12.88,12.88,0,0,1-9.95,0,12.62,12.62,0,0,1-4-2.76,13.31,13.31,0,0,1-2.72-4.08,12.85,12.85,0,0,1,0-9.94Z"/><path class="cls-1" d="M1021.35,100.22a12.89,12.89,0,0,1,2.72-4,12.72,12.72,0,0,1,4-2.72,12.88,12.88,0,0,1,10,0,13.25,13.25,0,0,1,4.08,2.72,12.71,12.71,0,0,1,2.75,14,12.87,12.87,0,0,1-6.83,6.83,12.67,12.67,0,0,1-14-2.75,13.43,13.43,0,0,1-2.72-4.08,12.88,12.88,0,0,1,0-10Z"/><path class="cls-1" d="M1255.8,100.22a12.71,12.71,0,0,1,6.76-6.76,12.88,12.88,0,0,1,10,0,13.25,13.25,0,0,1,4.08,2.72,12.76,12.76,0,0,1,2.75,14,12.87,12.87,0,0,1-6.83,6.83,12.67,12.67,0,0,1-14-2.75,13.25,13.25,0,0,1-2.72-4.08,12.88,12.88,0,0,1,0-10Z"/><path class="cls-1" d="M1490.25,100.22a12.56,12.56,0,0,1,2.72-4,12.72,12.72,0,0,1,4-2.72,12.88,12.88,0,0,1,10,0,13.25,13.25,0,0,1,4.08,2.72,12.76,12.76,0,0,1,2.75,14,13,13,0,0,1-2.75,4.08A12.82,12.82,0,0,1,1507,117a12.67,12.67,0,0,1-14-2.75,13.07,13.07,0,0,1-2.72-4.08,12.88,12.88,0,0,1,0-10Z"/><path class="cls-1" d="M1724.7,100.22a12.56,12.56,0,0,1,2.72-4,12.72,12.72,0,0,1,4-2.72,12.88,12.88,0,0,1,10,0,13.25,13.25,0,0,1,4.08,2.72,12.64,12.64,0,0,1,2.75,4,12.88,12.88,0,0,1,0,10,13.16,13.16,0,0,1-2.75,4.08,12.82,12.82,0,0,1-4.08,2.75,12.67,12.67,0,0,1-14-2.75,13.07,13.07,0,0,1-2.72-4.08,12.88,12.88,0,0,1,0-10Z"/><path class="cls-1" d="M83.56,100.34a12.59,12.59,0,0,1,6.76-6.77,12.85,12.85,0,0,1,9.94,0,13.43,13.43,0,0,1,4.08,2.72,12.66,12.66,0,0,1,2.76,4,12.85,12.85,0,0,1,0,9.94,13,13,0,0,1-6.84,6.84,12.85,12.85,0,0,1-9.94,0,12.55,12.55,0,0,1-4-2.76,13.1,13.1,0,0,1-2.71-4.08,12.73,12.73,0,0,1,0-9.94Z"/><path class="cls-1" d="M1959.15,100.34a12.71,12.71,0,0,1,2.72-4,12.89,12.89,0,0,1,4-2.72,12.85,12.85,0,0,1,9.94,0,13.35,13.35,0,0,1,4.09,2.72,12.8,12.8,0,0,1,2.75,4,12.85,12.85,0,0,1,0,9.94,12.91,12.91,0,0,1-6.84,6.84,12.85,12.85,0,0,1-9.94,0,12.51,12.51,0,0,1-4-2.76,13,13,0,0,1-2.72-4.08,12.73,12.73,0,0,1,0-9.94Z"/><path class="cls-1" d="M2184.69,100.34a12.71,12.71,0,0,1,2.72-4,12.89,12.89,0,0,1,4-2.72,12.88,12.88,0,0,1,10,0,13.43,13.43,0,0,1,4.08,2.72,12.8,12.8,0,0,1,2.75,4,12.85,12.85,0,0,1,0,9.94,12.93,12.93,0,0,1-6.83,6.84,12.64,12.64,0,0,1-14-2.76,13,13,0,0,1-2.72-4.08,12.85,12.85,0,0,1,0-9.94Z"/><path class="cls-1" d="M552.45,100.34a12.68,12.68,0,0,1,6.76-6.77,12.88,12.88,0,0,1,9.95,0,13.43,13.43,0,0,1,4.08,2.72,12.56,12.56,0,0,1,3.76,9,12.5,12.5,0,0,1-1,5,13,13,0,0,1-6.84,6.84,12.88,12.88,0,0,1-9.95,0,12.62,12.62,0,0,1-4-2.76,13.31,13.31,0,0,1-2.72-4.08,12.85,12.85,0,0,1,0-9.94Z"/><path class="cls-1" d="M786.9,100.34a13.05,13.05,0,0,1,2.72-4,12.89,12.89,0,0,1,4-2.72,12.88,12.88,0,0,1,10,0,13.43,13.43,0,0,1,4.08,2.72,12.67,12.67,0,0,1,3.76,9,12.34,12.34,0,0,1-1,5,12.71,12.71,0,0,1-2.75,4.08,13,13,0,0,1-4.08,2.76,12.64,12.64,0,0,1-14-2.76,13.31,13.31,0,0,1-2.72-4.08,12.85,12.85,0,0,1,0-9.94Z"/><path class="cls-1" d="M786.9,1055.21a13.12,13.12,0,0,1,2.72-4,12.89,12.89,0,0,1,4-2.72,12.88,12.88,0,0,1,10,0,13.43,13.43,0,0,1,4.08,2.72,12.62,12.62,0,0,1,3.76,9,12.41,12.41,0,0,1-1,5,12.82,12.82,0,0,1-2.75,4.08,13,13,0,0,1-4.08,2.76,12.64,12.64,0,0,1-14-2.76,13.43,13.43,0,0,1-2.72-4.08,12.88,12.88,0,0,1,0-10Z"/><path class="cls-1" d="M786.9,346.46a12.89,12.89,0,0,1,2.72-4,12.72,12.72,0,0,1,4-2.72,12.88,12.88,0,0,1,10,0,13.25,13.25,0,0,1,4.08,2.72,12.71,12.71,0,0,1,2.75,14,12.82,12.82,0,0,1-2.75,4.08,13,13,0,0,1-4.08,2.75,12.67,12.67,0,0,1-14-2.75,13.43,13.43,0,0,1-2.72-4.08,12.88,12.88,0,0,1,0-10Z"/><path class="cls-1" d="M1959.15,810a12.56,12.56,0,0,1,2.72-4,12.72,12.72,0,0,1,4-2.72,12.85,12.85,0,0,1,9.94,0,13.18,13.18,0,0,1,4.09,2.72,12.64,12.64,0,0,1,2.75,4,12.88,12.88,0,0,1,0,10,13.16,13.16,0,0,1-2.75,4.08,12.92,12.92,0,0,1-4.09,2.75,12.85,12.85,0,0,1-9.94,0,12.48,12.48,0,0,1-4-2.75,13.07,13.07,0,0,1-2.72-4.08,12.76,12.76,0,0,1,0-10Z"/><path class="cls-1" d="M1715.79,810a12.89,12.89,0,0,1,2.72-4,12.72,12.72,0,0,1,4-2.72,12.88,12.88,0,0,1,10,0,13.25,13.25,0,0,1,4.08,2.72,12.76,12.76,0,0,1,2.75,14,12.82,12.82,0,0,1-2.75,4.08,13,13,0,0,1-4.08,2.75,12.67,12.67,0,0,1-14-2.75,13.43,13.43,0,0,1-2.72-4.08,12.88,12.88,0,0,1,0-10Z"/><path class="cls-1" d="M1490.25,810a12.56,12.56,0,0,1,2.72-4,12.72,12.72,0,0,1,4-2.72,12.88,12.88,0,0,1,10,0A13.25,13.25,0,0,1,1511,806a12.76,12.76,0,0,1,2.75,14,12.87,12.87,0,0,1-6.83,6.83,12.67,12.67,0,0,1-14-2.75,13.07,13.07,0,0,1-2.72-4.08,12.88,12.88,0,0,1,0-10Z"/><path class="cls-1" d="M2184.69,1055.21a12.71,12.71,0,0,1,6.76-6.76,12.88,12.88,0,0,1,10,0,13.43,13.43,0,0,1,4.08,2.72,12.86,12.86,0,0,1,2.75,4,12.88,12.88,0,0,1,0,10,13.16,13.16,0,0,1-2.75,4.08,13,13,0,0,1-4.08,2.76,12.64,12.64,0,0,1-14-2.76,13.07,13.07,0,0,1-2.72-4.08,12.88,12.88,0,0,1,0-10Z"/><path class="cls-1" d="M1959.15,1055.21a12.71,12.71,0,0,1,6.76-6.76,12.85,12.85,0,0,1,9.94,0,13.35,13.35,0,0,1,4.09,2.72,12.86,12.86,0,0,1,2.75,4,12.88,12.88,0,0,1,0,10,13.16,13.16,0,0,1-2.75,4.08,13,13,0,0,1-4.09,2.76,12.85,12.85,0,0,1-9.94,0,12.51,12.51,0,0,1-4-2.76,13.07,13.07,0,0,1-2.72-4.08,12.76,12.76,0,0,1,0-10Z"/><path class="cls-1" d="M1715.79,1055.21a13.12,13.12,0,0,1,2.72-4,12.89,12.89,0,0,1,4-2.72,12.88,12.88,0,0,1,10,0,13.43,13.43,0,0,1,4.08,2.72,12.56,12.56,0,0,1,3.75,9,12.4,12.4,0,0,1-1,5,12.82,12.82,0,0,1-2.75,4.08,13,13,0,0,1-4.08,2.76,12.64,12.64,0,0,1-14-2.76,13.43,13.43,0,0,1-2.72-4.08,12.88,12.88,0,0,1,0-10Z"/><path class="cls-1" d="M1490.25,1055.21a12.71,12.71,0,0,1,6.76-6.76,12.88,12.88,0,0,1,10,0,13.43,13.43,0,0,1,4.08,2.72,12.7,12.7,0,0,1,2.75,4,12.88,12.88,0,0,1,0,10A12.93,12.93,0,0,1,1507,1072a12.64,12.64,0,0,1-14-2.76,13.07,13.07,0,0,1-2.72-4.08,12.88,12.88,0,0,1,0-10Z"/><path class="cls-1" d="M1246.89,1055.21a12.71,12.71,0,0,1,6.76-6.76,12.88,12.88,0,0,1,9.95,0,13.43,13.43,0,0,1,4.08,2.72,12.51,12.51,0,0,1,3.76,9,12.57,12.57,0,0,1-1,5,13,13,0,0,1-6.84,6.84,12.88,12.88,0,0,1-9.95,0,12.62,12.62,0,0,1-4-2.76,13.43,13.43,0,0,1-2.72-4.08,12.88,12.88,0,0,1,0-10Z"/><path class="cls-1" d="M1021.35,1055.21a13.12,13.12,0,0,1,2.72-4,12.89,12.89,0,0,1,4-2.72,12.88,12.88,0,0,1,10,0,13.43,13.43,0,0,1,4.08,2.72,12.62,12.62,0,0,1,3.76,9,12.41,12.41,0,0,1-1,5,12.82,12.82,0,0,1-2.75,4.08,13,13,0,0,1-4.08,2.76,12.64,12.64,0,0,1-14-2.76,13.43,13.43,0,0,1-2.72-4.08,12.88,12.88,0,0,1,0-10Z"/><path class="cls-1" d="M552.45,810a12.71,12.71,0,0,1,6.76-6.76,12.88,12.88,0,0,1,9.95,0,13.25,13.25,0,0,1,4.08,2.72A12.75,12.75,0,0,1,576,820a12.93,12.93,0,0,1-6.84,6.83,12.88,12.88,0,0,1-9.95,0,12.59,12.59,0,0,1-4-2.75,13.43,13.43,0,0,1-2.72-4.08,12.88,12.88,0,0,1,0-10Z"/><path class="cls-1" d="M786.9,810a12.89,12.89,0,0,1,2.72-4,12.72,12.72,0,0,1,4-2.72,12.88,12.88,0,0,1,10,0,13.25,13.25,0,0,1,4.08,2.72,12.71,12.71,0,0,1,2.75,14,12.82,12.82,0,0,1-2.75,4.08,13,13,0,0,1-4.08,2.75,12.67,12.67,0,0,1-14-2.75A13.43,13.43,0,0,1,786.9,820a12.88,12.88,0,0,1,0-10Z"/><path class="cls-1" d="M576.74,338.19a12.55,12.55,0,0,0-2.8-3.16,13.11,13.11,0,0,0-8.24-2.88,14.73,14.73,0,0,0-7.2,1.64,13.62,13.62,0,0,0-4.8,4.4,19.39,19.39,0,0,0-2.68,6.28,31.26,31.26,0,0,0-.84,7.28,29.1,29.1,0,0,0,.84,7,19,19,0,0,0,2.68,6.12,13.79,13.79,0,0,0,4.8,4.36,14.73,14.73,0,0,0,7.2,1.64q5.76,0,9-3.52a16.29,16.29,0,0,0,4-9.28h12.16a28.9,28.9,0,0,1-2.48,9.68,23.12,23.12,0,0,1-5.28,7.36,22.32,22.32,0,0,1-7.68,4.64,28,28,0,0,1-9.68,1.6,29.32,29.32,0,0,1-11.8-2.28,25.27,25.27,0,0,1-8.84-6.28,27.83,27.83,0,0,1-5.52-9.4,34.5,34.5,0,0,1-1.92-11.64,35.66,35.66,0,0,1,1.92-11.88,28.57,28.57,0,0,1,5.52-9.56,25.31,25.31,0,0,1,8.84-6.4,30.63,30.63,0,0,1,20.72-1,24.25,24.25,0,0,1,7.52,4,21.27,21.27,0,0,1,5.48,6.44,23,23,0,0,1,2.72,8.8H578.18A10.15,10.15,0,0,0,576.74,338.19Z"/><path class="cls-1" d="M816.55,592.17q-6.48,5.64-17.92,5.64-11.6,0-18-5.6t-6.36-17.28V539.41h12.56v35.52a26.48,26.48,0,0,0,.4,4.56,8.87,8.87,0,0,0,5.24,6.76,14.47,14.47,0,0,0,6.12,1.08q6.72,0,9.28-3t2.56-9.4V539.41H823v35.52Q823,586.54,816.55,592.17Z"/><path class="cls-1" d="M1022.28,829.53a9.28,9.28,0,0,0,2.76,3.24,12,12,0,0,0,4,1.84,19.13,19.13,0,0,0,4.8.6,24.55,24.55,0,0,0,3.6-.28,12.74,12.74,0,0,0,3.6-1.08,7.8,7.8,0,0,0,2.8-2.2,5.49,5.49,0,0,0,1.12-3.56,5,5,0,0,0-1.48-3.76,11.67,11.67,0,0,0-3.88-2.4,38.59,38.59,0,0,0-5.44-1.68c-2-.48-4.08-1-6.16-1.6a55.12,55.12,0,0,1-6.24-2,21.35,21.35,0,0,1-5.44-3,14.2,14.2,0,0,1-3.88-4.6,14.05,14.05,0,0,1-1.48-6.68,15,15,0,0,1,1.88-7.64,17.19,17.19,0,0,1,4.92-5.4,21.4,21.4,0,0,1,6.88-3.2,29.41,29.41,0,0,1,7.68-1,36.11,36.11,0,0,1,8.6,1,21.52,21.52,0,0,1,7.32,3.24,16.26,16.26,0,0,1,5.08,5.72,17.46,17.46,0,0,1,1.88,8.44h-12.16a9.89,9.89,0,0,0-1.08-4.24,7,7,0,0,0-2.44-2.64,10.33,10.33,0,0,0-3.48-1.36,21.11,21.11,0,0,0-4.28-.4,15,15,0,0,0-3,.32,8.19,8.19,0,0,0-2.76,1.12,7.07,7.07,0,0,0-2,2,5.39,5.39,0,0,0-.8,3,5.19,5.19,0,0,0,.64,2.72,5.8,5.8,0,0,0,2.52,1.92,32.54,32.54,0,0,0,5.2,1.76c2.22.59,5.11,1.33,8.68,2.24,1.07.21,2.55.6,4.44,1.16a21,21,0,0,1,5.64,2.68,17.08,17.08,0,0,1,4.84,4.92,14,14,0,0,1,2,7.88,17.36,17.36,0,0,1-1.52,7.28,15.81,15.81,0,0,1-4.52,5.8,21.74,21.74,0,0,1-7.44,3.8,35,35,0,0,1-10.28,1.36,36.28,36.28,0,0,1-9.16-1.16,23.07,23.07,0,0,1-7.84-3.64,18.09,18.09,0,0,1-5.4-6.32,18.94,18.94,0,0,1-1.92-9.12h12.16A10.51,10.51,0,0,0,1022.28,829.53Z"/><path class="cls-1" d="M1244.17,797V786.45H1291V797h-17.12v46.56h-12.56V797Z"/><path class="cls-1" d="M1475.86,556.9a28.57,28.57,0,0,1,5.52-9.56,25.31,25.31,0,0,1,8.84-6.4,31.27,31.27,0,0,1,23.64,0,25.34,25.34,0,0,1,8.8,6.4,28.57,28.57,0,0,1,5.52,9.56,35.66,35.66,0,0,1,1.92,11.88,34.5,34.5,0,0,1-1.92,11.64,27.83,27.83,0,0,1-5.52,9.4,25.3,25.3,0,0,1-8.8,6.28,31.78,31.78,0,0,1-23.64,0,25.27,25.27,0,0,1-8.84-6.28,27.83,27.83,0,0,1-5.52-9.4,34.5,34.5,0,0,1-1.92-11.64A35.66,35.66,0,0,1,1475.86,556.9Zm11.48,18.88a18.78,18.78,0,0,0,2.68,6.12,13.79,13.79,0,0,0,4.8,4.36,16.62,16.62,0,0,0,14.4,0,13.79,13.79,0,0,0,4.8-4.36,18.78,18.78,0,0,0,2.68-6.12,29.1,29.1,0,0,0,.84-7,31.26,31.26,0,0,0-.84-7.28,19.18,19.18,0,0,0-2.68-6.28,13.62,13.62,0,0,0-4.8-4.4,16.62,16.62,0,0,0-14.4,0,13.62,13.62,0,0,0-4.8,4.4,19.18,19.18,0,0,0-2.68,6.28,31.26,31.26,0,0,0-.84,7.28A29.1,29.1,0,0,0,1487.34,575.78Z"/><path class="cls-1" d="M1723.39,322.8l13.36,39.28h.16l12.64-39.28h17.68v57.12h-11.76V339.43h-.16l-14,40.49h-9.68l-14-40.08h-.16v40.08h-11.76V322.8Z"/></svg>