<svg id="Layer_1" data-name="Layer 1" xmlns="http://www.w3.org/2000/svg" viewBox="0 0 4476.81 615.16"><defs><style>.cls-1{fill:#fff;}.cls-2{fill:#fdee00;}</style></defs><title>PSP_logo-web-navigation</title><path class="cls-1" d="M194.07,531.88a8.73,8.73,0,0,1,1.87-2.78,8.83,8.83,0,0,1,2.78-1.87,8.82,8.82,0,0,1,6.84,0,9.33,9.33,0,0,1,2.81,1.87,8.78,8.78,0,0,1,1.89,2.78,8.85,8.85,0,0,1,0,6.85,8.81,8.81,0,0,1-4.7,4.7,8.72,8.72,0,0,1-9.62-1.89,9,9,0,0,1-1.87-2.81,8.85,8.85,0,0,1,0-6.85Z"/><path class="cls-1" d="M356.69,531.88a8.72,8.72,0,0,1,4.65-4.65,8.82,8.82,0,0,1,6.84,0A9.21,9.21,0,0,1,371,529.1a8.77,8.77,0,0,1,1.9,9.63,8.88,8.88,0,0,1-4.71,4.7,8.82,8.82,0,0,1-6.84,0,8.67,8.67,0,0,1-2.78-1.89,9.15,9.15,0,0,1-1.87-2.81,8.85,8.85,0,0,1,0-6.85Z"/><path class="cls-1" d="M518.74,531.88a8.72,8.72,0,0,1,4.65-4.65,8.85,8.85,0,0,1,6.85,0,9.28,9.28,0,0,1,2.8,1.87,8.77,8.77,0,0,1,1.9,9.63,8.89,8.89,0,0,1-1.9,2.81,9,9,0,0,1-2.8,1.89,8.85,8.85,0,0,1-6.85,0,8.67,8.67,0,0,1-2.78-1.89,9.15,9.15,0,0,1-1.87-2.81,8.85,8.85,0,0,1,0-6.85Z"/><path class="cls-1" d="M682.13,531.81a8.76,8.76,0,0,1,4.66-4.66,8.82,8.82,0,0,1,6.84,0,9.33,9.33,0,0,1,2.81,1.87,8.71,8.71,0,0,1,1.89,2.79,8.82,8.82,0,0,1,0,6.84,8.81,8.81,0,0,1-4.7,4.7,8.72,8.72,0,0,1-9.62-1.89,9.17,9.17,0,0,1-1.88-2.81,8.94,8.94,0,0,1,0-6.84Z"/><path class="cls-1" d="M844.76,531.81a8.82,8.82,0,0,1,1.87-2.79,9,9,0,0,1,2.78-1.87,8.82,8.82,0,0,1,6.84,0,9.21,9.21,0,0,1,2.81,1.87,8.77,8.77,0,0,1,1.9,9.63,8.88,8.88,0,0,1-4.71,4.7,8.82,8.82,0,0,1-6.84,0,8.67,8.67,0,0,1-2.78-1.89,9.15,9.15,0,0,1-1.87-2.81,8.82,8.82,0,0,1,0-6.84Z"/><path class="cls-1" d="M1006.81,531.81a8.82,8.82,0,0,1,1.87-2.79,9,9,0,0,1,2.78-1.87,8.85,8.85,0,0,1,6.85,0,9.28,9.28,0,0,1,2.8,1.87,8.77,8.77,0,0,1,1.9,9.63,8.89,8.89,0,0,1-1.9,2.81,9,9,0,0,1-2.8,1.89,8.85,8.85,0,0,1-6.85,0,8.67,8.67,0,0,1-2.78-1.89,9.15,9.15,0,0,1-1.87-2.81,8.82,8.82,0,0,1,0-6.84Z"/><path class="cls-1" d="M1168.59,531.81a8.82,8.82,0,0,1,1.87-2.79,9,9,0,0,1,2.78-1.87,8.85,8.85,0,0,1,6.85,0,9.28,9.28,0,0,1,2.8,1.87,8.77,8.77,0,0,1,1.9,9.63,8.89,8.89,0,0,1-1.9,2.81,9,9,0,0,1-2.8,1.89,8.85,8.85,0,0,1-6.85,0,8.67,8.67,0,0,1-2.78-1.89,9.15,9.15,0,0,1-1.87-2.81,8.82,8.82,0,0,1,0-6.84Z"/><path class="cls-1" d="M194.07,65.08a8.78,8.78,0,0,1,11.49-4.65,9.15,9.15,0,0,1,2.81,1.87,8.67,8.67,0,0,1,1.89,2.78,8.82,8.82,0,0,1,0,6.84,8.91,8.91,0,0,1-1.89,2.81,9.06,9.06,0,0,1-2.81,1.9,8.69,8.69,0,0,1-9.62-1.9,8.86,8.86,0,0,1-1.87-2.81,8.82,8.82,0,0,1,0-6.84Z"/><path class="cls-1" d="M356.69,65.08a8.72,8.72,0,0,1,4.65-4.65,8.82,8.82,0,0,1,6.84,0A9,9,0,0,1,371,62.3a8.75,8.75,0,0,1,1.9,9.62,8.78,8.78,0,0,1-1.9,2.81,8.94,8.94,0,0,1-2.81,1.9,8.82,8.82,0,0,1-6.84,0,8.7,8.7,0,0,1-2.78-1.9,9,9,0,0,1-1.87-2.81,8.82,8.82,0,0,1,0-6.84Z"/><path class="cls-1" d="M518.74,65.08a8.72,8.72,0,0,1,4.65-4.65,8.85,8.85,0,0,1,6.85,0A9.1,9.1,0,0,1,533,62.3a8.75,8.75,0,0,1,1.9,9.62,8.78,8.78,0,0,1-1.9,2.81,9,9,0,0,1-2.8,1.9,8.85,8.85,0,0,1-6.85,0,8.7,8.7,0,0,1-2.78-1.9,9,9,0,0,1-1.87-2.81,8.82,8.82,0,0,1,0-6.84Z"/><path class="cls-1" d="M682.13,65A8.81,8.81,0,0,1,684,62.22a8.67,8.67,0,0,1,2.78-1.87,8.82,8.82,0,0,1,6.84,0,9.15,9.15,0,0,1,2.81,1.87A8.67,8.67,0,0,1,698.33,65a8.82,8.82,0,0,1,0,6.84,8.88,8.88,0,0,1-4.7,4.71,8.82,8.82,0,0,1-6.84,0,8.43,8.43,0,0,1-2.78-1.9,9.06,9.06,0,0,1-1.88-2.81,8.94,8.94,0,0,1,0-6.84Z"/><path class="cls-1" d="M844.76,65a8.72,8.72,0,0,1,4.65-4.65,8.82,8.82,0,0,1,6.84,0,9,9,0,0,1,2.81,1.87,8.75,8.75,0,0,1,1.9,9.62,8.94,8.94,0,0,1-4.71,4.71,8.69,8.69,0,0,1-9.62-1.9,9,9,0,0,1-1.87-2.81,8.82,8.82,0,0,1,0-6.84Z"/><path class="cls-1" d="M1006.81,65a8.72,8.72,0,0,1,4.65-4.65,8.85,8.85,0,0,1,6.85,0,9.1,9.1,0,0,1,2.8,1.87,8.75,8.75,0,0,1,1.9,9.62,9,9,0,0,1-4.7,4.71,8.7,8.7,0,0,1-9.63-1.9,9,9,0,0,1-1.87-2.81,8.82,8.82,0,0,1,0-6.84Z"/><path class="cls-1" d="M1168.59,65a8.72,8.72,0,0,1,4.65-4.65,8.85,8.85,0,0,1,6.85,0,9.1,9.1,0,0,1,2.8,1.87,8.75,8.75,0,0,1,1.9,9.62,9,9,0,0,1-4.7,4.71,8.7,8.7,0,0,1-9.63-1.9,9,9,0,0,1-1.87-2.81,8.82,8.82,0,0,1,0-6.84Z"/><path class="cls-1" d="M1330.37,65.08a8.72,8.72,0,0,1,4.65-4.65,8.85,8.85,0,0,1,6.85,0,9.1,9.1,0,0,1,2.8,1.87,8.75,8.75,0,0,1,1.9,9.62,8.78,8.78,0,0,1-1.9,2.81,9,9,0,0,1-2.8,1.9,8.85,8.85,0,0,1-6.85,0,8.7,8.7,0,0,1-2.78-1.9,9,9,0,0,1-1.87-2.81,8.82,8.82,0,0,1,0-6.84Z"/><path class="cls-1" d="M1493,65.08a9,9,0,0,1,1.87-2.78,8.82,8.82,0,0,1,2.79-1.87,8.82,8.82,0,0,1,6.84,0,9.15,9.15,0,0,1,2.81,1.87,8.67,8.67,0,0,1,1.89,2.78,8.82,8.82,0,0,1,0,6.84,8.91,8.91,0,0,1-1.89,2.81,9.06,9.06,0,0,1-2.81,1.9,8.82,8.82,0,0,1-6.84,0,8.74,8.74,0,0,1-2.79-1.9,9.21,9.21,0,0,1-1.87-2.81,8.82,8.82,0,0,1,0-6.84Z"/><path class="cls-1" d="M1655.05,65.08a8.78,8.78,0,0,1,11.49-4.65,9.15,9.15,0,0,1,2.81,1.87,8.67,8.67,0,0,1,1.89,2.78,8.82,8.82,0,0,1,0,6.84,8.91,8.91,0,0,1-1.89,2.81,9.06,9.06,0,0,1-2.81,1.9,8.69,8.69,0,0,1-9.62-1.9,8.86,8.86,0,0,1-1.87-2.81,8.82,8.82,0,0,1,0-6.84Z"/><path class="cls-1" d="M1818.44,65a8.72,8.72,0,0,1,4.65-4.65,8.82,8.82,0,0,1,6.84,0,9,9,0,0,1,2.81,1.87,8.75,8.75,0,0,1,1.9,9.62,8.94,8.94,0,0,1-4.71,4.71,8.69,8.69,0,0,1-9.62-1.9,9,9,0,0,1-1.87-2.81,8.82,8.82,0,0,1,0-6.84Z"/><path class="cls-1" d="M1981.06,65a9,9,0,0,1,1.87-2.78,8.82,8.82,0,0,1,2.79-1.87,8.82,8.82,0,0,1,6.84,0,9.15,9.15,0,0,1,2.81,1.87,8.67,8.67,0,0,1,1.89,2.78,8.82,8.82,0,0,1,0,6.84,8.88,8.88,0,0,1-4.7,4.71,8.72,8.72,0,0,1-9.63-1.9,9.21,9.21,0,0,1-1.87-2.81,8.82,8.82,0,0,1,0-6.84Z"/><path class="cls-1" d="M2143.11,65a8.81,8.81,0,0,1,1.88-2.78,8.67,8.67,0,0,1,2.78-1.87,8.82,8.82,0,0,1,6.84,0,9.15,9.15,0,0,1,2.81,1.87,8.67,8.67,0,0,1,1.89,2.78,8.82,8.82,0,0,1,0,6.84,8.88,8.88,0,0,1-4.7,4.71,8.82,8.82,0,0,1-6.84,0,8.43,8.43,0,0,1-2.78-1.9,9.06,9.06,0,0,1-1.88-2.81,8.94,8.94,0,0,1,0-6.84Z"/><path class="cls-1" d="M2304.89,65a8.81,8.81,0,0,1,1.88-2.78,8.67,8.67,0,0,1,2.78-1.87,8.82,8.82,0,0,1,6.84,0,9.15,9.15,0,0,1,2.81,1.87,8.67,8.67,0,0,1,1.89,2.78,8.82,8.82,0,0,1,0,6.84,8.88,8.88,0,0,1-4.7,4.71,8.82,8.82,0,0,1-6.84,0,8.43,8.43,0,0,1-2.78-1.9,9.06,9.06,0,0,1-1.88-2.81,8.94,8.94,0,0,1,0-6.84Z"/><path class="cls-2" d="M205.05,208.94a16.23,16.23,0,0,1,6.18,1.05,11.7,11.7,0,0,1,4.14,2.79,10.75,10.75,0,0,1,2.33,4,14.52,14.52,0,0,1,.73,4.6,14.67,14.67,0,0,1-.73,4.58,10.75,10.75,0,0,1-2.33,4,11.7,11.7,0,0,1-4.14,2.79,16.23,16.23,0,0,1-6.18,1.05h-8.93v13.87h-8.51V208.94Zm-2.33,18.2a18.31,18.31,0,0,0,2.82-.22,6.53,6.53,0,0,0,2.38-.84,4.62,4.62,0,0,0,1.66-1.76,7.47,7.47,0,0,0,0-6,4.62,4.62,0,0,0-1.66-1.76,6.72,6.72,0,0,0-2.38-.84,18.31,18.31,0,0,0-2.82-.22h-6.6v11.6Z"/><path class="cls-2" d="M370.68,208a12.43,12.43,0,0,1,4.68.84,10.86,10.86,0,0,1,3.58,2.3,10.06,10.06,0,0,1,2.27,3.39,10.71,10.71,0,0,1,.79,4.14,11.6,11.6,0,0,1-1.44,5.91,9,9,0,0,1-4.68,3.79v.11a6.52,6.52,0,0,1,2.6,1.32,7.57,7.57,0,0,1,1.68,2.12,9.9,9.9,0,0,1,.95,2.68,24.38,24.38,0,0,1,.4,2.92c0,.61.07,1.34.11,2.17s.1,1.68.19,2.54a16.94,16.94,0,0,0,.43,2.47,5.68,5.68,0,0,0,.9,2h-8.51a15,15,0,0,1-.86-4.38c-.11-1.7-.27-3.33-.49-4.88a7.69,7.69,0,0,0-1.84-4.44q-1.41-1.41-4.61-1.41h-8.5V246.7h-8.5V208Zm-3,17.5a6.44,6.44,0,0,0,4.38-1.3A5.4,5.4,0,0,0,373.5,220a5.14,5.14,0,0,0-1.47-4.09,6.49,6.49,0,0,0-4.38-1.27h-9.32v10.89Z"/><path class="cls-2" d="M509.71,220a19.3,19.3,0,0,1,3.74-6.47,17,17,0,0,1,6-4.33,21.19,21.19,0,0,1,16,0,17.1,17.1,0,0,1,6,4.33,19.28,19.28,0,0,1,3.73,6.47,24.12,24.12,0,0,1,1.3,8,23.22,23.22,0,0,1-1.3,7.88,18.82,18.82,0,0,1-3.73,6.37,17.16,17.16,0,0,1-6,4.25,21.58,21.58,0,0,1-16,0,17,17,0,0,1-6-4.25,18.84,18.84,0,0,1-3.74-6.37,23.47,23.47,0,0,1-1.3-7.88A24.38,24.38,0,0,1,509.71,220Zm7.78,12.78a12.62,12.62,0,0,0,1.81,4.15,9.23,9.23,0,0,0,3.25,2.95,11.26,11.26,0,0,0,9.75,0,9.32,9.32,0,0,0,3.25-2.95,12.84,12.84,0,0,0,1.81-4.15,19.59,19.59,0,0,0,.57-4.74,21,21,0,0,0-.57-4.92,13.15,13.15,0,0,0-1.81-4.26,9.31,9.31,0,0,0-3.25-3,11.35,11.35,0,0,0-9.75,0,9.22,9.22,0,0,0-3.25,3,12.93,12.93,0,0,0-1.81,4.26,21,21,0,0,0-.57,4.92A19.59,19.59,0,0,0,517.49,232.78Z"/><path class="cls-2" d="M703.25,238.74a10.49,10.49,0,0,1-1.73,4.25,10.61,10.61,0,0,1-3.9,3.31,15.06,15.06,0,0,1-6.88,1.32A16.4,16.4,0,0,1,686,247a11.72,11.72,0,0,1-4.07-2.12,10.37,10.37,0,0,1-2.87-3.68,12.47,12.47,0,0,1-1.08-5.44v-3.36h7.69v1.73a14,14,0,0,0,.22,2.6,5.43,5.43,0,0,0,.75,2,3.77,3.77,0,0,0,1.49,1.33,5.37,5.37,0,0,0,2.47.49,4.76,4.76,0,0,0,2.6-.6,3.47,3.47,0,0,0,1.33-1.54,6.28,6.28,0,0,0,.48-2.06c.06-.74.08-1.45.08-2.14v-26.1h8.51v26.48A25.81,25.81,0,0,1,703.25,238.74Z"/><path class="cls-2" d="M867.69,208.9v7.15H847.27v8.29H866v6.6H847.27v9.48h20.85v7.15H838.76V208.9Z"/><path class="cls-2" d="M1024,219.25a8.73,8.73,0,0,0-4.47-3.58,8.94,8.94,0,0,0-3-.51,9.93,9.93,0,0,0-4.87,1.11,9.13,9.13,0,0,0-3.25,3,13,13,0,0,0-1.81,4.25,21.12,21.12,0,0,0-.57,4.93,19.57,19.57,0,0,0,.57,4.73,12.84,12.84,0,0,0,1.81,4.15,9.23,9.23,0,0,0,3.25,2.95,9.93,9.93,0,0,0,4.87,1.11,7.87,7.87,0,0,0,6.1-2.38,11.09,11.09,0,0,0,2.68-6.29h8.23a19.6,19.6,0,0,1-1.68,6.56,15.61,15.61,0,0,1-3.57,5,15.24,15.24,0,0,1-5.2,3.14,19.13,19.13,0,0,1-6.56,1.09,19.76,19.76,0,0,1-8-1.55,17.09,17.09,0,0,1-6-4.25,19,19,0,0,1-3.74-6.36,23.56,23.56,0,0,1-1.3-7.88,24.4,24.4,0,0,1,1.3-8.05,19.47,19.47,0,0,1,3.74-6.47,17.16,17.16,0,0,1,6-4.33,20.73,20.73,0,0,1,14-.65,16.35,16.35,0,0,1,5.1,2.68,14.68,14.68,0,0,1,3.71,4.36,15.79,15.79,0,0,1,1.84,6h-8.24A6.91,6.91,0,0,0,1024,219.25Z"/><path class="cls-2" d="M1161.43,216.05V208.9h31.69v7.15h-11.6v31.52H1173V216.05Z"/><path class="cls-2" d="M683.06,397a6.09,6.09,0,0,0,1.87,2.2,8.09,8.09,0,0,0,2.74,1.24,12.92,12.92,0,0,0,3.25.41,16.36,16.36,0,0,0,2.43-.19,8.63,8.63,0,0,0,2.44-.73,5.37,5.37,0,0,0,1.9-1.49,3.77,3.77,0,0,0,.75-2.41,3.39,3.39,0,0,0-1-2.55,7.85,7.85,0,0,0-2.63-1.62,24.67,24.67,0,0,0-3.68-1.14q-2.05-.48-4.17-1.08a37.61,37.61,0,0,1-4.22-1.33,14.44,14.44,0,0,1-3.69-2,9.15,9.15,0,0,1-3.63-7.64,10.11,10.11,0,0,1,1.28-5.17,11.67,11.67,0,0,1,3.33-3.66,14.54,14.54,0,0,1,4.66-2.16,19.75,19.75,0,0,1,5.2-.71,24.67,24.67,0,0,1,5.82.68,14.44,14.44,0,0,1,4.95,2.19,11.07,11.07,0,0,1,3.44,3.88,11.84,11.84,0,0,1,1.28,5.71h-8.24a6.72,6.72,0,0,0-.73-2.87,4.75,4.75,0,0,0-1.65-1.79,7.05,7.05,0,0,0-2.36-.92,14.49,14.49,0,0,0-2.89-.27,9.55,9.55,0,0,0-2.06.22,5.42,5.42,0,0,0-1.87.76,4.68,4.68,0,0,0-1.38,1.35,3.65,3.65,0,0,0-.54,2.06,3.46,3.46,0,0,0,.43,1.84,3.9,3.9,0,0,0,1.71,1.3,20.55,20.55,0,0,0,3.52,1.19c1.49.4,3.45.9,5.87,1.52.73.14,1.73.4,3,.78A14.6,14.6,0,0,1,702,386.4a11.7,11.7,0,0,1,3.28,3.33,9.48,9.48,0,0,1,1.38,5.33,11.89,11.89,0,0,1-1,4.93,10.76,10.76,0,0,1-3.06,3.93,14.78,14.78,0,0,1-5,2.57,23.57,23.57,0,0,1-7,.92,24.56,24.56,0,0,1-6.2-.78,15.63,15.63,0,0,1-5.31-2.47,12.26,12.26,0,0,1-3.66-4.28,12.86,12.86,0,0,1-1.3-6.17h8.24A7.06,7.06,0,0,0,683.06,397Z"/><path class="cls-1" d="M194.23,383.74A8.82,8.82,0,0,1,196.1,381a9,9,0,0,1,2.78-1.87,8.85,8.85,0,0,1,6.85,0,9.28,9.28,0,0,1,2.8,1.87,8.77,8.77,0,0,1,1.9,9.63,8.89,8.89,0,0,1-1.9,2.81,9,9,0,0,1-2.8,1.89,8.85,8.85,0,0,1-6.85,0,8.67,8.67,0,0,1-2.78-1.89,9.15,9.15,0,0,1-1.87-2.81,8.82,8.82,0,0,1,0-6.84Z"/><path class="cls-1" d="M356.86,383.74a8.66,8.66,0,0,1,1.87-2.79,8.83,8.83,0,0,1,2.78-1.87,8.82,8.82,0,0,1,6.84,0,9.33,9.33,0,0,1,2.81,1.87,8.71,8.71,0,0,1,1.89,2.79,8.82,8.82,0,0,1,0,6.84,8.81,8.81,0,0,1-4.7,4.7,8.72,8.72,0,0,1-9.62-1.89,9,9,0,0,1-1.87-2.81,8.82,8.82,0,0,1,0-6.84Z"/><path class="cls-1" d="M518.91,383.74a8.66,8.66,0,0,1,1.87-2.79,8.83,8.83,0,0,1,2.78-1.87,8.82,8.82,0,0,1,6.84,0,9.33,9.33,0,0,1,2.81,1.87,8.78,8.78,0,0,1,1.89,9.63,8.86,8.86,0,0,1-1.89,2.81,9,9,0,0,1-2.81,1.89,8.72,8.72,0,0,1-9.62-1.89,9,9,0,0,1-1.87-2.81,8.82,8.82,0,0,1,0-6.84Z"/><path class="cls-1" d="M1330.57,531.88a8.72,8.72,0,0,1,4.65-4.65,8.85,8.85,0,0,1,6.85,0,9.33,9.33,0,0,1,2.81,1.87,8.78,8.78,0,0,1,1.89,2.78,8.85,8.85,0,0,1,0,6.85,8.81,8.81,0,0,1-4.7,4.7,8.85,8.85,0,0,1-6.85,0,8.78,8.78,0,0,1-2.78-1.89,9.33,9.33,0,0,1-1.87-2.81,8.85,8.85,0,0,1,0-6.85Z"/><path class="cls-1" d="M1493.2,531.88a8.72,8.72,0,0,1,4.65-4.65,8.82,8.82,0,0,1,6.84,0,9.21,9.21,0,0,1,2.81,1.87,8.81,8.81,0,0,1,1.9,2.78,8.85,8.85,0,0,1,0,6.85,9.06,9.06,0,0,1-1.9,2.81,8.91,8.91,0,0,1-2.81,1.89,8.82,8.82,0,0,1-6.84,0,8.67,8.67,0,0,1-2.78-1.89,9.15,9.15,0,0,1-1.87-2.81,8.85,8.85,0,0,1,0-6.85Z"/><path class="cls-1" d="M1655.25,531.88a8.72,8.72,0,0,1,4.65-4.65,8.82,8.82,0,0,1,6.84,0,9.21,9.21,0,0,1,2.81,1.87,8.77,8.77,0,0,1,1.9,9.63,8.88,8.88,0,0,1-4.71,4.7,8.82,8.82,0,0,1-6.84,0,8.67,8.67,0,0,1-2.78-1.89,9.15,9.15,0,0,1-1.87-2.81,8.85,8.85,0,0,1,0-6.85Z"/><path class="cls-1" d="M1330.74,383.74a8.82,8.82,0,0,1,1.87-2.79,9,9,0,0,1,2.78-1.87,8.82,8.82,0,0,1,6.84,0A9.21,9.21,0,0,1,1345,381a8.77,8.77,0,0,1,1.9,9.63,8.88,8.88,0,0,1-4.71,4.7,8.82,8.82,0,0,1-6.84,0,8.67,8.67,0,0,1-2.78-1.89,9.15,9.15,0,0,1-1.87-2.81,8.82,8.82,0,0,1,0-6.84Z"/><path class="cls-1" d="M1493.36,383.74a8.7,8.7,0,0,1,4.65-4.66,8.85,8.85,0,0,1,6.85,0,9.33,9.33,0,0,1,2.81,1.87,8.71,8.71,0,0,1,1.89,2.79,8.82,8.82,0,0,1,0,6.84,8.81,8.81,0,0,1-4.7,4.7,8.85,8.85,0,0,1-6.85,0,8.78,8.78,0,0,1-2.78-1.89,9.33,9.33,0,0,1-1.87-2.81,8.82,8.82,0,0,1,0-6.84Z"/><path class="cls-1" d="M1655.41,383.74a8.67,8.67,0,0,1,4.66-4.66,8.82,8.82,0,0,1,6.84,0,9.33,9.33,0,0,1,2.81,1.87,8.71,8.71,0,0,1,1.89,2.79,8.82,8.82,0,0,1,0,6.84,8.81,8.81,0,0,1-4.7,4.7,8.82,8.82,0,0,1-6.84,0,8.71,8.71,0,0,1-2.79-1.89,9.33,9.33,0,0,1-1.87-2.81,8.94,8.94,0,0,1,0-6.84Z"/><path class="cls-1" d="M1330.74,224.41a8.67,8.67,0,0,1,1.87-2.78,8.78,8.78,0,0,1,2.78-1.87,8.82,8.82,0,0,1,6.84,0,9,9,0,0,1,2.81,1.87,8.43,8.43,0,0,1,1.9,2.78,8.82,8.82,0,0,1,0,6.84,8.88,8.88,0,0,1-4.71,4.7,8.82,8.82,0,0,1-6.84,0,8.67,8.67,0,0,1-2.78-1.89,9.15,9.15,0,0,1-1.87-2.81,8.82,8.82,0,0,1,0-6.84Z"/><path class="cls-1" d="M1493.36,224.41a8.72,8.72,0,0,1,4.65-4.65,8.85,8.85,0,0,1,6.85,0,9.15,9.15,0,0,1,2.81,1.87,8.77,8.77,0,0,1,1.89,9.62,8.81,8.81,0,0,1-4.7,4.7,8.85,8.85,0,0,1-6.85,0,8.78,8.78,0,0,1-2.78-1.89,9.33,9.33,0,0,1-1.87-2.81,8.82,8.82,0,0,1,0-6.84Z"/><path class="cls-1" d="M1655.41,224.41a8.7,8.7,0,0,1,4.66-4.65,8.82,8.82,0,0,1,6.84,0,9.15,9.15,0,0,1,2.81,1.87,8.77,8.77,0,0,1,1.89,9.62,8.81,8.81,0,0,1-4.7,4.7,8.82,8.82,0,0,1-6.84,0,8.71,8.71,0,0,1-2.79-1.89,9.33,9.33,0,0,1-1.87-2.81,8.94,8.94,0,0,1,0-6.84Z"/><path class="cls-1" d="M1818.64,531.88a8.72,8.72,0,0,1,4.65-4.65,8.85,8.85,0,0,1,6.85,0,9.33,9.33,0,0,1,2.81,1.87,8.78,8.78,0,0,1,1.89,2.78,8.85,8.85,0,0,1,0,6.85,8.81,8.81,0,0,1-4.7,4.7,8.85,8.85,0,0,1-6.85,0,8.78,8.78,0,0,1-2.78-1.89,9.33,9.33,0,0,1-1.87-2.81,8.85,8.85,0,0,1,0-6.85Z"/><path class="cls-1" d="M1981.27,531.88a8.72,8.72,0,0,1,4.65-4.65,8.82,8.82,0,0,1,6.84,0,9.21,9.21,0,0,1,2.81,1.87,8.81,8.81,0,0,1,1.9,2.78,9,9,0,0,1,0,6.85,9.06,9.06,0,0,1-1.9,2.81,8.91,8.91,0,0,1-2.81,1.89,8.72,8.72,0,0,1-9.62-1.89,9.15,9.15,0,0,1-1.87-2.81,8.85,8.85,0,0,1,0-6.85Z"/><path class="cls-1" d="M2143.32,531.88a8.72,8.72,0,0,1,4.65-4.65,8.82,8.82,0,0,1,6.84,0,9.21,9.21,0,0,1,2.81,1.87,8.77,8.77,0,0,1,1.9,9.63,8.88,8.88,0,0,1-4.71,4.7,8.82,8.82,0,0,1-6.84,0,8.67,8.67,0,0,1-2.78-1.89,9.15,9.15,0,0,1-1.87-2.81,8.85,8.85,0,0,1,0-6.85Z"/><path class="cls-1" d="M1818.81,383.74a8.82,8.82,0,0,1,1.87-2.79,9,9,0,0,1,2.78-1.87,8.82,8.82,0,0,1,6.84,0,9.21,9.21,0,0,1,2.81,1.87,8.77,8.77,0,0,1,1.9,9.63,8.88,8.88,0,0,1-4.71,4.7,8.82,8.82,0,0,1-6.84,0,8.67,8.67,0,0,1-2.78-1.89,9.15,9.15,0,0,1-1.87-2.81,8.82,8.82,0,0,1,0-6.84Z"/><path class="cls-1" d="M1981.43,383.74a8.7,8.7,0,0,1,4.65-4.66,8.85,8.85,0,0,1,6.85,0,9.33,9.33,0,0,1,2.81,1.87,8.71,8.71,0,0,1,1.89,2.79,8.82,8.82,0,0,1,0,6.84,8.81,8.81,0,0,1-4.7,4.7,8.85,8.85,0,0,1-6.85,0,8.78,8.78,0,0,1-2.78-1.89,9.33,9.33,0,0,1-1.87-2.81,8.82,8.82,0,0,1,0-6.84Z"/><path class="cls-1" d="M2143.48,383.74a8.67,8.67,0,0,1,4.66-4.66,8.82,8.82,0,0,1,6.84,0,9.33,9.33,0,0,1,2.81,1.87,8.71,8.71,0,0,1,1.89,2.79,8.82,8.82,0,0,1,0,6.84,8.81,8.81,0,0,1-4.7,4.7,8.82,8.82,0,0,1-6.84,0,8.71,8.71,0,0,1-2.79-1.89,9.33,9.33,0,0,1-1.87-2.81,8.82,8.82,0,0,1,0-6.84Z"/><path class="cls-1" d="M2305.7,383.74a8.82,8.82,0,0,1,1.87-2.79,9,9,0,0,1,2.78-1.87,8.85,8.85,0,0,1,6.85,0A9.28,9.28,0,0,1,2320,381a8.77,8.77,0,0,1,1.9,9.63,8.89,8.89,0,0,1-1.9,2.81,9,9,0,0,1-2.8,1.89,8.85,8.85,0,0,1-6.85,0,8.67,8.67,0,0,1-2.78-1.89,9.15,9.15,0,0,1-1.87-2.81,8.82,8.82,0,0,1,0-6.84Z"/><path class="cls-1" d="M2455.68,65a8.72,8.72,0,0,1,4.65-4.65,8.85,8.85,0,0,1,6.85,0,9.27,9.27,0,0,1,2.81,1.87,8.67,8.67,0,0,1,1.89,2.78,8.82,8.82,0,0,1,0,6.84,8.88,8.88,0,0,1-4.7,4.71,8.7,8.7,0,0,1-9.63-1.9,9.21,9.21,0,0,1-1.87-2.81,8.82,8.82,0,0,1,0-6.84Z"/><path class="cls-1" d="M2618.31,65a8.78,8.78,0,0,1,11.49-4.65,9.15,9.15,0,0,1,2.81,1.87,8.77,8.77,0,0,1,1.89,9.62,8.75,8.75,0,0,1-1.89,2.81,8.89,8.89,0,0,1-2.81,1.9,8.82,8.82,0,0,1-6.84,0,8.43,8.43,0,0,1-2.78-1.9,8.86,8.86,0,0,1-1.87-2.81,8.82,8.82,0,0,1,0-6.84Z"/><path class="cls-1" d="M2780.36,65a8.78,8.78,0,0,1,1.87-2.78,8.67,8.67,0,0,1,2.78-1.87,8.82,8.82,0,0,1,6.84,0,9,9,0,0,1,2.81,1.87,8.77,8.77,0,0,1,1.89,9.62,8.88,8.88,0,0,1-4.7,4.71,8.69,8.69,0,0,1-9.62-1.9,9,9,0,0,1-1.87-2.81,8.82,8.82,0,0,1,0-6.84Z"/><path class="cls-1" d="M2942.14,65a8.78,8.78,0,0,1,1.87-2.78,8.67,8.67,0,0,1,2.78-1.87,8.82,8.82,0,0,1,6.84,0,9,9,0,0,1,2.81,1.87,8.77,8.77,0,0,1,1.89,9.62,8.88,8.88,0,0,1-4.7,4.71,8.82,8.82,0,0,1-6.84,0,8.43,8.43,0,0,1-2.78-1.9,9,9,0,0,1-1.87-2.81,8.82,8.82,0,0,1,0-6.84Z"/><path class="cls-1" d="M2456.05,383.74a8.82,8.82,0,0,1,1.87-2.79,9,9,0,0,1,2.78-1.87,8.85,8.85,0,0,1,6.85,0,9.28,9.28,0,0,1,2.8,1.87,8.77,8.77,0,0,1,1.9,9.63,8.89,8.89,0,0,1-1.9,2.81,9,9,0,0,1-2.8,1.89,8.85,8.85,0,0,1-6.85,0,8.67,8.67,0,0,1-2.78-1.89,9.15,9.15,0,0,1-1.87-2.81,8.82,8.82,0,0,1,0-6.84Z"/><path class="cls-1" d="M2618.68,383.74a8.66,8.66,0,0,1,1.87-2.79,8.83,8.83,0,0,1,2.78-1.87,8.82,8.82,0,0,1,6.84,0A9.33,9.33,0,0,1,2633,381a8.71,8.71,0,0,1,1.89,2.79,8.82,8.82,0,0,1,0,6.84,8.81,8.81,0,0,1-4.7,4.7,8.72,8.72,0,0,1-9.62-1.89,9,9,0,0,1-1.87-2.81,8.82,8.82,0,0,1,0-6.84Z"/><path class="cls-1" d="M2780.73,383.74a8.66,8.66,0,0,1,1.87-2.79,8.83,8.83,0,0,1,2.78-1.87,8.82,8.82,0,0,1,6.84,0A9.21,9.21,0,0,1,2795,381a8.78,8.78,0,0,1,1.89,9.63,8.81,8.81,0,0,1-4.7,4.7,8.72,8.72,0,0,1-9.62-1.89,9,9,0,0,1-1.87-2.81,8.82,8.82,0,0,1,0-6.84Z"/><path class="cls-1" d="M2942.94,383.74a8.7,8.7,0,0,1,4.65-4.66,8.85,8.85,0,0,1,6.85,0,9.33,9.33,0,0,1,2.81,1.87,8.71,8.71,0,0,1,1.89,2.79,8.82,8.82,0,0,1,0,6.84,8.81,8.81,0,0,1-4.7,4.7,8.85,8.85,0,0,1-6.85,0,8.78,8.78,0,0,1-2.78-1.89,9.33,9.33,0,0,1-1.87-2.81,8.82,8.82,0,0,1,0-6.84Z"/><path class="cls-1" d="M3105.16,65.08a8.72,8.72,0,0,1,4.65-4.65,8.82,8.82,0,0,1,6.84,0,9,9,0,0,1,2.81,1.87,8.75,8.75,0,0,1,1.9,9.62,8.78,8.78,0,0,1-1.9,2.81,8.94,8.94,0,0,1-2.81,1.9,8.82,8.82,0,0,1-6.84,0,8.7,8.7,0,0,1-2.78-1.9,9,9,0,0,1-1.87-2.81,8.82,8.82,0,0,1,0-6.84Z"/><path class="cls-1" d="M3105.16,224.45a8.67,8.67,0,0,1,1.87-2.78,8.81,8.81,0,0,1,2.78-1.88,8.94,8.94,0,0,1,6.84,0,9.06,9.06,0,0,1,2.81,1.88,8.43,8.43,0,0,1,1.9,2.78,8.82,8.82,0,0,1,0,6.84,8.88,8.88,0,0,1-4.71,4.7,8.82,8.82,0,0,1-6.84,0,8.67,8.67,0,0,1-2.78-1.89,9.15,9.15,0,0,1-1.87-2.81,8.82,8.82,0,0,1,0-6.84Z"/><path class="cls-1" d="M3267.21,65.08a8.72,8.72,0,0,1,4.65-4.65,8.85,8.85,0,0,1,6.85,0,9.1,9.1,0,0,1,2.8,1.87,8.75,8.75,0,0,1,1.9,9.62,8.78,8.78,0,0,1-1.9,2.81,9,9,0,0,1-2.8,1.9,8.85,8.85,0,0,1-6.85,0,8.7,8.7,0,0,1-2.78-1.9,9,9,0,0,1-1.87-2.81,8.82,8.82,0,0,1,0-6.84Z"/><path class="cls-1" d="M3430.6,65a8.81,8.81,0,0,1,1.88-2.78,8.67,8.67,0,0,1,2.78-1.87,8.82,8.82,0,0,1,6.84,0,9.15,9.15,0,0,1,2.81,1.87A8.67,8.67,0,0,1,3446.8,65a8.82,8.82,0,0,1,0,6.84,8.88,8.88,0,0,1-4.7,4.71,8.82,8.82,0,0,1-6.84,0,8.43,8.43,0,0,1-2.78-1.9,9.06,9.06,0,0,1-1.88-2.81,8.94,8.94,0,0,1,0-6.84Z"/><path class="cls-1" d="M3593.23,65a8.72,8.72,0,0,1,4.65-4.65,8.82,8.82,0,0,1,6.84,0,9,9,0,0,1,2.81,1.87,8.75,8.75,0,0,1,1.9,9.62,8.94,8.94,0,0,1-4.71,4.71,8.69,8.69,0,0,1-9.62-1.9,9,9,0,0,1-1.87-2.81,8.82,8.82,0,0,1,0-6.84Z"/><path class="cls-1" d="M3755.28,65a8.72,8.72,0,0,1,4.65-4.65,8.85,8.85,0,0,1,6.85,0,9.1,9.1,0,0,1,2.8,1.87,8.75,8.75,0,0,1,1.9,9.62,9,9,0,0,1-4.7,4.71,8.7,8.7,0,0,1-9.63-1.9,9,9,0,0,1-1.87-2.81,8.82,8.82,0,0,1,0-6.84Z"/><path class="cls-1" d="M3917.06,65a8.72,8.72,0,0,1,4.65-4.65,8.85,8.85,0,0,1,6.85,0,9.1,9.1,0,0,1,2.8,1.87,8.75,8.75,0,0,1,1.9,9.62,9,9,0,0,1-4.7,4.71,8.7,8.7,0,0,1-9.63-1.9,9,9,0,0,1-1.87-2.81,8.82,8.82,0,0,1,0-6.84Z"/><path class="cls-1" d="M3105.36,531.88a8.72,8.72,0,0,1,4.65-4.65,8.85,8.85,0,0,1,6.85,0,9.33,9.33,0,0,1,2.81,1.87,8.78,8.78,0,0,1,1.89,2.78,8.85,8.85,0,0,1,0,6.85,8.81,8.81,0,0,1-4.7,4.7,8.85,8.85,0,0,1-6.85,0,8.78,8.78,0,0,1-2.78-1.89,9.33,9.33,0,0,1-1.87-2.81,8.85,8.85,0,0,1,0-6.85Z"/><path class="cls-1" d="M3267.41,531.88a8.7,8.7,0,0,1,4.66-4.65,8.82,8.82,0,0,1,6.84,0,9.33,9.33,0,0,1,2.81,1.87,8.78,8.78,0,0,1,1.89,2.78,8.85,8.85,0,0,1,0,6.85,8.81,8.81,0,0,1-4.7,4.7,8.82,8.82,0,0,1-6.84,0,8.71,8.71,0,0,1-2.79-1.89,9.33,9.33,0,0,1-1.87-2.81,9,9,0,0,1,0-6.85Z"/><path class="cls-1" d="M3105.53,383.74a8.82,8.82,0,0,1,1.87-2.79,9,9,0,0,1,2.78-1.87,8.82,8.82,0,0,1,6.84,0,9.21,9.21,0,0,1,2.81,1.87,8.77,8.77,0,0,1,1.9,9.63,8.88,8.88,0,0,1-4.71,4.7,8.82,8.82,0,0,1-6.84,0,8.67,8.67,0,0,1-2.78-1.89,9.15,9.15,0,0,1-1.87-2.81,8.82,8.82,0,0,1,0-6.84Z"/><path class="cls-1" d="M3267.58,224.41a8.67,8.67,0,0,1,1.87-2.78,8.78,8.78,0,0,1,2.78-1.87,8.85,8.85,0,0,1,6.85,0,9.1,9.1,0,0,1,2.8,1.87,8.43,8.43,0,0,1,1.9,2.78,8.82,8.82,0,0,1,0,6.84,8.89,8.89,0,0,1-1.9,2.81,9,9,0,0,1-2.8,1.89,8.85,8.85,0,0,1-6.85,0,8.67,8.67,0,0,1-2.78-1.89,9.15,9.15,0,0,1-1.87-2.81,8.82,8.82,0,0,1,0-6.84Z"/><path class="cls-1" d="M3430.81,531.88a8.72,8.72,0,0,1,4.65-4.65,8.82,8.82,0,0,1,6.84,0,9.21,9.21,0,0,1,2.81,1.87,8.77,8.77,0,0,1,1.9,9.63,8.88,8.88,0,0,1-4.71,4.7,8.82,8.82,0,0,1-6.84,0,8.67,8.67,0,0,1-2.78-1.89,9.15,9.15,0,0,1-1.87-2.81,8.85,8.85,0,0,1,0-6.85Z"/><path class="cls-1" d="M3593.43,531.88a8.72,8.72,0,0,1,4.65-4.65,8.85,8.85,0,0,1,6.85,0,9.33,9.33,0,0,1,2.81,1.87,8.78,8.78,0,0,1,1.89,2.78,8.85,8.85,0,0,1,0,6.85,8.81,8.81,0,0,1-4.7,4.7,8.85,8.85,0,0,1-6.85,0,8.78,8.78,0,0,1-2.78-1.89,9.33,9.33,0,0,1-1.87-2.81,8.85,8.85,0,0,1,0-6.85Z"/><path class="cls-1" d="M3755.48,531.88a8.7,8.7,0,0,1,4.66-4.65,8.82,8.82,0,0,1,6.84,0,9.33,9.33,0,0,1,2.81,1.87,8.78,8.78,0,0,1,1.89,2.78,8.85,8.85,0,0,1,0,6.85,8.81,8.81,0,0,1-4.7,4.7,8.82,8.82,0,0,1-6.84,0,8.71,8.71,0,0,1-2.79-1.89,9.33,9.33,0,0,1-1.87-2.81,8.85,8.85,0,0,1,0-6.85Z"/><path class="cls-1" d="M3431,224.41a8.7,8.7,0,0,1,4.66-4.65,8.82,8.82,0,0,1,6.84,0,9.15,9.15,0,0,1,2.81,1.87,8.77,8.77,0,0,1,1.89,9.62,8.81,8.81,0,0,1-4.7,4.7,8.82,8.82,0,0,1-6.84,0,8.71,8.71,0,0,1-2.79-1.89,9.33,9.33,0,0,1-1.87-2.81,8.94,8.94,0,0,1,0-6.84Z"/><path class="cls-1" d="M3593.6,224.41a8.67,8.67,0,0,1,1.87-2.78,8.78,8.78,0,0,1,2.78-1.87,8.82,8.82,0,0,1,6.84,0,9,9,0,0,1,2.81,1.87,8.43,8.43,0,0,1,1.9,2.78,8.82,8.82,0,0,1,0,6.84,8.88,8.88,0,0,1-4.71,4.7,8.82,8.82,0,0,1-6.84,0,8.67,8.67,0,0,1-2.78-1.89,9.15,9.15,0,0,1-1.87-2.81,8.82,8.82,0,0,1,0-6.84Z"/><path class="cls-1" d="M3755.65,224.41a8.67,8.67,0,0,1,1.87-2.78,8.78,8.78,0,0,1,2.78-1.87,8.82,8.82,0,0,1,6.84,0,9,9,0,0,1,2.81,1.87,8.43,8.43,0,0,1,1.9,2.78,8.82,8.82,0,0,1,0,6.84,8.88,8.88,0,0,1-4.71,4.7,8.82,8.82,0,0,1-6.84,0,8.67,8.67,0,0,1-2.78-1.89,9.15,9.15,0,0,1-1.87-2.81,8.82,8.82,0,0,1,0-6.84Z"/><path class="cls-1" d="M3917.7,531.88a8.72,8.72,0,0,1,4.65-4.65,8.85,8.85,0,0,1,6.85,0,9.28,9.28,0,0,1,2.8,1.87,8.77,8.77,0,0,1,1.9,9.63,8.89,8.89,0,0,1-1.9,2.81,9,9,0,0,1-2.8,1.89,8.85,8.85,0,0,1-6.85,0,8.67,8.67,0,0,1-2.78-1.89,9.15,9.15,0,0,1-1.87-2.81,8.85,8.85,0,0,1,0-6.85Z"/><path class="cls-1" d="M3917.87,224.41a8.51,8.51,0,0,1,1.87-2.78,8.67,8.67,0,0,1,2.78-1.87,8.82,8.82,0,0,1,6.84,0,9,9,0,0,1,2.81,1.87,8.41,8.41,0,0,1,1.89,2.78,8.82,8.82,0,0,1,0,6.84,8.81,8.81,0,0,1-4.7,4.7,8.72,8.72,0,0,1-9.62-1.89,9,9,0,0,1-1.87-2.81,8.82,8.82,0,0,1,0-6.84Z"/><path class="cls-1" d="M4067.85,65a8.78,8.78,0,0,1,1.87-2.78,8.67,8.67,0,0,1,2.78-1.87,8.82,8.82,0,0,1,6.84,0,9,9,0,0,1,2.81,1.87,8.77,8.77,0,0,1,1.89,9.62,8.88,8.88,0,0,1-4.7,4.71,8.69,8.69,0,0,1-9.62-1.9,9,9,0,0,1-1.87-2.81,8.82,8.82,0,0,1,0-6.84Z"/><path class="cls-1" d="M4230.47,65a8.78,8.78,0,0,1,1.87-2.78,8.89,8.89,0,0,1,2.78-1.87,8.85,8.85,0,0,1,6.85,0,9.1,9.1,0,0,1,2.8,1.87,8.75,8.75,0,0,1,1.9,9.62,9,9,0,0,1-4.7,4.71,8.7,8.7,0,0,1-9.63-1.9,9,9,0,0,1-1.87-2.81,8.82,8.82,0,0,1,0-6.84Z"/><path class="cls-1" d="M4392.52,65a8.72,8.72,0,0,1,4.65-4.65,8.85,8.85,0,0,1,6.85,0,9.15,9.15,0,0,1,2.81,1.87,8.67,8.67,0,0,1,1.89,2.78,8.82,8.82,0,0,1,0,6.84,8.88,8.88,0,0,1-4.7,4.71,8.7,8.7,0,0,1-9.63-1.9,9.21,9.21,0,0,1-1.87-2.81,8.82,8.82,0,0,1,0-6.84Z"/><path class="cls-1" d="M4068.05,531.88a8.72,8.72,0,0,1,4.65-4.65,8.85,8.85,0,0,1,6.85,0,9.28,9.28,0,0,1,2.8,1.87,8.77,8.77,0,0,1,1.9,9.63,8.89,8.89,0,0,1-1.9,2.81,9,9,0,0,1-2.8,1.89,8.85,8.85,0,0,1-6.85,0,8.67,8.67,0,0,1-2.78-1.89,9.15,9.15,0,0,1-1.87-2.81,8.85,8.85,0,0,1,0-6.85Z"/><path class="cls-1" d="M4230.67,531.88a8.79,8.79,0,0,1,4.66-4.65,8.82,8.82,0,0,1,6.84,0,9.33,9.33,0,0,1,2.81,1.87,8.78,8.78,0,0,1,1.89,2.78,8.85,8.85,0,0,1,0,6.85,8.81,8.81,0,0,1-4.7,4.7,8.72,8.72,0,0,1-9.62-1.89,9.17,9.17,0,0,1-1.88-2.81,9,9,0,0,1,0-6.85Z"/><path class="cls-1" d="M4392.73,531.88a8.73,8.73,0,0,1,1.87-2.78,8.83,8.83,0,0,1,2.78-1.87,8.82,8.82,0,0,1,6.84,0,9.33,9.33,0,0,1,2.81,1.87,8.78,8.78,0,0,1,1.89,9.63,8.86,8.86,0,0,1-1.89,2.81,9,9,0,0,1-2.81,1.89,8.72,8.72,0,0,1-9.62-1.89,9,9,0,0,1-1.87-2.81,8.85,8.85,0,0,1,0-6.85Z"/><path class="cls-1" d="M4068.22,224.41a8.51,8.51,0,0,1,1.87-2.78,8.67,8.67,0,0,1,2.78-1.87,8.82,8.82,0,0,1,6.84,0,9,9,0,0,1,2.81,1.87,8.41,8.41,0,0,1,1.89,2.78,8.82,8.82,0,0,1,0,6.84,8.81,8.81,0,0,1-4.7,4.7,8.72,8.72,0,0,1-9.62-1.89,9,9,0,0,1-1.87-2.81,8.82,8.82,0,0,1,0-6.84Z"/><path class="cls-1" d="M4230.84,224.41a8.67,8.67,0,0,1,1.87-2.78,8.78,8.78,0,0,1,2.78-1.87,8.85,8.85,0,0,1,6.85,0,9.1,9.1,0,0,1,2.8,1.87,8.43,8.43,0,0,1,1.9,2.78,8.82,8.82,0,0,1,0,6.84,8.89,8.89,0,0,1-1.9,2.81,9,9,0,0,1-2.8,1.89,8.85,8.85,0,0,1-6.85,0,8.67,8.67,0,0,1-2.78-1.89,9.15,9.15,0,0,1-1.87-2.81,8.82,8.82,0,0,1,0-6.84Z"/><path class="cls-1" d="M4392.89,224.41a8.72,8.72,0,0,1,4.65-4.65,8.85,8.85,0,0,1,6.85,0,9.27,9.27,0,0,1,2.81,1.87,8.77,8.77,0,0,1,1.89,9.62,9,9,0,0,1-1.89,2.81,9.15,9.15,0,0,1-2.81,1.89,8.85,8.85,0,0,1-6.85,0,8.78,8.78,0,0,1-2.78-1.89,9.33,9.33,0,0,1-1.87-2.81,8.82,8.82,0,0,1,0-6.84Z"/><path class="cls-1" d="M38.53,65A8.78,8.78,0,0,1,50,60.35a9.15,9.15,0,0,1,2.81,1.87A8.67,8.67,0,0,1,54.72,65a8.82,8.82,0,0,1,0,6.84A8.88,8.88,0,0,1,50,76.55a8.82,8.82,0,0,1-6.84,0,8.43,8.43,0,0,1-2.78-1.9,8.86,8.86,0,0,1-1.87-2.81,8.82,8.82,0,0,1,0-6.84Z"/><path class="cls-1" d="M39.17,531.88A8.73,8.73,0,0,1,41,529.1a8.83,8.83,0,0,1,2.78-1.87,8.82,8.82,0,0,1,6.84,0,9.33,9.33,0,0,1,2.81,1.87,8.78,8.78,0,0,1,1.89,9.63,8.86,8.86,0,0,1-1.89,2.81,9,9,0,0,1-2.81,1.89A8.72,8.72,0,0,1,41,541.54a9,9,0,0,1-1.87-2.81,8.85,8.85,0,0,1,0-6.85Z"/><path class="cls-1" d="M39.33,383.74A8.7,8.7,0,0,1,44,379.08a8.85,8.85,0,0,1,6.85,0A9.45,9.45,0,0,1,53.64,381a8.71,8.71,0,0,1,1.89,2.79,8.82,8.82,0,0,1,0,6.84,9,9,0,0,1-1.89,2.81,9.15,9.15,0,0,1-2.81,1.89,8.85,8.85,0,0,1-6.85,0,8.78,8.78,0,0,1-2.78-1.89,9.33,9.33,0,0,1-1.87-2.81,8.82,8.82,0,0,1,0-6.84Z"/><path class="cls-1" d="M39.33,224.41A8.72,8.72,0,0,1,44,219.76a8.85,8.85,0,0,1,6.85,0,9.27,9.27,0,0,1,2.81,1.87,8.77,8.77,0,0,1,1.89,9.62,9,9,0,0,1-1.89,2.81A9.15,9.15,0,0,1,50.83,236,8.85,8.85,0,0,1,44,236a8.78,8.78,0,0,1-2.78-1.89,9.33,9.33,0,0,1-1.87-2.81,8.82,8.82,0,0,1,0-6.84Z"/><path class="cls-2" d="M835.31,379.33a19.47,19.47,0,0,1,3.74-6.47,17,17,0,0,1,6-4.34,21.17,21.17,0,0,1,16,0,17.12,17.12,0,0,1,6,4.34,19.28,19.28,0,0,1,3.73,6.47,24,24,0,0,1,1.3,8,23.22,23.22,0,0,1-1.3,7.88,18.82,18.82,0,0,1-3.73,6.37,17.29,17.29,0,0,1-6,4.25,21.55,21.55,0,0,1-16,0,17.13,17.13,0,0,1-6-4.25,19,19,0,0,1-3.74-6.37,23.47,23.47,0,0,1-1.3-7.88A24.29,24.29,0,0,1,835.31,379.33Zm7.77,12.78a12.85,12.85,0,0,0,1.82,4.15,9.33,9.33,0,0,0,3.25,2.95,11.26,11.26,0,0,0,9.75,0,9.42,9.42,0,0,0,3.25-2.95,12.84,12.84,0,0,0,1.81-4.15,19.59,19.59,0,0,0,.57-4.74,21.18,21.18,0,0,0-.57-4.93,13.19,13.19,0,0,0-1.81-4.25,9.31,9.31,0,0,0-3.25-3,11.26,11.26,0,0,0-9.75,0,9.22,9.22,0,0,0-3.25,3,13.2,13.2,0,0,0-1.82,4.25,21.17,21.17,0,0,0-.56,4.93A19.59,19.59,0,0,0,843.08,392.11Z"/><path class="cls-2" d="M1027.18,403.05q-4.4,3.82-12.13,3.82t-12.16-3.79c-2.87-2.53-4.31-6.42-4.31-11.7v-24h8.51v24a17.58,17.58,0,0,0,.27,3.09,6.37,6.37,0,0,0,1.13,2.68,6.28,6.28,0,0,0,2.41,1.9,9.93,9.93,0,0,0,4.15.73q4.55,0,6.28-2c1.16-1.36,1.73-3.48,1.73-6.37v-24h8.51v24Q1031.57,399.24,1027.18,403.05Z"/><path class="cls-2" d="M1171.68,367.77v31.52h18.85v7.15h-27.35V367.77Z"/><path class="cls-2" d="M2318.06,516.05l14.42,38.56h-8.8l-2.92-8.59h-14.42l-3,8.59h-8.53l14.58-38.56Zm.49,23.66-4.86-14.15h-.11l-5,14.15Z"/><path class="cls-2" d="M2466,516.05a24.21,24.21,0,0,1,5,.49,10.86,10.86,0,0,1,3.89,1.59,7.37,7.37,0,0,1,2.51,3,10.22,10.22,0,0,1,.89,4.53,8.43,8.43,0,0,1-1.32,4.86,9.62,9.62,0,0,1-3.91,3.19,9.3,9.3,0,0,1,5.32,3.59,11.81,11.81,0,0,1,.62,11.23,9.89,9.89,0,0,1-3.06,3.48,13.35,13.35,0,0,1-4.37,2,19.81,19.81,0,0,1-5.05.65h-18.68V516.05Zm-1.08,15.61a6.11,6.11,0,0,0,3.73-1.08,4.09,4.09,0,0,0,1.46-3.51,4.49,4.49,0,0,0-.49-2.21,3.52,3.52,0,0,0-1.3-1.35,5.43,5.43,0,0,0-1.86-.68,12.93,12.93,0,0,0-2.19-.19h-7.93v9Zm.49,16.36a11.34,11.34,0,0,0,2.37-.24,5.68,5.68,0,0,0,2-.81,4,4,0,0,0,1.38-1.54,5.34,5.34,0,0,0,.51-2.48c0-2-.56-3.4-1.67-4.24a7.12,7.12,0,0,0-4.43-1.27h-9.23V548Z"/><path class="cls-2" d="M2609,527.5a19.19,19.19,0,0,1,3.73-6.45,17,17,0,0,1,6-4.32,21.07,21.07,0,0,1,16,0,17,17,0,0,1,5.94,4.32,19.36,19.36,0,0,1,3.73,6.45,24.22,24.22,0,0,1,1.29,8,23.39,23.39,0,0,1-1.29,7.86,18.85,18.85,0,0,1-3.73,6.34,17.05,17.05,0,0,1-5.94,4.24,21.45,21.45,0,0,1-16,0,17,17,0,0,1-6-4.24,18.69,18.69,0,0,1-3.73-6.34,23.4,23.4,0,0,1-1.3-7.86A24.22,24.22,0,0,1,2609,527.5Zm7.75,12.75a12.82,12.82,0,0,0,1.81,4.13,9.36,9.36,0,0,0,3.24,2.94,11.19,11.19,0,0,0,9.72,0,9.36,9.36,0,0,0,3.24-2.94,12.82,12.82,0,0,0,1.81-4.13,19.56,19.56,0,0,0,.56-4.73,20.94,20.94,0,0,0-.56-4.91,13,13,0,0,0-1.81-4.24,9.25,9.25,0,0,0-3.24-3,11.19,11.19,0,0,0-9.72,0,9.25,9.25,0,0,0-3.24,3,13,13,0,0,0-1.81,4.24,21,21,0,0,0-.57,4.91A19.57,19.57,0,0,0,2616.7,540.25Z"/><path class="cls-2" d="M2800.73,551.24q-4.38,3.79-12.1,3.8t-12.12-3.78q-4.29-3.78-4.29-11.66v-24h8.47v24a17.55,17.55,0,0,0,.27,3.08,6.22,6.22,0,0,0,1.14,2.67,6.32,6.32,0,0,0,2.4,1.89,9.86,9.86,0,0,0,4.13.73c3,0,5.11-.68,6.27-2s1.72-3.46,1.72-6.34v-24h8.48v24Q2805.1,547.43,2800.73,551.24Z"/><path class="cls-2" d="M2935.27,522.27v-7.13h31.59v7.13h-11.55V553.7h-8.48V522.27Z"/><path class="cls-2" d="M1819.59,237.66a6,6,0,0,0,1.87,2.18,8,8,0,0,0,2.72,1.24,13,13,0,0,0,3.24.41,16.26,16.26,0,0,0,2.43-.19,8.17,8.17,0,0,0,2.43-.73,5.22,5.22,0,0,0,1.89-1.48,3.7,3.7,0,0,0,.76-2.41,3.34,3.34,0,0,0-1-2.53,7.9,7.9,0,0,0-2.62-1.62,25.74,25.74,0,0,0-3.67-1.14c-1.37-.32-2.76-.68-4.16-1.08a37.41,37.41,0,0,1-4.21-1.32,14.32,14.32,0,0,1-3.67-2,9.06,9.06,0,0,1-3.62-7.61,10.07,10.07,0,0,1,1.27-5.16,11.45,11.45,0,0,1,3.32-3.64,14.54,14.54,0,0,1,4.64-2.16,19.71,19.71,0,0,1,5.19-.7,24.5,24.5,0,0,1,5.8.67,14.39,14.39,0,0,1,4.94,2.19,11.08,11.08,0,0,1,3.43,3.86,11.8,11.8,0,0,1,1.27,5.7h-8.21a6.72,6.72,0,0,0-.73-2.87,4.78,4.78,0,0,0-1.64-1.78,7.08,7.08,0,0,0-2.35-.92,14.56,14.56,0,0,0-2.89-.27,10.13,10.13,0,0,0-2,.22,5.42,5.42,0,0,0-1.87.76,4.64,4.64,0,0,0-1.37,1.35,3.61,3.61,0,0,0-.54,2.05,3.42,3.42,0,0,0,.43,1.83,3.86,3.86,0,0,0,1.7,1.3,21.64,21.64,0,0,0,3.51,1.19c1.49.39,3.45.9,5.86,1.51.72.14,1.72.41,3,.78a14.35,14.35,0,0,1,3.81,1.81,11.63,11.63,0,0,1,3.27,3.32,9.45,9.45,0,0,1,1.38,5.32,11.88,11.88,0,0,1-1,4.92,10.65,10.65,0,0,1-3,3.91,14.76,14.76,0,0,1-5,2.57,23.83,23.83,0,0,1-6.94.91,24.34,24.34,0,0,1-6.18-.78,15.47,15.47,0,0,1-5.3-2.46,12,12,0,0,1-3.64-4.26,12.81,12.81,0,0,1-1.3-6.16h8.21A7.06,7.06,0,0,0,1819.59,237.66Z"/><path class="cls-2" d="M2003.36,208.54v7.13H1983v8.26h18.68v6.59H1983V240h20.79v7.12h-29.27V208.54Z"/><path class="cls-2" d="M2153.86,208.54a12.57,12.57,0,0,1,4.67.83,10.87,10.87,0,0,1,3.56,2.3,10,10,0,0,1,2.27,3.37,10.89,10.89,0,0,1,.78,4.14,11.51,11.51,0,0,1-1.43,5.88,8.93,8.93,0,0,1-4.67,3.78V229a6.54,6.54,0,0,1,2.59,1.32,7.32,7.32,0,0,1,1.68,2.11,9.94,9.94,0,0,1,.94,2.67,22.54,22.54,0,0,1,.41,2.92c0,.61.07,1.33.1,2.16s.1,1.67.19,2.54a16.65,16.65,0,0,0,.44,2.45,5.41,5.41,0,0,0,.89,2h-8.48a14.59,14.59,0,0,1-.86-4.37c-.11-1.69-.27-3.31-.49-4.86a7.65,7.65,0,0,0-1.84-4.43c-.93-.93-2.46-1.4-4.59-1.4h-8.48v15.06h-8.47V208.54Zm-3,17.44a6.39,6.39,0,0,0,4.38-1.3,5.37,5.37,0,0,0,1.46-4.21,5.16,5.16,0,0,0-1.46-4.08,6.54,6.54,0,0,0-4.38-1.26h-9.29V226Z"/><path class="cls-2" d="M2308.05,247.09l-12.47-38.55h8.69l8.59,27.11h.11l8.69-27.11h8.75l-12.8,38.55Z"/><path class="cls-2" d="M2468,208.54v38.55h-8.48V208.54Z"/><path class="cls-2" d="M2634.86,218.85a8.71,8.71,0,0,0-1.89-2.13,8.95,8.95,0,0,0-5.57-1.95,9.92,9.92,0,0,0-4.86,1.11,9.25,9.25,0,0,0-3.24,3,13.26,13.26,0,0,0-1.81,4.24,21.55,21.55,0,0,0-.56,4.91,20.07,20.07,0,0,0,.56,4.73,13,13,0,0,0,1.81,4.13,9.26,9.26,0,0,0,3.24,2.94,9.92,9.92,0,0,0,4.86,1.11,7.83,7.83,0,0,0,6.08-2.38,10.93,10.93,0,0,0,2.67-6.26h8.21a19.66,19.66,0,0,1-1.67,6.53,15.57,15.57,0,0,1-3.57,5,15,15,0,0,1-5.18,3.13,19,19,0,0,1-6.54,1.08,19.86,19.86,0,0,1-8-1.53,17.11,17.11,0,0,1-6-4.24,18.71,18.71,0,0,1-3.72-6.35,23.15,23.15,0,0,1-1.3-7.86,23.86,23.86,0,0,1,1.3-8,19.21,19.21,0,0,1,3.72-6.46,17.18,17.18,0,0,1,6-4.32,20.77,20.77,0,0,1,14-.65,16.46,16.46,0,0,1,5.08,2.68,14.55,14.55,0,0,1,3.7,4.34,15.74,15.74,0,0,1,1.84,5.94h-8.21A7.08,7.08,0,0,0,2634.86,218.85Z"/><path class="cls-2" d="M2802.66,208.54v7.13H2782.3v8.26H2801v6.59H2782.3V240h20.79v7.12h-29.27V208.54Z"/><path class="cls-2" d="M2942.92,237.62a6.09,6.09,0,0,0,1.86,2.18,8.05,8.05,0,0,0,2.73,1.25,12.84,12.84,0,0,0,3.24.4,16.26,16.26,0,0,0,2.43-.19,8.35,8.35,0,0,0,2.43-.73,5.31,5.31,0,0,0,1.89-1.48,3.76,3.76,0,0,0,.76-2.41,3.38,3.38,0,0,0-1-2.53,7.9,7.9,0,0,0-2.62-1.62,26.15,26.15,0,0,0-3.67-1.14c-1.37-.32-2.76-.68-4.16-1.08a36.77,36.77,0,0,1-4.21-1.32,14.38,14.38,0,0,1-3.68-2,9,9,0,0,1-3.61-7.61,10.07,10.07,0,0,1,1.27-5.16,11.45,11.45,0,0,1,3.32-3.64,14.44,14.44,0,0,1,4.64-2.16,19.7,19.7,0,0,1,5.18-.7,24.58,24.58,0,0,1,5.81.67,14.47,14.47,0,0,1,4.94,2.19,11.08,11.08,0,0,1,3.43,3.86,11.91,11.91,0,0,1,1.27,5.7H2957a6.91,6.91,0,0,0-.73-2.87,4.72,4.72,0,0,0-1.65-1.78,7.16,7.16,0,0,0-2.34-.92,14.56,14.56,0,0,0-2.89-.27,10.3,10.3,0,0,0-2.06.22,5.45,5.45,0,0,0-1.86.76,4.68,4.68,0,0,0-1.38,1.35,3.61,3.61,0,0,0-.54,2.05,3.42,3.42,0,0,0,.44,1.83,3.8,3.8,0,0,0,1.7,1.3,21.3,21.3,0,0,0,3.51,1.19q2.24.6,5.86,1.51c.72.14,1.71.41,3,.78a14.67,14.67,0,0,1,3.81,1.81,11.63,11.63,0,0,1,3.27,3.32,9.53,9.53,0,0,1,1.37,5.32,11.88,11.88,0,0,1-1,4.92,10.75,10.75,0,0,1-3.05,3.91,14.67,14.67,0,0,1-5,2.57,23.88,23.88,0,0,1-6.94.91,24.48,24.48,0,0,1-6.19-.78,15.42,15.42,0,0,1-5.29-2.46,11.93,11.93,0,0,1-3.64-4.26,12.7,12.7,0,0,1-1.3-6.16h8.21A7.06,7.06,0,0,0,2942.92,237.62Z"/><path class="cls-2" d="M3284.13,378.22a8.32,8.32,0,0,0-1.89-2.13,8.57,8.57,0,0,0-2.56-1.43,8.69,8.69,0,0,0-3-.52,9.86,9.86,0,0,0-4.86,1.11,9.25,9.25,0,0,0-3.24,3,13,13,0,0,0-1.81,4.24,21,21,0,0,0-.57,4.91,19.57,19.57,0,0,0,.57,4.73,12.82,12.82,0,0,0,1.81,4.13,9.36,9.36,0,0,0,3.24,2.94,9.86,9.86,0,0,0,4.86,1.11,7.81,7.81,0,0,0,6.07-2.38,11,11,0,0,0,2.68-6.26h8.2a19.42,19.42,0,0,1-1.67,6.53,15.7,15.7,0,0,1-3.56,5,15.18,15.18,0,0,1-5.19,3.13,19,19,0,0,1-6.53,1.08,19.74,19.74,0,0,1-8-1.54,16.82,16.82,0,0,1-6-4.24,18.69,18.69,0,0,1-3.73-6.34,23.4,23.4,0,0,1-1.3-7.86,24.22,24.22,0,0,1,1.3-8,19.29,19.29,0,0,1,3.73-6.45,17,17,0,0,1,6-4.32,20.64,20.64,0,0,1,14-.65,16.57,16.57,0,0,1,5.08,2.68,14.39,14.39,0,0,1,3.69,4.34,15.39,15.39,0,0,1,1.84,5.94h-8.21A6.92,6.92,0,0,0,3284.13,378.22Z"/><path class="cls-2" d="M3443.5,367.91l14.42,38.55h-8.8l-2.92-8.58h-14.42l-3,8.58h-8.53l14.58-38.55Zm.49,23.65-4.86-14.15H3439l-5,14.15Z"/><path class="cls-2" d="M3596.54,367.91v31.42h18.79v7.13h-27.27V367.91Z"/><path class="cls-2" d="M3778,367.91V375h-20.36v8.27h18.69v6.58h-18.69v9.45h20.79v7.13h-29.27V367.91Z"/><path class="cls-2" d="M3918.11,367.91l16.09,25.86h.11V367.91h7.94v38.55h-8.48l-16-25.81h-.11v25.81h-7.94V367.91Z"/><path class="cls-2" d="M4075.88,367.91a19.87,19.87,0,0,1,6.94,1.18,15.06,15.06,0,0,1,5.56,3.57,16.45,16.45,0,0,1,3.68,5.94,24,24,0,0,1,1.32,8.37,26.63,26.63,0,0,1-1.08,7.77,17.09,17.09,0,0,1-3.27,6.16,15.28,15.28,0,0,1-5.45,4.08,18.46,18.46,0,0,1-7.7,1.48h-16.63V367.91Zm-.59,31.42a10.77,10.77,0,0,0,3.56-.59,7.81,7.81,0,0,0,3.08-2,10,10,0,0,0,2.16-3.59,15.83,15.83,0,0,0,.81-5.4,22.4,22.4,0,0,0-.57-5.27,10.35,10.35,0,0,0-1.86-4,8.28,8.28,0,0,0-3.43-2.57,13.76,13.76,0,0,0-5.26-.89h-6.05v24.3Z"/><path class="cls-2" d="M4243.37,367.91l14.42,38.55H4249l-2.91-8.58h-14.42l-3,8.58h-8.54l14.58-38.55Zm.48,23.65L4239,377.41h-.1l-5,14.15Z"/><path class="cls-2" d="M4405.18,367.91a12.41,12.41,0,0,1,4.67.83,10.87,10.87,0,0,1,3.56,2.3,9.88,9.88,0,0,1,2.27,3.37,10.88,10.88,0,0,1,.78,4.13,11.65,11.65,0,0,1-1.43,5.89,8.93,8.93,0,0,1-4.67,3.78v.11a6.61,6.61,0,0,1,2.59,1.32,7.35,7.35,0,0,1,1.68,2.11,9.94,9.94,0,0,1,.94,2.67,24.13,24.13,0,0,1,.41,2.92c0,.61.07,1.33.1,2.16s.1,1.67.19,2.53a18,18,0,0,0,.43,2.46,5.68,5.68,0,0,0,.9,2h-8.48a14.9,14.9,0,0,1-.87-4.37c-.1-1.69-.27-3.31-.48-4.86a7.65,7.65,0,0,0-1.84-4.43c-.93-.94-2.46-1.4-4.59-1.4h-8.48v15.06h-8.47V367.91Zm-3,17.44a6.4,6.4,0,0,0,4.38-1.3,5.38,5.38,0,0,0,1.45-4.21,5.16,5.16,0,0,0-1.45-4.08,6.56,6.56,0,0,0-4.38-1.27h-9.29v10.86Z"/></svg>