<svg id="Layer_1" data-name="Layer 1" xmlns="http://www.w3.org/2000/svg" viewBox="0 0 2306.63 1178.55"><defs><style>.cls-1{fill:#231f20;}</style></defs><title>PSP_logo-choreographed-DESKTOP-05-05</title><path class="cls-1" d="M564.69,819.89a12.71,12.71,0,0,1,2.72-4,12.89,12.89,0,0,1,4-2.72,12.88,12.88,0,0,1,9.95,0,13.43,13.43,0,0,1,4.08,2.72,12.8,12.8,0,0,1,2.75,4,12.85,12.85,0,0,1,0,9.94,13.16,13.16,0,0,1-2.75,4.08,13,13,0,0,1-4.08,2.76,12.64,12.64,0,0,1-14-2.76,13.07,13.07,0,0,1-2.72-4.08,12.85,12.85,0,0,1,0-9.94Z"/><path class="cls-1" d="M564.69,143.18a12.62,12.62,0,0,1,6.76-6.76,12.76,12.76,0,0,1,9.95,0,13.22,13.22,0,0,1,4.08,2.71,12.8,12.8,0,0,1,2.75,4.05,12.88,12.88,0,0,1,0,9.95A13,13,0,0,1,581.4,160a12.64,12.64,0,0,1-14-2.76,12.92,12.92,0,0,1-2.72-4.07,12.88,12.88,0,0,1,0-9.95Z"/><path class="cls-1" d="M1268,819.89a12.65,12.65,0,0,1,6.77-6.77,12.85,12.85,0,0,1,9.94,0,13.43,13.43,0,0,1,4.08,2.72,12.66,12.66,0,0,1,2.76,4,12.85,12.85,0,0,1,0,9.94,13,13,0,0,1-6.84,6.84,12.85,12.85,0,0,1-9.94,0,12.55,12.55,0,0,1-4-2.76,13.43,13.43,0,0,1-2.72-4.08,12.85,12.85,0,0,1,0-9.94Z"/><path class="cls-1" d="M1268,141.36a13.05,13.05,0,0,1,2.72-4.05,12.74,12.74,0,0,1,4-2.71,12.73,12.73,0,0,1,9.94,0,13.22,13.22,0,0,1,4.08,2.71,12.66,12.66,0,0,1,2.76,4.05,12.88,12.88,0,0,1,0,9.95,13,13,0,0,1-2.76,4.08,13.16,13.16,0,0,1-4.08,2.75,12.85,12.85,0,0,1-9.94,0,12.68,12.68,0,0,1-4-2.75,13.43,13.43,0,0,1-2.72-4.08,12.88,12.88,0,0,1,0-9.95Z"/><path class="cls-1" d="M1502.48,143a12.68,12.68,0,0,1,6.76-6.77,12.88,12.88,0,0,1,10,0,13.43,13.43,0,0,1,4.08,2.72,12.75,12.75,0,0,1,2.76,14,13,13,0,0,1-6.84,6.84,12.88,12.88,0,0,1-10,0,12.62,12.62,0,0,1-4-2.76,13.31,13.31,0,0,1-2.72-4.08,12.85,12.85,0,0,1,0-9.94Z"/><path class="cls-1" d="M1736.93,143a12.68,12.68,0,0,1,6.76-6.77,12.88,12.88,0,0,1,10,0,13.43,13.43,0,0,1,4.08,2.72,12.75,12.75,0,0,1,2.76,14,13,13,0,0,1-6.84,6.84,12.88,12.88,0,0,1-10,0,12.62,12.62,0,0,1-4-2.76,13.31,13.31,0,0,1-2.72-4.08,12.85,12.85,0,0,1,0-9.94Z"/><path class="cls-1" d="M1963.72,388.89a12.67,12.67,0,0,1,2.72-4,12.89,12.89,0,0,1,4-2.72,12.88,12.88,0,0,1,10,0,13.43,13.43,0,0,1,4.08,2.72,12.75,12.75,0,0,1,2.75,4,12.88,12.88,0,0,1,0,9.95,13.16,13.16,0,0,1-2.75,4.08,13,13,0,0,1-4.08,2.76,12.64,12.64,0,0,1-14-2.76,13.07,13.07,0,0,1-2.72-4.08,12.88,12.88,0,0,1,0-9.95Z"/><path class="cls-1" d="M1963.72,143.18a12.62,12.62,0,0,1,6.76-6.76,12.76,12.76,0,0,1,10,0,13.22,13.22,0,0,1,4.08,2.71,12.8,12.8,0,0,1,2.75,4.05,12.88,12.88,0,0,1,0,9.95,13,13,0,0,1-6.83,6.83,12.64,12.64,0,0,1-14-2.76,12.92,12.92,0,0,1-2.72-4.07,12.88,12.88,0,0,1,0-9.95Z"/><path class="cls-1" d="M330.24,141.36a12.88,12.88,0,0,1,2.72-4.05,12.7,12.7,0,0,1,4-2.71,12.76,12.76,0,0,1,9.95,0,13.22,13.22,0,0,1,4.08,2.71,12.78,12.78,0,0,1,2.75,14,12.82,12.82,0,0,1-2.75,4.08,13.16,13.16,0,0,1-4.08,2.75,12.88,12.88,0,0,1-9.95,0,12.64,12.64,0,0,1-4-2.75,13.25,13.25,0,0,1-2.72-4.08,12.88,12.88,0,0,1,0-9.95Z"/><path class="cls-1" d="M104.63,389.12a12.89,12.89,0,0,1,2.72-4,12.72,12.72,0,0,1,4-2.72,12.88,12.88,0,0,1,10,0,13.25,13.25,0,0,1,4.08,2.72,12.76,12.76,0,0,1,2.75,14,12.82,12.82,0,0,1-2.75,4.08,13,13,0,0,1-4.08,2.76,12.64,12.64,0,0,1-14-2.76,13.43,13.43,0,0,1-2.72-4.08,12.88,12.88,0,0,1,0-9.95Z"/><path class="cls-1" d="M104.63,604.45a13.05,13.05,0,0,1,2.72-4.05,12.89,12.89,0,0,1,4-2.72,12.88,12.88,0,0,1,10,0,13.43,13.43,0,0,1,4.08,2.72,12.76,12.76,0,0,1,2.75,14,12.71,12.71,0,0,1-2.75,4.08,13,13,0,0,1-4.08,2.76,12.64,12.64,0,0,1-14-2.76,13.31,13.31,0,0,1-2.72-4.08,12.85,12.85,0,0,1,0-9.94Z"/><path class="cls-1" d="M104.63,141.36a13.05,13.05,0,0,1,2.72-4.05,12.7,12.7,0,0,1,4-2.71,12.76,12.76,0,0,1,10,0,13.22,13.22,0,0,1,4.08,2.71,12.78,12.78,0,0,1,2.75,14,12.82,12.82,0,0,1-2.75,4.08,13.16,13.16,0,0,1-4.08,2.75,12.88,12.88,0,0,1-10,0,12.64,12.64,0,0,1-4-2.75,13.43,13.43,0,0,1-2.72-4.08,12.88,12.88,0,0,1,0-9.95Z"/><path class="cls-1" d="M104.63,819.89a13.05,13.05,0,0,1,2.72-4,12.89,12.89,0,0,1,4-2.72,12.88,12.88,0,0,1,10,0,13.43,13.43,0,0,1,4.08,2.72,12.76,12.76,0,0,1,2.75,14,12.82,12.82,0,0,1-2.75,4.08,13,13,0,0,1-4.08,2.76,12.64,12.64,0,0,1-14-2.76,13.43,13.43,0,0,1-2.72-4.08,12.85,12.85,0,0,1,0-9.94Z"/><path class="cls-1" d="M2194.83,604.45a12.68,12.68,0,0,1,6.76-6.77,12.88,12.88,0,0,1,9.95,0,13.43,13.43,0,0,1,4.08,2.72,12.75,12.75,0,0,1,2.76,14,13,13,0,0,1-6.84,6.84,12.88,12.88,0,0,1-9.95,0,12.62,12.62,0,0,1-4-2.76,13.31,13.31,0,0,1-2.72-4.08,12.85,12.85,0,0,1,0-9.94Z"/><path class="cls-1" d="M2194.83,389.12a12.71,12.71,0,0,1,6.76-6.76,12.88,12.88,0,0,1,9.95,0,13.25,13.25,0,0,1,4.08,2.72,12.75,12.75,0,0,1,2.76,14,13,13,0,0,1-6.84,6.84,12.64,12.64,0,0,1-14-2.76,13.43,13.43,0,0,1-2.72-4.08,12.88,12.88,0,0,1,0-9.95Z"/><path class="cls-1" d="M2194.83,141.36a13.05,13.05,0,0,1,2.72-4.05,12.81,12.81,0,0,1,4-2.71,12.76,12.76,0,0,1,9.95,0,13.22,13.22,0,0,1,4.08,2.71,12.76,12.76,0,0,1,2.76,14,13,13,0,0,1-2.76,4.08,13.16,13.16,0,0,1-4.08,2.75,12.88,12.88,0,0,1-9.95,0,12.75,12.75,0,0,1-4-2.75,13.43,13.43,0,0,1-2.72-4.08,12.88,12.88,0,0,1,0-9.95Z"/><path class="cls-1" d="M799.14,143.12a12.56,12.56,0,0,1,2.72-4,12.72,12.72,0,0,1,4-2.72,12.85,12.85,0,0,1,9.94,0,13.18,13.18,0,0,1,4.09,2.72,12.64,12.64,0,0,1,2.75,4,12.88,12.88,0,0,1,0,9.95,13.16,13.16,0,0,1-2.75,4.08,12.92,12.92,0,0,1-4.09,2.75,12.73,12.73,0,0,1-9.94,0,12.48,12.48,0,0,1-4-2.75,13.07,13.07,0,0,1-2.72-4.08,12.88,12.88,0,0,1,0-9.95Z"/><path class="cls-1" d="M330.24,604.33a12.71,12.71,0,0,1,6.76-6.76,12.88,12.88,0,0,1,9.95,0,13.25,13.25,0,0,1,4.08,2.72,12.76,12.76,0,0,1,2.75,14,12.87,12.87,0,0,1-6.83,6.83,12.67,12.67,0,0,1-14-2.75,13.25,13.25,0,0,1-2.72-4.08,12.88,12.88,0,0,1,0-9.95Z"/><path class="cls-1" d="M330.24,819.89a12.68,12.68,0,0,1,6.76-6.77,12.88,12.88,0,0,1,9.95,0,13.43,13.43,0,0,1,4.08,2.72,12.76,12.76,0,0,1,2.75,14,12.82,12.82,0,0,1-2.75,4.08,13,13,0,0,1-4.08,2.76,12.64,12.64,0,0,1-14-2.76,13.25,13.25,0,0,1-2.72-4.08,12.85,12.85,0,0,1,0-9.94Z"/><path class="cls-1" d="M799.14,819.77a12.56,12.56,0,0,1,2.72-4,12.72,12.72,0,0,1,4-2.72,12.85,12.85,0,0,1,9.94,0,13.18,13.18,0,0,1,4.09,2.72,12.64,12.64,0,0,1,2.75,4,12.88,12.88,0,0,1,0,10,13.16,13.16,0,0,1-2.75,4.08,12.92,12.92,0,0,1-4.09,2.75,12.85,12.85,0,0,1-9.94,0,12.48,12.48,0,0,1-4-2.75,13.07,13.07,0,0,1-2.72-4.08,12.88,12.88,0,0,1,0-10Z"/><path class="cls-1" d="M1033.59,819.89a12.59,12.59,0,0,1,6.76-6.77,12.85,12.85,0,0,1,9.94,0,13.19,13.19,0,0,1,4.08,2.72,12.66,12.66,0,0,1,2.76,4,12.85,12.85,0,0,1,0,9.94,13,13,0,0,1-2.76,4.08,12.79,12.79,0,0,1-4.08,2.76,12.85,12.85,0,0,1-9.94,0,12.55,12.55,0,0,1-4-2.76,13.22,13.22,0,0,1-2.71-4.08,12.73,12.73,0,0,1,0-9.94Z"/><path class="cls-1" d="M1502.48,819.89a12.68,12.68,0,0,1,6.76-6.77,12.88,12.88,0,0,1,10,0,13.43,13.43,0,0,1,4.08,2.72,12.75,12.75,0,0,1,2.76,14,13,13,0,0,1-6.84,6.84,12.88,12.88,0,0,1-10,0,12.62,12.62,0,0,1-4-2.76,13.43,13.43,0,0,1-2.72-4.08,12.85,12.85,0,0,1,0-9.94Z"/><path class="cls-1" d="M2194.83,825a12.71,12.71,0,0,1,6.76-6.76,12.88,12.88,0,0,1,9.95,0,13.25,13.25,0,0,1,4.08,2.72,12.75,12.75,0,0,1,2.76,14,13,13,0,0,1-2.76,4.08,12.82,12.82,0,0,1-4.08,2.75,12.67,12.67,0,0,1-14-2.75,13.43,13.43,0,0,1-2.72-4.08,12.88,12.88,0,0,1,0-9.95Z"/><path class="cls-1" d="M1736.93,819.89a12.68,12.68,0,0,1,6.76-6.77,12.88,12.88,0,0,1,10,0,13.43,13.43,0,0,1,4.08,2.72,12.75,12.75,0,0,1,2.76,14,13,13,0,0,1-6.84,6.84,12.88,12.88,0,0,1-10,0,12.62,12.62,0,0,1-4-2.76,13.43,13.43,0,0,1-2.72-4.08,12.85,12.85,0,0,1,0-9.94Z"/><path class="cls-1" d="M1963.72,819.89a12.71,12.71,0,0,1,2.72-4,12.89,12.89,0,0,1,4-2.72,12.88,12.88,0,0,1,10,0,13.43,13.43,0,0,1,4.08,2.72,12.8,12.8,0,0,1,2.75,4,12.85,12.85,0,0,1,0,9.94,13.16,13.16,0,0,1-2.75,4.08,13,13,0,0,1-4.08,2.76,12.64,12.64,0,0,1-14-2.76,13.07,13.07,0,0,1-2.72-4.08,12.85,12.85,0,0,1,0-9.94Z"/><path class="cls-1" d="M564.69,1019.77a12.62,12.62,0,0,1,6.76-6.76,12.76,12.76,0,0,1,9.95,0,13.22,13.22,0,0,1,4.08,2.71,12.8,12.8,0,0,1,2.75,4,12.88,12.88,0,0,1,0,10,13,13,0,0,1-6.83,6.83,12.64,12.64,0,0,1-14-2.76,13,13,0,0,1-2.72-4.07,12.88,12.88,0,0,1,0-10Z"/><path class="cls-1" d="M330.24,1019.71A12.71,12.71,0,0,1,337,1013a12.88,12.88,0,0,1,9.95,0,13.25,13.25,0,0,1,4.08,2.72,12.76,12.76,0,0,1,2.75,14,12.82,12.82,0,0,1-2.75,4.08,13,13,0,0,1-4.08,2.75,12.67,12.67,0,0,1-14-2.75,13.25,13.25,0,0,1-2.72-4.08,12.88,12.88,0,0,1,0-10Z"/><path class="cls-1" d="M104.63,1019.71a12.89,12.89,0,0,1,2.72-4,12.72,12.72,0,0,1,4-2.72,12.88,12.88,0,0,1,10,0,13.25,13.25,0,0,1,4.08,2.72,12.76,12.76,0,0,1,2.75,14,12.82,12.82,0,0,1-2.75,4.08,13,13,0,0,1-4.08,2.75,12.67,12.67,0,0,1-14-2.75,13.43,13.43,0,0,1-2.72-4.08,12.88,12.88,0,0,1,0-10Z"/><path class="cls-1" d="M799.14,1019.77a12.62,12.62,0,0,1,6.76-6.76,12.73,12.73,0,0,1,9.94,0,13.15,13.15,0,0,1,4.09,2.71,12.8,12.8,0,0,1,2.75,4,12.88,12.88,0,0,1,0,10,13.11,13.11,0,0,1-2.75,4.07,13,13,0,0,1-4.09,2.76,12.85,12.85,0,0,1-9.94,0,12.51,12.51,0,0,1-4-2.76,13,13,0,0,1-2.72-4.07,12.88,12.88,0,0,1,0-10Z"/><path class="cls-1" d="M1033.59,143.18a12.53,12.53,0,0,1,6.76-6.76,12.73,12.73,0,0,1,9.94,0,13,13,0,0,1,4.08,2.71,12.66,12.66,0,0,1,2.76,4.05,12.88,12.88,0,0,1,0,9.95,13,13,0,0,1-6.84,6.83,12.85,12.85,0,0,1-9.94,0,12.55,12.55,0,0,1-4-2.76,13.06,13.06,0,0,1-2.71-4.07,12.76,12.76,0,0,1,0-9.95Z"/><path class="cls-1" d="M354.53,380.62a12.75,12.75,0,0,0-2.8-3.16,13.11,13.11,0,0,0-8.24-2.88,14.68,14.68,0,0,0-7.2,1.64,13.71,13.71,0,0,0-4.8,4.4,19.27,19.27,0,0,0-2.68,6.28,31.32,31.32,0,0,0-.84,7.28,29,29,0,0,0,.84,7,18.78,18.78,0,0,0,2.68,6.12,13.7,13.7,0,0,0,4.8,4.36,14.57,14.57,0,0,0,7.2,1.64q5.76,0,9-3.52a16.26,16.26,0,0,0,4-9.28h12.16a29.08,29.08,0,0,1-2.48,9.68,23,23,0,0,1-5.28,7.36,22.35,22.35,0,0,1-7.68,4.64,28,28,0,0,1-9.68,1.6,29.29,29.29,0,0,1-11.8-2.28,25.27,25.27,0,0,1-8.84-6.28,27.74,27.74,0,0,1-5.52-9.4,34.5,34.5,0,0,1-1.92-11.64,35.75,35.75,0,0,1,1.92-11.88,28.57,28.57,0,0,1,5.52-9.56,25.31,25.31,0,0,1,8.84-6.4,30.63,30.63,0,0,1,20.72-1,24.25,24.25,0,0,1,7.52,4,21.53,21.53,0,0,1,5.48,6.44,23,23,0,0,1,2.72,8.8H356A10.15,10.15,0,0,0,354.53,380.62Z"/><path class="cls-1" d="M564.9,365.57v21.92H588V365.57h12.56v57.12H588V398.05H564.9v24.64H552.34V365.57Z"/><path class="cls-1" d="M784.75,382.3a28.57,28.57,0,0,1,5.52-9.56,25.22,25.22,0,0,1,8.84-6.4,31.27,31.27,0,0,1,23.64,0,25.43,25.43,0,0,1,8.8,6.4,28.57,28.57,0,0,1,5.52,9.56A35.75,35.75,0,0,1,839,394.18a34.5,34.5,0,0,1-1.92,11.64,27.74,27.74,0,0,1-5.52,9.4,25.39,25.39,0,0,1-8.8,6.28,31.78,31.78,0,0,1-23.64,0,25.18,25.18,0,0,1-8.84-6.28,27.74,27.74,0,0,1-5.52-9.4,34.5,34.5,0,0,1-1.92-11.64A35.75,35.75,0,0,1,784.75,382.3Zm11.48,18.88a18.78,18.78,0,0,0,2.68,6.12,13.53,13.53,0,0,0,4.8,4.36,16.62,16.62,0,0,0,14.4,0,13.7,13.7,0,0,0,4.8-4.36,19,19,0,0,0,2.68-6.12,29,29,0,0,0,.84-7,31.32,31.32,0,0,0-.84-7.28,19.49,19.49,0,0,0-2.68-6.28,13.71,13.71,0,0,0-4.8-4.4,16.62,16.62,0,0,0-14.4,0,13.54,13.54,0,0,0-4.8,4.4,19.27,19.27,0,0,0-2.68,6.28,31.32,31.32,0,0,0-.84,7.28A29,29,0,0,0,796.23,401.18Z"/><path class="cls-1" d="M1051.56,363.68a18.35,18.35,0,0,1,6.92,1.24,16,16,0,0,1,5.28,3.4,15,15,0,0,1,3.36,5,16.07,16.07,0,0,1,1.16,6.12,17.2,17.2,0,0,1-2.12,8.72,13.36,13.36,0,0,1-6.92,5.6v.16a9.82,9.82,0,0,1,3.84,2,10.92,10.92,0,0,1,2.48,3.12,14.75,14.75,0,0,1,1.4,4,35.6,35.6,0,0,1,.6,4.32c0,.91.1,2,.16,3.2s.14,2.48.28,3.76a24,24,0,0,0,.64,3.64,8.26,8.26,0,0,0,1.32,2.92H1057.4a21.89,21.89,0,0,1-1.28-6.48q-.24-3.76-.72-7.2c-.43-3-1.34-5.17-2.72-6.56s-3.66-2.08-6.8-2.08h-12.56V420.8h-12.56V363.68Zm-4.48,25.84q4.32,0,6.48-1.92t2.16-6.24c0-2.77-.72-4.79-2.16-6s-3.6-1.88-6.48-1.88h-13.76v16.08Z"/><path class="cls-1" d="M1300.85,365.57v10.56h-30.16v12.24h27.68v9.76h-27.68v14h30.8v10.56h-43.36V365.57Z"/><path class="cls-1" d="M1488.09,382.3a28.59,28.59,0,0,1,5.53-9.56,25.13,25.13,0,0,1,8.84-6.4,31.24,31.24,0,0,1,23.63,0,25.25,25.25,0,0,1,8.8,6.4,28.59,28.59,0,0,1,5.53,9.56,36,36,0,0,1,1.92,11.88,34.75,34.75,0,0,1-1.92,11.64,27.76,27.76,0,0,1-5.53,9.4,25.21,25.21,0,0,1-8.8,6.28,31.75,31.75,0,0,1-23.63,0,25.09,25.09,0,0,1-8.84-6.28,27.76,27.76,0,0,1-5.53-9.4,34.5,34.5,0,0,1-1.92-11.64A35.75,35.75,0,0,1,1488.09,382.3Zm11.49,18.88a18.57,18.57,0,0,0,2.68,6.12,13.58,13.58,0,0,0,4.79,4.36,16.65,16.65,0,0,0,14.41,0,13.7,13.7,0,0,0,4.8-4.36,18.77,18.77,0,0,0,2.67-6.12,28.55,28.55,0,0,0,.84-7,30.79,30.79,0,0,0-.84-7.28,19.25,19.25,0,0,0-2.67-6.28,13.71,13.71,0,0,0-4.8-4.4,16.65,16.65,0,0,0-14.41,0,13.6,13.6,0,0,0-4.79,4.4,19.06,19.06,0,0,0-2.68,6.28,30.79,30.79,0,0,0-.85,7.28A28.55,28.55,0,0,0,1499.58,401.18Z"/><path class="cls-1" d="M586.26,637.5a21,21,0,0,1-8.24,1.72,29.29,29.29,0,0,1-11.8-2.28,25.27,25.27,0,0,1-8.84-6.28,27.74,27.74,0,0,1-5.52-9.4,34.5,34.5,0,0,1-1.92-11.64,35.75,35.75,0,0,1,1.92-11.88,28.57,28.57,0,0,1,5.52-9.56,25.31,25.31,0,0,1,8.84-6.4,29,29,0,0,1,11.8-2.32,27.78,27.78,0,0,1,8.52,1.32,24.21,24.21,0,0,1,7.44,3.88,21,21,0,0,1,8.12,15h-12a12,12,0,0,0-4.32-7.2A12.56,12.56,0,0,0,578,590a14.68,14.68,0,0,0-7.2,1.64,13.71,13.71,0,0,0-4.8,4.4,19.27,19.27,0,0,0-2.68,6.28,31.32,31.32,0,0,0-.84,7.28,29,29,0,0,0,.84,7,18.78,18.78,0,0,0,2.68,6.12,13.79,13.79,0,0,0,4.8,4.36,14.57,14.57,0,0,0,7.2,1.64q6.24,0,9.64-3.16t4-9.16H579v-9.36h24v30.88h-8l-1.28-6.48A18.77,18.77,0,0,1,586.26,637.5Z"/><path class="cls-1" d="M817.11,580.78A18.51,18.51,0,0,1,824,582a16,16,0,0,1,5.28,3.4,14.84,14.84,0,0,1,3.36,5,16.14,16.14,0,0,1,1.16,6.12,17.2,17.2,0,0,1-2.12,8.72,13.31,13.31,0,0,1-6.92,5.6V611a9.82,9.82,0,0,1,3.84,2,10.92,10.92,0,0,1,2.48,3.12,14.75,14.75,0,0,1,1.4,4,35.6,35.6,0,0,1,.6,4.32c0,.91.1,2,.16,3.2s.14,2.48.28,3.76a25.06,25.06,0,0,0,.64,3.64,8.26,8.26,0,0,0,1.32,2.92H823a21.89,21.89,0,0,1-1.28-6.48c-.16-2.5-.4-4.91-.72-7.2q-.65-4.47-2.72-6.56c-1.39-1.38-3.66-2.08-6.8-2.08H798.87V637.9H786.31V580.78Zm-4.48,25.84q4.32,0,6.48-1.92t2.16-6.24q0-4.15-2.16-6t-6.48-1.88H798.87v16.08Z"/><path class="cls-1" d="M1051.92,580.78l21.36,57.12h-13l-4.32-12.72h-21.36l-4.48,12.72h-12.64l21.6-57.12Zm.72,35-7.2-21h-.16l-7.44,21Z"/><path class="cls-1" d="M1282.81,580.78a23.81,23.81,0,0,1,9.12,1.56,17.27,17.27,0,0,1,6.12,4.12,16,16,0,0,1,3.44,5.84,21.82,21.82,0,0,1,0,13.56,15.71,15.71,0,0,1-3.44,5.88,17.14,17.14,0,0,1-6.12,4.12,23.81,23.81,0,0,1-9.12,1.56h-13.2V637.9h-12.56V580.78Zm-3.44,26.88a26.77,26.77,0,0,0,4.16-.32,9.56,9.56,0,0,0,3.52-1.24,6.81,6.81,0,0,0,2.44-2.6,11,11,0,0,0,0-8.8,6.88,6.88,0,0,0-2.44-2.6,9.94,9.94,0,0,0-3.52-1.24,26.77,26.77,0,0,0-4.16-.32h-9.76v17.12Z"/><path class="cls-1" d="M1502.7,580.78V602.7h23.12V580.78h12.56V637.9h-12.56V613.26H1502.7V637.9h-12.57V580.78Z"/><path class="cls-1" d="M1769.74,580.78v10.56h-30.16v12.24h27.68v9.76h-27.68v14h30.8V637.9H1727V580.78Z"/><path class="cls-1" d="M1974.85,580.78a29.48,29.48,0,0,1,10.28,1.76,22.51,22.51,0,0,1,8.24,5.28,24.45,24.45,0,0,1,5.44,8.8,35.54,35.54,0,0,1,2,12.4,39.46,39.46,0,0,1-1.6,11.52,25.4,25.4,0,0,1-4.84,9.12,22.57,22.57,0,0,1-8.08,6,27.31,27.31,0,0,1-11.4,2.2h-24.64V580.78Zm-.88,46.56a16.07,16.07,0,0,0,5.28-.88,11.5,11.5,0,0,0,4.56-2.92,14.69,14.69,0,0,0,3.2-5.32,23.36,23.36,0,0,0,1.2-8,33.3,33.3,0,0,0-.84-7.8,15.61,15.61,0,0,0-2.76-6,12.25,12.25,0,0,0-5.08-3.8,20.3,20.3,0,0,0-7.8-1.32h-9v36Z"/><path class="cls-1" d="M1776.78,389.25V399h-56.16v-9.76Z"/></svg>